<svg width="433" height="256" viewBox="0 0 433 256" fill="none" xmlns="http://www.w3.org/2000/svg">
<g clip-path="url(#clip0)">
<path fill-rule="evenodd" clip-rule="evenodd" d="M29.61 147.652L305.97 -11.9047L305.97 -11.9047C315.411 4.44849 336.322 10.0515 352.675 0.60999L415.358 109.18C399.005 118.621 393.402 139.532 402.843 155.885L126.484 315.442C117.042 299.088 96.1315 293.485 79.7784 302.927L79.7783 302.927L17.0953 194.357L17.0954 194.357C33.4485 184.916 39.0515 164.005 29.61 147.652Z" fill="url(#paint0_linear)"/>
<path d="M191.821 109.497L200.407 109.578L194.596 103.438L197.489 95.3796L189.68 99.0638L182.891 94.0291L183.856 102.426L176.762 107.346L185.186 108.871L187.598 116.973L191.821 109.497Z" fill="#212121"/>
<path d="M222.418 91.832L231.004 91.9127L225.193 85.7728L228.085 77.7145L220.277 81.3986L213.488 76.3639L214.453 84.7613L207.359 89.6812L215.783 91.2057L218.195 99.3081L222.418 91.832Z" fill="#212121"/>
<path d="M253.015 74.1669L261.601 74.2475L255.79 68.1076L258.682 60.0493L250.874 63.7334L244.085 58.6988L245.05 67.0961L237.955 72.0161L246.38 73.5405L248.792 81.643L253.015 74.1669Z" fill="#212121"/>
<path d="M130.628 144.828L139.214 144.908L133.403 138.768L136.295 130.71L128.487 134.394L121.697 129.359L122.662 137.757L115.568 142.677L123.993 144.201L126.404 152.304L130.628 144.828Z" fill="#212121"/>
<path d="M161.224 127.162L169.811 127.243L163.999 121.103L166.892 113.045L159.084 116.729L152.294 111.694L153.259 120.092L146.165 125.012L154.589 126.536L157.001 134.638L161.224 127.162Z" fill="#212121"/>
<path d="M245.387 202.275L253.973 202.356L248.162 196.216L251.054 188.158L243.246 191.842L236.456 186.807L237.422 195.204L230.327 200.124L238.752 201.649L241.164 209.751L245.387 202.275Z" fill="#212121"/>
<path d="M275.984 184.61L284.57 184.691L278.759 178.551L281.651 170.492L273.843 174.177L267.053 169.142L268.019 177.539L260.924 182.459L269.349 183.984L271.761 192.086L275.984 184.61Z" fill="#212121"/>
<path d="M306.581 166.945L315.167 167.025L309.356 160.886L312.248 152.827L304.44 156.511L297.65 151.477L298.615 159.874L291.521 164.794L299.946 166.318L302.357 174.421L306.581 166.945Z" fill="#212121"/>
<path d="M184.193 237.605L192.779 237.686L186.968 231.546L189.86 223.488L182.052 227.172L175.262 222.137L176.228 230.535L169.133 235.455L177.558 236.979L179.97 245.082L184.193 237.605Z" fill="#212121"/>
<path d="M214.79 219.94L223.376 220.021L217.565 213.881L220.457 205.823L212.649 209.507L205.859 204.472L206.825 212.87L199.73 217.789L208.155 219.314L210.567 227.416L214.79 219.94Z" fill="#212121"/>
<mask id="path-12-inside-1" fill="white">
<path fill-rule="evenodd" clip-rule="evenodd" d="M36.5234 150.24L304.755 -4.62311C313.641 10.768 333.712 15.8162 349.584 6.65243L408.579 108.836C392.707 118 387.044 137.905 395.93 153.297L127.698 308.16L127.698 308.16C118.812 292.769 98.7419 287.721 82.8697 296.884L23.8741 194.701C39.7461 185.537 45.4094 165.632 36.5234 150.24Z"/>
</mask>
<path d="M304.755 -4.62311L307.716 -6.33266L306.006 -9.29363L303.045 -7.58411L304.755 -4.62311ZM36.5234 150.24L34.8138 147.279L31.8529 148.989L33.5624 151.95L36.5234 150.24ZM349.584 6.65243L352.545 4.94289L350.835 1.9819L347.874 3.69143L349.584 6.65243ZM408.579 108.836L410.289 111.797L413.25 110.087L411.54 107.126L408.579 108.836ZM395.93 153.297L397.64 156.258L400.601 154.548L398.891 151.587L395.93 153.297ZM127.698 308.16L124.737 309.87L126.447 312.831L129.408 311.121L127.698 308.16ZM127.698 308.16L130.659 306.451L127.698 308.16ZM82.8697 296.884L79.9087 298.594L81.6182 301.555L84.5792 299.845L82.8697 296.884ZM23.8741 194.701L22.1645 191.74L19.2035 193.45L20.9131 196.411L23.8741 194.701ZM303.045 -7.58411L34.8138 147.279L38.2329 153.201L306.464 -1.66211L303.045 -7.58411ZM347.874 3.69143C333.551 11.961 315.609 7.33789 307.716 -6.33266L301.794 -2.91356C311.673 14.198 333.872 19.6714 351.293 9.61342L347.874 3.69143ZM411.54 107.126L352.545 4.94289L346.623 8.36196L405.618 110.545L411.54 107.126ZM398.891 151.587C390.998 137.916 395.965 120.067 410.289 111.797L406.87 105.875C389.449 115.933 383.09 137.894 392.969 155.006L398.891 151.587ZM129.408 311.121L397.64 156.258L394.22 150.336L125.989 305.199L129.408 311.121ZM124.737 309.87L124.737 309.87L130.659 306.451L130.659 306.451L124.737 309.87ZM84.5792 299.845C98.9026 291.576 116.845 296.199 124.737 309.87L130.659 306.451C120.78 289.339 98.5811 283.866 81.1602 293.923L84.5792 299.845ZM20.9131 196.411L79.9087 298.594L85.8307 295.175L26.8351 192.991L20.9131 196.411ZM33.5624 151.95C41.455 165.621 36.4878 183.47 22.1645 191.74L25.5836 197.662C43.0044 187.604 49.3637 165.643 39.4844 148.531L33.5624 151.95Z" fill="#EA1E62" mask="url(#path-12-inside-1)"/>
<rect x="47.6106" y="158.315" width="2.27938" height="6.83813" rx="1.13969" transform="rotate(-30 47.6106 158.315)" fill="#EA1E62"/>
<rect x="74.9629" y="205.691" width="2.27938" height="6.83813" rx="1.13969" transform="rotate(-30 74.9629 205.691)" fill="#EA1E62"/>
<rect x="54.4485" y="170.159" width="2.27938" height="6.83813" rx="1.13969" transform="rotate(-30 54.4485 170.159)" fill="#EA1E62"/>
<rect x="81.801" y="217.535" width="2.27938" height="6.83813" rx="1.13969" transform="rotate(-30 81.801 217.535)" fill="#EA1E62"/>
<rect x="61.2866" y="182.003" width="2.27938" height="6.83813" rx="1.13969" transform="rotate(-30 61.2866 182.003)" fill="#EA1E62"/>
<rect x="88.6392" y="229.379" width="2.27938" height="6.83813" rx="1.13969" transform="rotate(-30 88.6392 229.379)" fill="#EA1E62"/>
<rect x="68.1248" y="193.847" width="2.27938" height="6.83813" rx="1.13969" transform="rotate(-30 68.1248 193.847)" fill="#EA1E62"/>
<rect x="95.4773" y="241.223" width="2.27938" height="6.83813" rx="1.13969" transform="rotate(-30 95.4773 241.223)" fill="#EA1E62"/>
<rect x="102.315" y="253.067" width="2.27938" height="6.83813" rx="1.13969" transform="rotate(-30 102.315 253.067)" fill="#EA1E62"/>
<rect x="304.23" y="10.1555" width="2.27938" height="6.83813" rx="1.13969" transform="rotate(-30 304.23 10.1555)" fill="#EA1E62"/>
<rect x="331.583" y="57.5316" width="2.27938" height="6.83813" rx="1.13969" transform="rotate(-30 331.583 57.5316)" fill="#EA1E62"/>
<rect x="311.068" y="21.9995" width="2.27938" height="6.83813" rx="1.13969" transform="rotate(-30 311.068 21.9995)" fill="#EA1E62"/>
<rect x="338.421" y="69.3756" width="2.27938" height="6.83813" rx="1.13969" transform="rotate(-30 338.421 69.3756)" fill="#EA1E62"/>
<rect x="317.906" y="33.8436" width="2.27938" height="6.83813" rx="1.13969" transform="rotate(-30 317.906 33.8436)" fill="#EA1E62"/>
<rect x="345.259" y="81.2196" width="2.27938" height="6.83813" rx="1.13969" transform="rotate(-30 345.259 81.2196)" fill="#EA1E62"/>
<rect x="324.745" y="45.6876" width="2.27938" height="6.83813" rx="1.13969" transform="rotate(-30 324.745 45.6876)" fill="#EA1E62"/>
<rect x="352.097" y="93.0635" width="2.27938" height="6.83813" rx="1.13969" transform="rotate(-30 352.097 93.0635)" fill="#EA1E62"/>
<rect x="358.935" y="104.907" width="2.27938" height="6.83813" rx="1.13969" transform="rotate(-30 358.935 104.907)" fill="#EA1E62"/>
<rect x="365.773" y="116.751" width="2.27938" height="6.83813" rx="1.13969" transform="rotate(-30 365.773 116.751)" fill="#EA1E62"/>
<rect x="372.611" y="128.595" width="2.27938" height="6.83813" rx="1.13969" transform="rotate(-30 372.611 128.595)" fill="#EA1E62"/>
<rect x="379.449" y="140.439" width="2.27938" height="6.83813" rx="1.13969" transform="rotate(-30 379.449 140.439)" fill="#EA1E62"/>
<path d="M146.069 169.093C146.431 168.884 146.819 168.835 147.234 168.947C147.65 169.058 147.962 169.295 148.171 169.656L151.191 174.888C151.4 175.249 151.448 175.638 151.337 176.053C151.226 176.468 150.989 176.78 150.628 176.989L141.942 182.004L156.558 207.32C156.767 207.682 156.816 208.071 156.705 208.486C156.594 208.901 156.357 209.213 155.995 209.422L149.53 213.155C149.169 213.364 148.78 213.412 148.365 213.301C147.95 213.19 147.638 212.953 147.429 212.592L132.812 187.275L124.127 192.29C123.765 192.499 123.376 192.547 122.961 192.436C122.546 192.325 122.234 192.088 122.025 191.726L119.005 186.495C118.796 186.133 118.747 185.745 118.858 185.33C118.969 184.915 119.206 184.603 119.568 184.394L146.069 169.093ZM173.113 199.539C172.751 199.748 172.362 199.797 171.947 199.686C171.532 199.575 171.22 199.338 171.011 198.976L152.605 167.096C152.396 166.734 152.347 166.346 152.459 165.931C152.57 165.515 152.806 165.203 153.168 164.994L159.633 161.262C159.995 161.053 160.383 161.004 160.799 161.115C161.214 161.227 161.526 161.463 161.735 161.825L180.141 193.705C180.35 194.067 180.399 194.456 180.287 194.871C180.176 195.286 179.94 195.598 179.578 195.807L173.113 199.539ZM188.195 173.329C189.314 174.964 190.655 176.032 192.217 176.534C193.812 177.017 195.646 176.66 197.718 175.463C199.692 174.324 200.905 173.119 201.356 171.85C201.808 170.58 201.901 169.298 201.636 168.003C201.511 167.33 201.49 166.838 201.573 166.526C201.656 166.215 201.961 165.907 202.488 165.603L208.953 161.871C209.249 161.7 209.562 161.673 209.892 161.789C210.237 161.853 210.494 162.034 210.665 162.33C211.905 164.553 212.375 167.001 212.076 169.674C211.791 172.295 210.794 174.823 209.085 177.258C207.376 179.692 205.106 181.726 202.277 183.359C199.217 185.126 196.211 186.072 193.257 186.199C190.284 186.292 187.593 185.696 185.184 184.411C182.756 183.093 180.764 181.238 179.208 178.847C178.23 177.305 177.447 176.025 176.858 175.005C176.155 173.788 175.248 172.14 174.136 170.062C172.81 167.538 172.193 164.911 172.285 162.183C172.357 159.421 173.187 156.793 174.773 154.298C176.373 151.751 178.703 149.594 181.763 147.827C184.592 146.194 187.488 145.246 190.451 144.983C193.414 144.72 196.111 145.137 198.542 146.233C200.988 147.278 202.863 148.893 204.169 151.078C204.34 151.374 204.377 151.704 204.279 152.067C204.196 152.378 204.006 152.62 203.71 152.79L197.245 156.523C196.719 156.827 196.3 156.937 195.989 156.854C195.677 156.77 195.261 156.506 194.741 156.061C193.752 155.184 192.595 154.623 191.27 154.38C189.945 154.136 188.295 154.584 186.321 155.723C184.249 156.92 183.023 158.33 182.644 159.952C182.297 161.556 182.552 163.251 183.408 165.038C183.988 166.195 184.753 167.595 185.703 169.24C186.615 170.82 187.446 172.182 188.195 173.329ZM250.804 152.513C250.979 152.588 251.132 152.74 251.265 152.97C251.436 153.266 251.473 153.596 251.376 153.959C251.292 154.271 251.103 154.512 250.807 154.683L242.96 159.213C242.532 159.46 242.123 159.587 241.732 159.593C241.322 159.567 240.838 159.451 240.281 159.246L224.173 152.886L230.84 164.434C231.049 164.796 231.098 165.184 230.987 165.599C230.875 166.015 230.639 166.327 230.277 166.536L223.812 170.268C223.45 170.477 223.062 170.526 222.647 170.415C222.231 170.303 221.919 170.067 221.71 169.705L203.304 137.825C203.095 137.463 203.047 137.074 203.158 136.659C203.269 136.244 203.506 135.932 203.868 135.723L210.332 131.991C210.694 131.782 211.083 131.733 211.498 131.844C211.913 131.955 212.225 132.192 212.434 132.554L218.446 142.967L220.977 127.292C221.051 126.811 221.162 126.396 221.311 126.047C221.46 125.698 221.798 125.371 222.324 125.067L230.023 120.622C230.319 120.451 230.632 120.424 230.963 120.54C231.307 120.605 231.565 120.785 231.736 121.081C231.85 121.279 231.905 121.488 231.901 121.709L228.316 143.651L250.804 152.513ZM257.065 133.172L271.179 125.023C271.541 124.814 271.777 124.502 271.889 124.087C272 123.672 271.951 123.283 271.742 122.922L268.722 117.69C268.513 117.329 268.201 117.092 267.786 116.981C267.371 116.87 266.982 116.918 266.62 117.127L252.506 125.276L249.429 119.946L264.629 111.171C264.991 110.962 265.227 110.65 265.338 110.235C265.45 109.819 265.401 109.431 265.192 109.069L262.172 103.838C261.963 103.476 261.651 103.239 261.235 103.128C260.82 103.017 260.432 103.066 260.07 103.275L237.073 116.552C236.711 116.761 236.474 117.073 236.363 117.488C236.252 117.903 236.301 118.292 236.51 118.654L254.916 150.534C255.125 150.896 255.437 151.132 255.852 151.244C256.267 151.355 256.655 151.306 257.017 151.097L280.409 137.592C280.771 137.383 281.008 137.071 281.119 136.656C281.23 136.24 281.181 135.852 280.972 135.49L277.952 130.259C277.743 129.897 277.431 129.66 277.016 129.549C276.601 129.438 276.212 129.487 275.85 129.696L260.256 138.699L257.065 133.172ZM292.817 84.3679C293.179 84.159 293.568 84.1101 293.983 84.2214C294.398 84.3326 294.71 84.5692 294.919 84.9311L297.939 90.1622C298.148 90.5241 298.197 90.9126 298.086 91.3277C297.975 91.7429 297.738 92.055 297.376 92.2639L288.691 97.2785L303.307 122.595C303.516 122.957 303.565 123.345 303.454 123.761C303.342 124.176 303.106 124.488 302.744 124.697L296.279 128.429C295.917 128.638 295.529 128.687 295.114 128.576C294.698 128.465 294.386 128.228 294.177 127.866L279.561 102.55L270.875 107.564C270.513 107.773 270.125 107.822 269.71 107.711C269.295 107.6 268.982 107.363 268.774 107.001L265.753 101.77C265.544 101.408 265.496 101.02 265.607 100.604C265.718 100.189 265.955 99.8772 266.317 99.6682L292.817 84.3679Z" fill="#212121"/>
<path d="M58.7995 209.683C58.4815 209.898 57.9554 210.218 57.2211 210.642C56.4986 211.059 55.9706 211.348 55.6371 211.509C54.1798 212.24 52.7549 212.439 51.3625 212.105C49.9768 211.784 48.7985 210.783 47.8275 209.101C46.8564 207.419 46.5748 205.892 46.9826 204.519C47.3973 203.159 48.2854 202.03 49.6469 201.133C50.2728 200.741 50.7871 200.428 51.1898 200.195C51.5925 199.963 52.1323 199.667 52.8093 199.308C54.2666 198.577 55.6881 198.372 57.0737 198.693C58.4662 199.026 59.648 200.034 60.619 201.716C61.59 203.398 61.8682 204.919 61.4535 206.279C61.0457 207.652 60.1611 208.786 58.7995 209.683ZM56.8131 206.448C57.444 206.036 57.855 205.585 58.0462 205.096C58.2493 204.6 58.1593 204.02 57.7764 203.357C57.3935 202.694 56.9364 202.326 56.4051 202.254C55.8857 202.174 55.29 202.305 54.618 202.646C53.9648 202.991 53.4664 203.263 53.1229 203.462C52.8032 203.646 52.3066 203.949 51.6333 204.369C50.9956 204.769 50.5752 205.217 50.3722 205.713C50.1878 206.214 50.2871 206.796 50.67 207.46C51.0529 208.123 51.5041 208.494 52.0236 208.573C52.5617 208.657 53.1633 208.523 53.8284 208.171C54.1855 207.996 54.6957 207.717 55.359 207.335C56.0223 206.952 56.507 206.656 56.8131 206.448ZM62.3664 214.384C62.4032 214.284 62.4809 214.199 62.5993 214.131C62.7652 214.035 62.933 214.025 63.103 214.101L68.2397 216.228C68.2771 216.238 68.3586 216.27 68.4844 216.324C68.617 216.389 68.7378 216.462 68.8467 216.541C68.9556 216.62 69.0408 216.713 69.1024 216.82L70.3538 218.987C70.429 219.117 70.4466 219.257 70.4065 219.407C70.3665 219.556 70.2813 219.669 70.151 219.744L58.6742 226.37C58.5439 226.445 58.404 226.463 58.2546 226.423C58.1051 226.383 57.9928 226.297 57.9176 226.167L56.5739 223.84C56.4987 223.71 56.4811 223.57 56.5211 223.42C56.5612 223.271 56.6463 223.158 56.7766 223.083L64.5404 218.601L61.7208 217.41C61.595 217.356 61.5014 217.276 61.4398 217.169C61.3509 217.015 61.3443 216.853 61.4199 216.683L62.3664 214.384ZM67.4155 236.053L69.99 240.513C70.0652 240.643 70.0828 240.783 70.0428 240.932C70.0027 241.082 69.9176 241.194 69.7873 241.269L67.9041 242.357C67.7738 242.432 67.6339 242.449 67.4845 242.409C67.335 242.369 67.2227 242.284 67.1474 242.154L61.7316 232.773C61.6564 232.643 61.6388 232.503 61.6789 232.354C61.7189 232.204 61.8041 232.092 61.9344 232.017L63.4623 231.135C63.9123 230.875 64.3609 230.845 64.8079 231.045L71.6767 234.162C72.1798 234.377 72.584 234.475 72.8892 234.456C73.2132 234.443 73.5173 234.354 73.8015 234.19C74.0976 234.019 74.3322 233.742 74.5052 233.358C74.6851 232.985 74.6075 232.509 74.2724 231.929C74.0399 231.526 73.7724 231.254 73.4698 231.113C73.1859 230.977 72.9524 230.914 72.7692 230.925C72.6047 230.941 72.3496 230.978 72.0038 231.036C71.8156 231.065 71.6577 231.038 71.5301 230.954C71.4025 230.869 71.2874 230.738 71.1849 230.561L69.9232 228.376C69.8617 228.269 69.8425 228.154 69.8657 228.03C69.9076 227.911 69.9818 227.821 70.0884 227.759C70.8009 227.379 71.577 227.192 72.4167 227.197C73.2683 227.194 74.1074 227.444 74.934 227.946C75.7725 228.441 76.4961 229.216 77.1047 230.27C77.6859 231.277 77.9897 232.254 78.016 233.202C78.0541 234.143 77.8593 234.982 77.4317 235.719C77.0228 236.46 76.4453 237.046 75.6991 237.477C74.9766 237.894 74.2236 238.108 73.4399 238.118C72.6749 238.133 71.7732 237.912 70.7347 237.453L67.4155 236.053ZM88.3323 250.127C88.4075 250.257 88.4251 250.397 88.3851 250.547C88.345 250.696 88.2599 250.808 88.1296 250.884L86.2464 251.971C86.0687 252.073 85.7931 252.075 85.4194 251.974L82.0109 251.076C82.3347 252.184 82.3671 253.184 82.1082 254.076C81.8492 254.967 81.2756 255.67 80.3873 256.183C79.0726 256.942 77.8051 257.058 76.5848 256.53C75.3713 256.015 74.2824 254.922 73.3183 253.252C72.696 252.174 72.3182 251.137 72.1848 250.14C72.0515 249.143 72.1282 248.278 72.415 247.544C72.7136 246.803 73.1582 246.246 73.7485 245.874C73.8551 245.812 73.9645 245.796 74.0766 245.827C74.2073 245.862 74.3035 245.932 74.365 246.039L75.6574 248.277C75.7668 248.467 75.8202 248.641 75.8175 248.801C75.8267 248.954 75.8047 249.148 75.7514 249.384C75.675 249.744 75.6494 250.082 75.6745 250.4C75.7184 250.722 75.8805 251.126 76.1608 251.611C76.5027 252.203 76.8769 252.619 77.2834 252.858C77.6968 253.109 78.0988 253.122 78.4897 252.896C78.8806 252.67 79.0707 252.316 79.06 251.832C79.0562 251.361 78.8834 250.829 78.5415 250.237L77.6901 248.762C77.6149 248.632 77.5973 248.492 77.6374 248.342C77.6774 248.193 77.7626 248.081 77.8929 248.005L79.4207 247.123C79.5392 247.055 79.6629 247.023 79.7918 247.028C79.9276 247.044 80.0889 247.077 80.2757 247.127L83.2639 247.913L80.5868 243.276C80.5116 243.146 80.494 243.006 80.5341 242.856C80.5741 242.707 80.6593 242.594 80.7895 242.519L82.6727 241.432C82.803 241.357 82.9429 241.339 83.0924 241.379C83.2418 241.419 83.3541 241.504 83.4294 241.635L88.3323 250.127ZM83.2577 270.058C83.1824 269.927 83.1649 269.787 83.2049 269.638C83.2449 269.488 83.3301 269.376 83.4604 269.301L85.2725 268.255L82.0415 262.658C81.9663 262.528 81.9487 262.388 81.9888 262.239C82.0288 262.089 82.114 261.977 82.2442 261.902L84.1274 260.814C84.4354 260.637 84.7345 260.567 85.0247 260.604L94.7894 262.049C94.9812 262.081 95.1188 262.128 95.2022 262.19C95.3043 262.257 95.3998 262.368 95.4887 262.522L97.0375 265.205C97.1128 265.335 97.1304 265.475 97.0903 265.624C97.0503 265.774 96.9651 265.886 96.8348 265.961L90.0127 269.9L90.8948 271.428C90.97 271.558 90.9876 271.698 90.9475 271.848C90.9075 271.997 90.8223 272.109 90.692 272.185L88.8089 273.272C88.6786 273.347 88.5387 273.365 88.3892 273.325C88.2398 273.285 88.1274 273.2 88.0522 273.069L87.1701 271.541L85.358 272.588C85.2277 272.663 85.0878 272.68 84.9384 272.64C84.7889 272.6 84.6766 272.515 84.6014 272.385L83.2577 270.058ZM91.4353 264.815L86.6688 264.108L88.1664 266.702L91.4353 264.815Z" fill="#212121"/>
<path d="M373.939 94.3475C374.257 94.1323 374.783 93.8127 375.517 93.3888C376.24 92.9717 376.768 92.6826 377.101 92.5217C378.559 91.7909 379.984 91.592 381.376 91.925C382.762 92.2463 383.94 93.2478 384.911 94.9296C385.882 96.6115 386.164 98.1387 385.756 99.5111C385.341 100.872 384.453 102 383.092 102.897C382.466 103.29 381.951 103.603 381.549 103.835C381.146 104.068 380.606 104.364 379.929 104.723C378.472 105.454 377.05 105.658 375.665 105.337C374.272 105.004 373.091 103.997 372.12 102.315C371.149 100.633 370.87 99.1118 371.285 97.7511C371.693 96.3787 372.577 95.2441 373.939 94.3475ZM375.925 97.5829C375.295 97.9945 374.883 98.445 374.692 98.9344C374.489 99.4307 374.579 100.01 374.962 100.674C375.345 101.337 375.802 101.705 376.333 101.777C376.853 101.856 377.449 101.725 378.12 101.385C378.774 101.039 379.272 100.767 379.616 100.569C379.935 100.384 380.432 100.082 381.105 99.6616C381.743 99.2618 382.163 98.8138 382.366 98.3176C382.551 97.8163 382.451 97.2341 382.069 96.5708C381.686 95.9075 381.234 95.5363 380.715 95.4572C380.177 95.3731 379.575 95.5073 378.91 95.8597C378.553 96.0343 378.043 96.3131 377.38 96.696C376.716 97.0789 376.232 97.3746 375.925 97.5829ZM370.372 89.6465C370.335 89.7467 370.258 89.831 370.139 89.8994C369.973 89.9952 369.805 90.0052 369.636 89.9297L364.499 87.8024C364.461 87.7924 364.38 87.7605 364.254 87.7068C364.122 87.6412 364.001 87.5688 363.892 87.4896C363.783 87.4103 363.698 87.3174 363.636 87.2108L362.385 85.0434C362.31 84.9131 362.292 84.7732 362.332 84.6238C362.372 84.4743 362.457 84.362 362.587 84.2868L374.064 77.6606C374.195 77.5854 374.334 77.5678 374.484 77.6078C374.633 77.6479 374.746 77.7331 374.821 77.8633L376.165 80.1907C376.24 80.321 376.257 80.4608 376.217 80.6103C376.177 80.7597 376.092 80.8721 375.962 80.9473L368.198 85.4297L371.018 86.6207C371.143 86.6744 371.237 86.7546 371.299 86.8612C371.388 87.0152 371.394 87.1771 371.319 87.3471L370.372 89.6465ZM365.323 67.9771L362.749 63.5179C362.673 63.3876 362.656 63.2477 362.696 63.0983C362.736 62.9488 362.821 62.8365 362.951 62.7612L364.834 61.674C364.965 61.5988 365.105 61.5812 365.254 61.6212C365.404 61.6613 365.516 61.7464 365.591 61.8767L371.007 71.2572C371.082 71.3874 371.1 71.5273 371.06 71.6768C371.02 71.8262 370.934 71.9386 370.804 72.0138L369.276 72.8959C368.826 73.1558 368.378 73.1857 367.931 72.9859L361.062 69.8689C360.559 69.654 360.155 69.5557 359.849 69.574C359.525 69.5873 359.221 69.6761 358.937 69.8402C358.641 70.0111 358.406 70.2887 358.233 70.6728C358.053 71.0451 358.131 71.5215 358.466 72.1018C358.699 72.5045 358.966 72.7764 359.269 72.9176C359.553 73.0537 359.786 73.1163 359.969 73.1053C360.134 73.0893 360.389 73.0525 360.735 72.995C360.923 72.9653 361.081 72.9926 361.208 73.0769C361.336 73.1611 361.451 73.2921 361.554 73.4697L362.815 75.655C362.877 75.7615 362.896 75.8768 362.873 76.0008C362.831 76.1197 362.757 76.2099 362.65 76.2715C361.938 76.6512 361.162 76.8387 360.322 76.834C359.47 76.8361 358.631 76.5862 357.804 76.0844C356.966 75.5894 356.242 74.8148 355.634 73.7607C355.053 72.754 354.749 71.7765 354.723 70.8284C354.684 69.8871 354.879 69.0482 355.307 68.3118C355.716 67.5704 356.293 66.9843 357.039 66.5535C357.762 66.1363 358.515 65.9226 359.299 65.9124C360.064 65.8971 360.965 66.1187 362.004 66.5772L365.323 67.9771ZM344.406 53.9036C344.331 53.7733 344.313 53.6335 344.353 53.484C344.393 53.3346 344.479 53.2222 344.609 53.147L346.492 52.0597C346.67 51.9572 346.945 51.9559 347.319 52.0561L350.728 52.9544C350.404 51.8464 350.371 50.8465 350.63 49.9548C350.889 49.0631 351.463 48.3608 352.351 47.8479C353.666 47.0889 354.933 46.973 356.154 47.5002C357.367 48.0156 358.456 49.1083 359.42 50.7783C360.043 51.8561 360.42 52.8934 360.554 53.8902C360.687 54.8871 360.61 55.7526 360.324 56.4867C360.025 57.2276 359.58 57.7843 358.99 58.1567C358.883 58.2183 358.774 58.234 358.662 58.204C358.531 58.169 358.435 58.0981 358.373 57.9915L357.081 55.753C356.972 55.5635 356.918 55.389 356.921 55.2296C356.912 55.0769 356.934 54.8826 356.987 54.6466C357.064 54.2866 357.089 53.9481 357.064 53.631C357.02 53.3089 356.858 52.905 356.578 52.4194C356.236 51.8272 355.862 51.4116 355.455 51.1725C355.042 50.9216 354.64 50.909 354.249 51.1346C353.858 51.3603 353.668 51.7148 353.678 52.1982C353.682 52.6698 353.855 53.2017 354.197 53.7939L355.048 55.2684C355.124 55.3987 355.141 55.5386 355.101 55.6881C355.061 55.8375 354.976 55.9499 354.846 56.0251L353.318 56.9072C353.199 56.9756 353.076 57.0075 352.947 57.003C352.811 56.9866 352.65 56.9534 352.463 56.9034L349.475 56.1177L352.152 60.7546C352.227 60.8849 352.245 61.0248 352.204 61.1742C352.164 61.3237 352.079 61.436 351.949 61.5112L350.066 62.5985C349.935 62.6737 349.796 62.6913 349.646 62.6513C349.497 62.6112 349.384 62.5261 349.309 62.3958L344.406 53.9036ZM349.481 33.973C349.556 34.1033 349.574 34.2432 349.534 34.3926C349.494 34.5421 349.408 34.6544 349.278 34.7296L347.466 35.7759L350.697 41.3722C350.772 41.5024 350.79 41.6423 350.75 41.7918C350.71 41.9412 350.625 42.0536 350.494 42.1288L348.611 43.2161C348.303 43.3938 348.004 43.4639 347.714 43.4262L337.949 41.9811C337.757 41.9497 337.62 41.9028 337.536 41.8404C337.434 41.773 337.339 41.6623 337.25 41.5084L335.701 38.8257C335.626 38.6954 335.608 38.5556 335.648 38.4061C335.688 38.2566 335.773 38.1443 335.904 38.0691L342.726 34.1303L341.844 32.6024C341.769 32.4722 341.751 32.3323 341.791 32.1828C341.831 32.0334 341.916 31.921 342.046 31.8458L343.93 30.7586C344.06 30.6833 344.2 30.6658 344.349 30.7058C344.499 30.7458 344.611 30.831 344.686 30.9613L345.568 32.4892L347.381 31.4429C347.511 31.3677 347.651 31.3501 347.8 31.3902C347.95 31.4302 348.062 31.5154 348.137 31.6457L349.481 33.973ZM341.303 39.2155L346.07 39.922L344.572 37.3282L341.303 39.2155Z" fill="#212121"/>
</g>
<defs>
<linearGradient id="paint0_linear" x1="167.79" y1="67.8735" x2="264.663" y2="235.663" gradientUnits="userSpaceOnUse">
<stop stop-color="#FFDEE9"/>
<stop offset="1" stop-color="#CD9ED5"/>
</linearGradient>
<clipPath id="clip0">
<rect width="433" height="256" fill="white"/>
</clipPath>
</defs>
</svg>
