<svg width="103" height="103" viewBox="0 0 103 103" fill="none" xmlns="http://www.w3.org/2000/svg">
<ellipse cx="53.3859" cy="51.5" rx="49.6141" ry="51.5" fill="url(#paint0_linear)"/>
<ellipse cx="48.9613" cy="51.5" rx="48.9613" ry="51.5" fill="url(#paint1_linear)"/>
<g style="mix-blend-mode:multiply" opacity="0.48" filter="url(#filter0_f)">
<ellipse cx="49.1064" cy="51.4994" rx="46.7852" ry="48.2084" fill="black"/>
</g>
<g filter="url(#filter1_i)">
<ellipse cx="48.6711" cy="51.4993" rx="42.288" ry="46.014" fill="url(#paint2_linear)"/>
</g>
<mask id="path-5-outside-1" maskUnits="userSpaceOnUse" x="0.885925" y="2.29102" width="94" height="98" fill="black">
<rect fill="white" x="0.885925" y="2.29102" width="94" height="98"/>
<path fill-rule="evenodd" clip-rule="evenodd" d="M47.8732 99.7078C73.2713 99.7078 93.8606 78.1242 93.8606 51.4994C93.8606 24.8746 73.2713 3.29102 47.8732 3.29102C22.4751 3.29102 1.88593 24.8746 1.88593 51.4994C1.88593 78.1242 22.4751 99.7078 47.8732 99.7078ZM47.6556 97.3767C71.4914 97.3767 90.8141 76.837 90.8141 51.4999C90.8141 26.1628 71.4914 5.62306 47.6556 5.62306C23.8199 5.62306 4.49718 26.1628 4.49718 51.4999C4.49718 76.837 23.8199 97.3767 47.6556 97.3767Z"/>
</mask>
<path fill-rule="evenodd" clip-rule="evenodd" d="M47.8732 99.7078C73.2713 99.7078 93.8606 78.1242 93.8606 51.4994C93.8606 24.8746 73.2713 3.29102 47.8732 3.29102C22.4751 3.29102 1.88593 24.8746 1.88593 51.4994C1.88593 78.1242 22.4751 99.7078 47.8732 99.7078ZM47.6556 97.3767C71.4914 97.3767 90.8141 76.837 90.8141 51.4999C90.8141 26.1628 71.4914 5.62306 47.6556 5.62306C23.8199 5.62306 4.49718 26.1628 4.49718 51.4999C4.49718 76.837 23.8199 97.3767 47.6556 97.3767Z" fill="url(#paint3_linear)"/>
<path d="M93.5865 51.4994C93.5865 77.9851 73.1079 99.4337 47.8732 99.4337V99.9819C73.4348 99.9819 94.1347 78.2632 94.1347 51.4994H93.5865ZM47.8732 3.56511C73.1079 3.56511 93.5865 25.0137 93.5865 51.4994H94.1347C94.1347 24.7356 73.4348 3.01692 47.8732 3.01692V3.56511ZM2.16002 51.4994C2.16002 25.0137 22.6386 3.56511 47.8732 3.56511V3.01692C22.3117 3.01692 1.61183 24.7356 1.61183 51.4994H2.16002ZM47.8732 99.4337C22.6386 99.4337 2.16002 77.9851 2.16002 51.4994H1.61183C1.61183 78.2632 22.3117 99.9819 47.8732 99.9819V99.4337ZM90.54 51.4999C90.54 76.7016 71.3245 97.1026 47.6556 97.1026V97.6508C71.6583 97.6508 91.0882 76.9723 91.0882 51.4999H90.54ZM47.6556 5.89715C71.3245 5.89715 90.54 26.2982 90.54 51.4999H91.0882C91.0882 26.0274 71.6583 5.34896 47.6556 5.34896V5.89715ZM4.77127 51.4999C4.77127 26.2982 23.9868 5.89715 47.6556 5.89715V5.34896C23.653 5.34896 4.22308 26.0274 4.22308 51.4999H4.77127ZM47.6556 97.1026C23.9868 97.1026 4.77127 76.7016 4.77127 51.4999H4.22308C4.22308 76.9723 23.653 97.6508 47.6556 97.6508V97.1026Z" fill="url(#paint4_linear)" style="mix-blend-mode:soft-light" mask="url(#path-5-outside-1)"/>
<mask id="path-7-outside-2" maskUnits="userSpaceOnUse" x="0.885925" y="2.29102" width="94" height="98" fill="black">
<rect fill="white" x="0.885925" y="2.29102" width="94" height="98"/>
<path fill-rule="evenodd" clip-rule="evenodd" d="M47.8732 99.7078C73.2713 99.7078 93.8606 78.1242 93.8606 51.4994C93.8606 24.8746 73.2713 3.29102 47.8732 3.29102C22.4751 3.29102 1.88593 24.8746 1.88593 51.4994C1.88593 78.1242 22.4751 99.7078 47.8732 99.7078ZM47.6556 97.3767C71.4914 97.3767 90.8141 76.837 90.8141 51.4999C90.8141 26.1628 71.4914 5.62306 47.6556 5.62306C23.8199 5.62306 4.49718 26.1628 4.49718 51.4999C4.49718 76.837 23.8199 97.3767 47.6556 97.3767Z"/>
</mask>
<path d="M93.5865 51.4994C93.5865 77.9851 73.1079 99.4337 47.8732 99.4337V99.9819C73.4348 99.9819 94.1347 78.2632 94.1347 51.4994H93.5865ZM47.8732 3.56511C73.1079 3.56511 93.5865 25.0137 93.5865 51.4994H94.1347C94.1347 24.7356 73.4348 3.01692 47.8732 3.01692V3.56511ZM2.16002 51.4994C2.16002 25.0137 22.6386 3.56511 47.8732 3.56511V3.01692C22.3117 3.01692 1.61183 24.7356 1.61183 51.4994H2.16002ZM47.8732 99.4337C22.6386 99.4337 2.16002 77.9851 2.16002 51.4994H1.61183C1.61183 78.2632 22.3117 99.9819 47.8732 99.9819V99.4337ZM90.54 51.4999C90.54 76.7016 71.3245 97.1026 47.6556 97.1026V97.6508C71.6583 97.6508 91.0882 76.9723 91.0882 51.4999H90.54ZM47.6556 5.89715C71.3245 5.89715 90.54 26.2982 90.54 51.4999H91.0882C91.0882 26.0274 71.6583 5.34896 47.6556 5.34896V5.89715ZM4.77127 51.4999C4.77127 26.2982 23.9868 5.89715 47.6556 5.89715V5.34896C23.653 5.34896 4.22308 26.0274 4.22308 51.4999H4.77127ZM47.6556 97.1026C23.9868 97.1026 4.77127 76.7016 4.77127 51.4999H4.22308C4.22308 76.9723 23.653 97.6508 47.6556 97.6508V97.1026Z" fill="url(#paint5_linear)" style="mix-blend-mode:soft-light" mask="url(#path-7-outside-2)"/>
<g clip-path="url(#clip0)">
<g filter="url(#filter2_d)">
<path d="M43.4604 24.3575C45.3998 24.6948 47.4306 24.217 48.2035 23.9359C47.5184 24.3575 46.7806 25.3061 46.6225 25.4115C46.496 25.4959 45.3752 25.8332 44.8307 25.9913C43.4253 26.1142 40.4038 25.9069 39.5606 24.094C38.5065 21.8279 40.4038 20.5104 40.0876 21.1428C39.8346 21.6487 40.0876 22.3022 40.2457 22.5657C40.5092 23.0224 41.521 24.0202 43.4604 24.3575Z" fill="#03A9F4"/>
<path d="M51.8926 26.6764C51.471 27.2245 51.0142 28.1344 50.8386 28.5209C51.1021 28.9425 51.8926 28.0993 52.3669 28.0993C52.8412 28.0993 53.1047 27.8885 53.3155 28.0993C53.5263 28.3101 53.3155 28.3628 54.3168 28.3101C55.3181 28.2574 55.7397 28.8371 55.7398 28.6263C55.7398 28.4155 55.5816 27.2034 55.5289 26.8345C55.4762 26.4656 54.5276 25.5696 53.8425 25.6223C53.1574 25.675 52.4196 25.9913 51.8926 26.6764Z" fill="#03A9F4"/>
<path d="M56.0033 27.3615C55.9611 26.982 55.6695 26.2899 55.5289 25.9913C55.3891 25.675 55.6343 25.8859 56.0033 26.3075C56.3722 26.7291 56.4776 26.4656 56.6884 26.6764C56.8992 26.8872 57.0573 27.7831 57.11 28.3101C57.1627 28.8371 56.6884 28.7317 56.2141 28.5209C55.7398 28.3101 56.056 27.8358 56.0033 27.3615Z" fill="#03A9F4"/>
<path d="M59.9558 26.3075L58.1113 27.8885C58.5856 25.7804 57.5843 23.9359 56.8465 23.2508C57.514 23.4792 58.9756 24.1151 59.4815 24.8318C59.9874 25.5486 60.0261 25.8507 59.9558 26.3075Z" fill="#03A9F4"/>
<path d="M60.9571 32.0519C60.8307 32.094 60.5882 31.7181 60.4828 31.5249C61.579 30.0492 61.3085 28.9776 60.9571 28.5209L61.4315 28.0993L61.8004 28.8898C61.9585 28.9952 62.3168 29.2903 62.4855 29.6276C62.6963 30.0492 62.6963 30.7343 62.4855 31.314C62.2747 31.8938 61.9058 32.21 61.6423 32.0519C61.3788 31.8938 61.1152 31.9992 60.9571 32.0519Z" fill="#03A9F4"/>
<path d="M41.2997 36.9531C42.3115 36.8266 44.2158 35.7761 45.0415 35.2666C44.1455 36.0044 44.8307 35.7936 45.0415 35.899C45.2523 36.0044 44.6198 36.3206 43.6185 36.7949C42.8175 37.1744 43.074 36.7774 43.3023 36.5314C42.6875 36.9004 40.8886 37.6487 38.6119 37.6909C36.3353 37.733 34.6067 38.9733 34.027 39.5881C34.3432 39.1138 35.1548 38.0914 35.8715 37.7963C36.7674 37.4274 40.0349 37.1112 41.2997 36.9531Z" fill="#03A9F4"/>
<path d="M32.6617 44.3345C32.6599 44.3151 32.6582 44.2964 32.6567 44.2785C32.6584 44.2972 32.6601 44.3159 32.6617 44.3345C32.7025 44.7739 32.8238 45.5926 33.0256 45.7541C33.2891 45.9649 33.6053 46.2284 33.4999 46.65C33.4156 46.9873 32.6216 47.5986 32.2351 47.8622C32.4438 47.4448 32.8177 46.1599 32.6617 44.3345Z" fill="#03A9F4"/>
<path d="M41.6159 42.7502C41.8689 42.4129 42.705 42.0826 43.0915 41.9596C42.3537 42.5921 43.4077 42.3813 43.3023 42.434C43.1969 42.4867 42.5645 43.1718 42.301 43.5407C42.0375 43.9096 41.2997 44.542 40.8254 44.6474C40.3511 44.7528 40.4565 44.0677 40.6146 43.9623C40.7727 43.8569 41.2997 43.1718 41.6159 42.7502Z" fill="#03A9F4"/>
<path d="M40.2984 48.2838C41.0151 48.1573 42.1078 45.3501 42.5645 43.9623C41.1943 45.1744 39.8768 45.596 39.5606 45.7541C39.3076 45.8806 39.0335 47.4932 38.9281 48.2838C39.0862 48.3365 39.5816 48.4102 40.2984 48.2838Z" fill="#03A9F4"/>
<path d="M37.5052 46.7554C37.4209 47.2192 37.5404 47.9676 37.6106 48.2838C33.0573 48.4102 30.8649 51.9553 30.3379 53.712L30.5487 51.6039C30.8298 50.8485 31.6976 49.0637 32.9202 47.9676C34.1429 46.8714 36.4863 46.2109 37.5052 46.0176C37.5404 46.0703 37.5895 46.2917 37.5052 46.7554Z" fill="#03A9F4"/>
<path d="M40.0876 48.6527C39.9189 48.6948 39.2444 48.6702 38.9281 48.6527C38.7173 49.2008 39.016 50.2864 39.1917 50.7607L40.6146 48.4419C40.5092 48.4946 40.2562 48.6105 40.0876 48.6527Z" fill="#03A9F4"/>
<path d="M38.9281 50.9188L37.9795 49.2851C37.3998 50.6377 35.9242 53.5749 34.6594 54.5025C33.3945 55.43 33.2891 55.5916 33.3945 55.5565C33.7635 55.3808 34.7332 54.8608 35.6607 54.1863C36.5882 53.5117 38.2255 51.7269 38.9281 50.9188Z" fill="#03A9F4"/>
<path d="M44.4617 51.2877C47.4552 49.4748 48.1332 45.1217 48.0981 43.1718C48.5197 42.8029 48.2035 47.3878 48.467 47.3351C48.7305 47.2824 48.7305 46.3865 48.994 46.123C49.2575 45.8595 49.3102 46.1757 49.2048 48.1257C49.0994 50.0756 48.3089 51.4458 47.0968 52.816C46.1446 53.8925 44.3691 54.8198 43.5569 55.1689C43.5416 55.1758 43.527 55.182 43.5131 55.1876C43.5274 55.1816 43.542 55.1753 43.5569 55.1689C43.8318 55.045 44.3164 54.7055 44.3563 54.1863C44.3962 53.6683 44.6902 53.1723 44.8558 52.9562C44.4685 53.4337 43.1928 54.5347 40.9308 55.3984C38.6119 56.2838 36.4512 55.7673 35.6607 55.3984C35.9066 55.293 36.4617 55.04 36.7147 54.8714C36.9677 54.7027 38.0147 54.0282 38.5065 53.712C39.2444 53.6593 41.4683 53.1006 44.4617 51.2877Z" fill="#03A9F4"/>
<path d="M56.3722 48.6527C56.5408 48.484 56.6181 48.7229 56.6357 48.8635C56.1087 49.2851 56.3722 49.8648 56.3722 50.0229C56.3722 50.181 56.6357 50.5499 57.0573 50.3918C57.4789 50.2337 57.5316 50.0229 57.5316 50.3918C57.5316 50.6869 57.6721 50.9715 57.7424 51.0769C57.7775 51.3053 57.8056 52.0255 57.637 53.0795C57.4262 54.3971 56.5303 55.8727 56.0033 56.4524C55.4762 57.0321 56.0033 55.8727 56.1614 55.5565C56.3195 55.2403 56.6357 54.6079 56.3722 54.5025C56.1614 54.4182 56.1438 54.2565 56.1614 54.1863C55.9154 55.047 55.16 56.9794 54.106 57.8226C53.052 58.6658 51.7345 58.6307 51.2075 58.5077C51.7872 58.0159 53.0942 56.8002 53.6844 55.8727C54.4222 54.7133 54.3695 53.8701 54.633 51.762C54.8965 49.654 56.1614 48.8635 56.3722 48.6527Z" fill="#03A9F4"/>
<path d="M60.8517 50.7607C61.189 50.5077 61.2382 49.6716 61.2206 49.2851C61.5896 49.1797 61.7477 50.2864 61.8004 50.7607C61.8531 51.235 61.3788 52.3944 61.6423 52.2363C61.9058 52.0782 62.222 51.0769 62.3274 51.0769C62.4117 51.0769 62.1868 52.0255 62.0639 52.4998C61.7301 53.1322 61.0204 54.3549 60.8517 54.1863C60.6409 53.9755 61.3788 52.816 61.0625 53.0795C60.8096 53.2904 60.395 53.8349 60.2193 54.0809C60.1666 53.5012 60.0612 52.2469 60.0612 51.8674C60.0612 51.3931 60.4301 51.0769 60.8517 50.7607Z" fill="#03A9F4"/>
<path d="M63.3287 50.0229C63.2022 49.3062 62.5382 48.5648 62.222 48.2838C63.5922 46.1757 61.9585 45.5433 62.3274 45.6487C62.6225 45.733 62.7314 45.6136 62.749 45.5433C63.1706 45.9825 64.056 47.1138 64.2246 48.1257C64.4354 49.3905 64.0138 50.181 63.6976 50.9188C63.3814 51.6566 63.4868 50.9188 63.3287 50.0229Z" fill="#03A9F4"/>
<path d="M30.4435 29.101C29.3895 29.4383 29.0908 30.7874 29.0733 31.4198C27.703 26.8876 35.5555 27.2565 38.7702 27.5727C41.342 27.8256 43.2498 26.7295 43.8822 26.1497C44.093 26.1673 44.6095 26.1919 44.989 26.1497C45.3684 26.1076 46.3416 25.7808 46.7808 25.6227C47.6943 24.4457 50.3644 22.1655 53.7373 22.4607C56.8969 22.7371 57.8058 24.5459 57.8937 25.5823C57.9138 25.6681 57.9131 25.7352 57.9007 25.7808C57.9018 25.7186 57.8996 25.6522 57.8937 25.5823C57.8286 25.305 57.5462 24.832 56.7413 24.2525C55.6872 23.4936 54.2292 23.9363 53.6319 24.2525H55.3183C55.7224 24.3579 56.6675 24.8428 57.2156 25.9389C57.7637 27.0351 57.5845 28.2929 57.4264 28.7848C57.3737 28.574 57.2577 28.0364 57.2156 27.5727C57.1629 26.993 56.4251 25.3592 53.9481 25.2011C51.9666 25.0746 50.4874 27.924 49.9955 29.3645C49.6793 30.5239 48.6359 33.0114 46.9916 33.686C44.9363 34.5292 42.4066 33.2117 40.3513 33.0009C38.707 32.8322 37.523 34.1603 37.1365 34.8454C37.2419 34.3887 37.6635 33.2854 38.5067 32.5266C39.5608 31.5779 40.931 31.7887 44.3038 32.3685C47.0021 32.8322 48.5902 29.8915 49.0469 28.3632C48.7483 28.697 47.9507 29.4488 47.1497 29.7861C46.3486 30.1234 44.7781 29.8564 44.093 29.6807L41.458 31.209C41.0891 31.4725 39.5081 31.9258 36.1352 31.6306C32.7623 31.3355 30.7246 34.6346 30.1273 36.321C31.8664 29.4699 36.4514 30.6293 39.0337 30.5766C41.0996 30.5345 42.7052 29.1888 43.2498 28.5213C41.8796 29.3118 40.1932 29.3118 39.5608 29.3645C38.9283 29.4172 35.1866 28.8375 34.6069 28.7848C34.0272 28.7321 31.761 28.6794 30.4435 29.101Z" fill="#EA1E62"/>
<path d="M38.5067 36.321C41.1629 36.321 43.4782 35.5481 44.3038 35.1616C41.458 37.3223 37.5581 37.1642 35.8717 37.4804C34.1853 37.7967 31.9191 39.5358 31.0232 41.2222C30.1273 42.9086 30.1273 44.9113 30.4435 47.0193C30.6965 48.7058 29.8111 49.7949 29.3368 50.1287C29.4246 49.953 29.6741 49.4752 29.9692 48.9693C30.2643 48.4633 29.8462 47.2828 29.6003 46.7558C28.7922 45.1748 27.7663 41.4541 30.1273 39.2196C33.0785 36.4264 35.1866 36.321 38.5067 36.321Z" fill="#EA1E62"/>
<path d="M42.7755 44.2262C43.8295 41.2328 46.3416 40.3087 47.4659 40.2209L47.7821 41.96C47.22 42.1357 45.927 42.6768 45.2525 43.4357C44.5779 44.1945 43.6363 46.5977 43.2498 47.7044C42.6525 48.8639 40.8045 51.657 38.1905 53.5542C34.9231 55.9258 33.3947 55.8731 33.869 55.7677C34.3434 55.6623 37.5581 52.9218 38.1905 52.2894C38.8229 51.657 41.458 47.9679 42.7755 44.2262Z" fill="#EA1E62"/>
<path d="M50.259 44.7532C50.0061 44.6689 49.6618 44.0505 49.5212 43.7519C49.7847 45.0694 50.259 49.4436 47.2024 53.0799C44.7571 55.989 39.8594 56.365 37.7162 56.1893C37.0662 56.1542 36.5357 56.242 39.6135 56.8744C42.6912 57.5068 45.6389 56.5406 46.7281 55.9785C47.747 55.3812 49.985 53.6807 50.7861 51.657C51.7874 49.1274 51.4185 46.7558 51.4185 46.018C51.4185 45.2802 50.5753 44.8586 50.259 44.7532Z" fill="#EA1E62"/>
<path d="M53.7373 51.2881C53.8638 50.2341 54.5278 48.6004 54.844 47.9152C53.5792 47.599 53.2466 54.134 51.682 55.9785C50.4302 57.4541 48.9118 57.8933 48.3091 57.9284C46.6227 58.069 43.0074 58.6979 42.0377 60.0892C41.068 61.4805 41.9499 62.8823 42.512 63.4093C42.4066 62.8472 42.4593 61.5015 43.5133 60.6162C44.8308 59.5095 47.7821 59.3513 48.9415 59.2459C50.1009 59.1405 51.4185 58.0338 52.4198 56.1893C53.4211 54.3448 53.5792 52.6056 53.7373 51.2881Z" fill="#EA1E62"/>
<path d="M59.9033 53.0799C59.7768 51.9838 59.956 50.4449 60.0614 49.8125L60.0542 49.7909C59.9031 49.3368 59.892 49.3033 59.1655 50.4449C58.5753 51.3724 58.7088 54.134 58.8493 55.3988C58.9196 55.8028 58.9652 56.8744 58.5858 57.9284C58.1115 59.2459 55.6345 59.2459 53.7373 58.877C52.2195 58.5819 51.032 58.7541 50.628 58.877C50.0658 59.0527 48.9731 59.8362 49.0996 61.5648C49.2261 63.2934 51.155 64.7093 52.1036 65.2012C51.963 65.0782 51.5028 64.6214 50.7861 63.7782C50.0693 62.935 50.4874 61.9513 50.7861 61.5648C51.0847 61.1959 52.1879 60.5318 54.2116 60.827C56.7413 61.1959 58.1115 60.6162 59.429 59.6676C60.7465 58.7189 60.0614 54.4502 59.9033 53.0799Z" fill="#EA1E62"/>
<path d="M64.9099 45.8072C64.9521 44.711 64.014 43.8748 63.5397 43.5938C63.6627 43.1019 64.014 42.213 64.4356 42.5924C64.9626 43.0667 65.2788 43.4357 65.4369 45.0167C65.5634 46.2815 65.0329 47.722 64.7518 48.2841C64.7869 47.9152 64.8678 46.9034 64.9099 45.8072Z" fill="#EA1E62"/>
<path d="M59.6398 30.5766L59.7452 29.8915L60.7465 28.7848C60.8695 28.978 60.9573 29.0905 60.9573 29.6807C60.9573 30.271 60.4655 31.0861 60.2195 31.4198L59.6398 30.5766Z" fill="#EA1E62"/>
<path d="M63.0127 31.209C62.8019 31.715 62.2222 32.0874 61.9587 32.2104V33.5279C62.2573 33.3522 62.9494 32.8533 63.3289 32.2631C63.7083 31.6728 63.4167 30.6469 63.2235 30.2077C63.2411 30.3307 63.2235 30.7031 63.0127 31.209Z" fill="#EA1E62"/>
<path d="M63.6451 33.0536C63.3921 33.4752 62.3803 33.7211 61.906 33.7914L61.7479 34.3184C61.906 34.3711 62.4435 34.3395 63.3289 33.7914C64.2143 33.2433 64.2951 32.2982 64.2248 31.8941C64.137 32.1049 63.8981 32.632 63.6451 33.0536Z" fill="#EA1E62"/>
<path d="M44.989 24.2521C46.5067 24.3364 49.0996 23.3386 50.2064 22.8291C46.5384 21.9859 44.2863 23.321 43.6187 24.094C43.4431 24.1115 43.4712 24.1677 44.989 24.2521Z" fill="#FFC108"/>
<path d="M39.7716 27.256C41.3315 27.2982 42.8106 26.5709 43.3552 26.202C42.5963 26.202 41.7391 25.9209 41.4053 25.7804C41.2472 25.9209 40.2459 26.1493 37.5054 25.9385C34.765 25.7277 34.5015 24.0237 34.7123 23.198L34.4488 24.094C34.3785 24.6034 34.4698 25.7698 35.3974 26.3601C36.5568 27.0979 37.8216 27.2033 39.7716 27.256Z" fill="#FFC108"/>
<path d="M39.7716 35.0558C40.9099 35.0558 42.4593 34.3179 43.0917 33.949C43.6398 34.1598 45.0768 34.2125 45.7268 34.2125C45.3754 34.4409 44.2195 35.0347 42.4066 35.5828C40.1405 36.2679 38.6121 36.1098 36.346 36.0044C34.5331 35.92 32.6042 36.9881 31.8664 37.5327C31.9543 37.3746 32.2353 36.9108 32.6569 36.3206C33.1839 35.5828 33.8691 35.2666 34.6069 35.0558C35.3447 34.8449 38.3486 35.0558 39.7716 35.0558Z" fill="#FFC108"/>
<path d="M32.4988 42.3812C33.0048 39.6829 34.3258 38.411 34.9231 38.1124C30.5489 40.2204 30.2854 43.4879 30.707 46.2284C31.0443 48.4207 30.4259 50.1282 30.0746 50.7079C30.2854 50.7431 30.8967 50.3812 31.6556 48.6526C32.6042 46.4919 31.8664 45.754 32.4988 42.3812Z" fill="#FFC108"/>
<path d="M43.0917 40.9056C44.483 40.9899 45.6038 40.0623 45.9903 39.588C45.3579 41.0637 43.6187 41.538 43.2498 41.5907C42.8809 41.6434 42.1431 41.6434 40.1405 43.9622C38.5384 45.8173 38.5243 48.7756 38.7175 50.0228C38.4365 49.5134 37.8743 48.3891 37.8743 47.9675C37.8743 47.4405 37.5581 45.7013 38.5067 43.9622C39.4554 42.2231 41.3526 40.8002 43.0917 40.9056Z" fill="#FFC108"/>
<path d="M52.2617 47.9675C52.8098 46.7448 54.036 46.6851 54.5805 46.8081C52.1036 48.231 53.1576 49.1796 51.9982 52.3944C50.8388 55.6091 49.3104 56.6631 47.7821 57.5591C46.2538 58.455 41.0891 58.3496 38.9283 58.6131C36.7676 58.8766 37.1892 61.3535 34.7123 62.513C32.7307 63.4405 31.2164 62.9697 30.707 62.6184H32.2353C33.0258 62.6184 34.1326 61.5643 34.6596 60.8265C35.1866 60.0887 36.4514 58.2969 37.1892 57.5591C37.927 56.8213 41.0891 57.2429 43.2498 57.401C45.4106 57.5591 46.2538 57.1902 46.8862 56.9794C47.5186 56.7686 47.1497 56.505 46.5173 56.6104C45.8849 56.7159 46.2538 56.3996 46.6754 56.2942C47.097 56.1888 47.7821 55.5564 48.6253 54.924C49.2999 54.4181 49.2929 54.7132 49.205 54.924C49.5037 54.5551 50.0377 53.9754 49.7847 54.6078C49.4685 55.3983 50.101 54.6605 50.2591 54.3443C50.4172 54.0281 51.155 52.7633 51.2604 51.9201C51.3658 51.0768 51.5766 49.4958 52.2617 47.9675Z" fill="#FFC108"/>
<path d="M61.6425 53.7119C62.0641 52.9952 62.4154 51.9728 62.5384 51.5512C62.3803 55.8199 61.2209 56.6104 60.7465 57.401C60.3671 58.0334 60.3425 57.7699 60.3776 57.5591V55.5564C60.3776 54.9767 61.1154 54.6078 61.6425 53.7119Z" fill="#FFC108"/>
<path d="M63.6978 35.5828C63.6135 35.4141 62.7492 34.8098 62.3276 34.5287C62.8546 34.2652 64.5937 34.6868 63.9086 34.7922C63.2235 34.8976 63.487 35.0558 63.9086 35.372C64.3302 35.6882 64.4883 36.4787 64.5937 36.8476C64.6991 37.2165 64.3302 38.2705 64.2248 38.1124C64.1194 37.9543 63.8559 37.1111 63.9086 36.8476C63.9613 36.5841 63.8032 35.7936 63.6978 35.5828Z" fill="#FFC108"/>
<path d="M34.3433 29.4684C34.5119 29.7214 34.0622 29.8549 33.8163 29.89C31.9717 30.1008 31.0758 30.944 30.2326 31.1548C29.3894 31.3657 29.9164 30.417 30.2326 29.89C30.5488 29.363 31.4447 28.9414 31.9717 28.9414C32.4987 28.9414 34.1325 29.1522 34.3433 29.4684Z" fill="#9B28B0"/>
<path d="M37.4526 33.2102C37.3262 33.4631 37.0837 33.3859 36.9783 33.3156C33.0785 32.8413 32.5514 36.2668 31.1812 37.9006C30.085 39.2076 28.6164 38.8668 28.0192 38.533C28.1421 38.5681 28.5356 38.6173 29.1259 38.533C29.8637 38.4276 30.3907 37.5317 31.0758 36.6884C31.7609 35.8452 31.9717 34.5804 33.1839 33.4737C34.396 32.367 36.2932 32.7359 36.6621 32.7359C37.031 32.7359 37.6107 32.894 37.4526 33.2102Z" fill="#9B28B0"/>
<path d="M40.1404 40.114C40.8571 40.1562 42.3011 39.7802 42.9335 39.587C41.1944 40.641 43.5659 39.587 43.8295 39.6924C44.093 39.7978 43.4605 40.114 42.9335 40.3775C42.4065 40.641 41.8268 40.5883 40.3512 41.4842C38.8756 42.3801 38.1904 43.8031 37.7161 44.3301C37.2418 44.8571 37.9269 43.3288 37.7688 43.2761C37.6107 43.2234 36.6621 44.4355 36.5567 44.172C36.4513 43.9085 37.9269 42.0639 37.7161 42.0639C37.5053 42.0639 36.0824 43.7504 35.977 43.5923C35.8716 43.4342 36.9783 42.3274 36.9783 42.0639C36.9783 41.8004 36.4513 42.2747 35.5554 43.1707C34.8387 43.8874 34.8352 43.4693 34.923 43.1707C34.9933 42.872 35.3551 42.1166 36.2405 41.4842C37.3472 40.6937 39.2445 40.0613 40.1404 40.114Z" fill="#9B28B0"/>
<path d="M45.7267 43.8031C46.0218 43.3815 46.5172 43.4869 46.728 43.5923C47.5712 43.5479 46.9915 44.8044 47.255 44.4882C47.5185 44.172 47.7293 43.5923 47.8347 43.8031C47.9401 44.0139 47.7293 44.5936 47.255 46.1746C46.7807 47.7556 45.5159 49.4948 44.62 50.3907C43.724 51.2866 43.9876 50.7596 44.0403 50.3907C44.093 50.0218 42.9335 51.392 42.6173 51.6028C42.3011 51.8136 41.9849 51.7082 42.2484 51.2339C42.5119 50.7596 41.5633 51.4974 41.5633 51.2339C41.5633 50.9704 42.0903 50.2326 42.6173 49.7056C43.1443 49.1786 43.4605 47.9665 43.6713 47.7556C43.8822 47.5448 44.4619 46.1219 44.62 45.6476C44.7781 45.1733 45.3578 44.3301 45.7267 43.8031Z" fill="#9B28B0"/>
<path d="M34.2906 52.3406C34.7543 51.5396 36.5216 50.5664 37.3472 50.1799C37.3472 50.2853 36.2405 52.3406 35.977 52.4987C35.7135 52.6568 35.0811 53.2892 34.923 53.7636C34.7965 54.143 34.0622 54.5892 33.7109 54.7649C33.7109 54.2906 33.8268 53.1417 34.2906 52.3406Z" fill="#9B28B0"/>
<path d="M34.396 56.1351L33.9217 56.2932C34.396 58.8228 34.6595 57.9269 34.396 57.3999C34.1852 56.9783 34.3081 56.381 34.396 56.1351Z" fill="#9B28B0"/>
<path d="M52.8413 49.7056C52.8835 49.3261 53.2454 49.5475 53.421 49.7056C52.7914 54.3229 51.4304 55.9103 51.1064 56.2883L51.1022 56.2932C50.786 56.6621 50.259 56.9256 50.259 56.7148C50.259 56.504 50.3644 56.4513 49.732 56.7148C49.1163 56.9713 49.5995 56.5286 50.209 55.9701L50.259 55.9243C50.8914 55.3446 51.4711 54.1852 52.0508 52.9203C52.6232 51.6715 52.7845 50.2172 52.8393 49.7241L52.8413 49.7056Z" fill="#9B28B0"/>
<path d="M54.4223 49.8637C54.5067 49.4421 54.8088 49.688 54.9494 49.8637C54.7386 50.0218 54.4223 51.2339 54.4223 51.7609C54.4223 52.2879 54.1588 53.7636 54.0007 54.3433C53.8426 54.923 53.421 55.45 53.2629 55.5554C53.1048 55.6608 53.1575 55.1338 53.421 54.3433C53.6845 53.5528 53.8953 52.1825 54.0007 51.392C54.1061 50.6015 54.3169 50.3907 54.4223 49.8637Z" fill="#9B28B0"/>
<path d="M58.2695 54.3433C58.649 53.3736 58.4276 51.4447 58.2695 50.6015C58.143 55.0284 55.5818 57.6107 54.3169 58.3485C54.8791 58.085 56.1088 57.4632 56.5304 57.0837C57.0574 56.6094 57.7952 55.5554 58.2695 54.3433Z" fill="#9B28B0"/>
<path d="M45.3578 59.9823C45.948 59.7715 48.2739 59.5431 49.3631 59.4553C49.0679 59.7504 48.8887 60.2809 48.836 60.5093C48.6779 60.4917 48.035 60.4671 46.728 60.5093C45.421 60.5514 43.6538 61.3349 42.9335 61.7214L43.6713 60.8782C43.9876 60.6674 44.7675 60.1931 45.3578 59.9823Z" fill="#9B28B0"/>
<path d="M37.2943 29.575C39.5288 29.6172 41.2118 29.4169 41.7739 29.3115C40.1402 30.7344 38.5064 30.2601 36.0822 30.3128C33.658 30.3655 32.0242 31.7885 31.0756 33.106C30.127 34.4235 29.9162 36.637 29.8108 37.164C29.7054 37.691 29.073 37.9914 28.7568 38.0968C28.4406 38.2022 28.9149 37.691 28.9149 37.164C28.9149 36.6926 28.7568 35.8804 28.7568 35.4091C28.7568 34.355 29.1949 34.3081 29.3365 33.3168C29.4946 32.2101 29.8108 31.8111 30.4959 31.4196C31.6026 30.7872 34.5012 29.5223 37.2943 29.575Z" fill="#8BC44A"/>
<path d="M35.0282 31.8412C35.9136 31.7147 37.9619 31.8939 38.8754 31.9993C38.7067 31.9993 38.0673 32.5614 37.7686 32.8425C37.2943 32.702 36.0822 32.442 35.0282 32.5263C33.7107 32.6317 32.4458 33.3695 31.708 35.0559C31.1178 36.4051 30.3729 37.164 30.0743 37.3748C30.1446 37.1113 30.3273 36.4683 30.4959 36.0045C30.7067 35.4248 31.3918 34.3181 31.9715 33.633C32.5512 32.9479 33.9215 31.9993 35.0282 31.8412Z" fill="#8BC44A"/>
<path d="M34.712 33.7911C35.1757 33.5803 35.9592 33.5979 36.293 33.633C35.7871 33.886 36.2227 34.4762 36.5038 34.7397H34.8701C34.5012 34.7397 34.4485 34.5289 34.3958 34.3708C34.3536 34.2443 33.8161 34.5641 33.5526 34.7397C33.7458 34.5114 34.2482 34.0019 34.712 33.7911Z" fill="#8BC44A"/>
<path d="M39.9821 33.3168C39.7713 33.359 38.6997 33.756 38.1902 33.9492C37.6105 34.4762 38.1902 34.7397 38.8754 34.7397H40.4564C40.9307 34.7397 41.1415 34.3708 40.9307 34.0546C40.7199 33.7384 40.2456 33.2641 39.9821 33.3168Z" fill="#8BC44A"/>
<path d="M45.8319 37.691C46.6329 37.0164 46.5521 36.0397 46.4116 35.6356C42.7225 38.4288 40.9307 37.3748 37.7686 38.3234C34.6066 39.272 33.2363 41.3273 32.9728 43.1719C32.762 44.6475 33.6228 46.1407 34.0796 46.7028V45.2799C34.0796 44.9005 34.2904 44.1029 34.3958 43.7516C34.5539 43.2421 35.0914 42.0441 35.9768 41.3273C37.0835 40.4314 39.0862 39.6409 40.9307 39.6936C42.7752 39.7463 44.8306 38.5342 45.8319 37.691Z" fill="#8BC44A"/>
<path d="M37.7686 49.1271C37.7686 49.0006 37.6281 48.7582 37.5578 48.6528C33.3418 49.0217 31.708 51.3932 31.6026 54.1864C31.5183 56.4209 32.6918 58.8065 33.2891 59.72C33.1836 58.6308 32.9939 56.2101 33.0782 55.2404C33.1836 54.0283 33.1836 53.3432 34.0796 51.8148C34.7963 50.5922 36.697 50.0054 37.5578 49.8649C37.6281 49.6717 37.7686 49.2536 37.7686 49.1271Z" fill="#8BC44A"/>
<path d="M57.9531 56.8214C58.0796 56.6949 58.3923 55.9958 58.5328 55.662C58.849 57.5592 57.9531 58.1916 57.3207 58.4025C56.8255 58.5675 55.5157 58.6114 54.8838 58.6132C54.8656 58.6156 54.8524 58.6154 54.8437 58.6133C54.8568 58.6133 54.8701 58.6132 54.8838 58.6132C55.0139 58.596 55.4004 58.4459 56.214 57.9281C57.3734 57.1903 57.4788 56.189 57.4788 56.5579C57.4788 56.9268 57.795 56.9795 57.9531 56.8214Z" fill="#8BC44A"/>
<path d="M62.0111 48.5474C61.9268 48.4631 61.6949 48.8284 61.5895 49.0217C62.8121 49.9492 63.0475 52.4648 63.0124 53.6067C63.0827 52.9743 63.181 51.4565 63.0124 50.4446C62.8016 49.1798 62.1165 48.6528 62.0111 48.5474Z" fill="#8BC44A"/>
<path d="M63.2232 43.857C63.1705 43.9624 62.4854 44.8583 62.38 44.911C64.1507 46.218 64.488 47.8798 64.4353 48.5474C64.488 48.3717 64.6145 47.7358 64.6988 46.5974C64.8042 45.1745 63.9083 44.2786 63.6975 44.0151C63.4867 43.7516 63.2759 43.7516 63.2232 43.857Z" fill="#8BC44A"/>
<path d="M58.2693 31.0502C57.8899 31.0502 57.2329 30.6286 56.9518 30.4178C56.5302 30.1434 56.5653 29.5305 56.6356 29.2584H56.9518C60.0436 26.5531 66.3326 21.0686 66.7542 20.7735C67.1758 20.4784 67.1406 20.7911 67.0704 20.9843L58.7436 30.6286C58.7436 30.7691 58.6488 31.0502 58.2693 31.0502Z" fill="white"/>
<path d="M53.6846 33.3696C53.6846 33.8062 53.3307 34.1601 52.8941 34.1601C52.4575 34.1601 52.1036 33.8062 52.1036 33.3696C52.1036 32.933 52.4575 32.5791 52.8941 32.5791C53.3307 32.5791 53.6846 32.933 53.6846 33.3696Z" fill="#03A9F4"/>
<path d="M61.0627 33.6331C61.0627 33.866 60.874 34.0547 60.6411 34.0547C60.4083 34.0547 60.2195 33.866 60.2195 33.6331C60.2195 33.4003 60.4083 33.2115 60.6411 33.2115C60.874 33.2115 61.0627 33.4003 61.0627 33.6331Z" fill="#03A9F4"/>
<path d="M50.5755 35.7935C50.2382 35.5406 49.5215 35.6881 49.2053 35.7935C50.5755 36.0043 50.5755 36.2678 50.1012 36.6894C49.6269 37.111 50.0485 37.2164 50.312 37.2164C50.5755 37.2164 50.839 36.8475 51.2606 37.2164C51.6822 37.5854 51.6822 37.6381 51.9984 37.2164C52.2514 36.8792 52.6309 36.4435 52.789 36.2678C53.0349 36.3381 53.5689 36.4365 53.7376 36.2678C53.9484 36.057 54.37 36.5313 54.1592 37.2164C53.9484 37.9016 53.5795 38.007 53.0525 38.7448C52.5255 39.4826 52.4728 40.2731 52.3674 40.6947C52.262 41.1163 51.6822 41.7487 51.6822 42.5392C51.6822 43.3298 52.1566 43.7514 53.316 44.5419C54.4754 45.3324 55.5294 44.9108 56.2145 44.9108C56.8996 44.9108 56.6888 45.1216 57.1631 45.4905C57.6375 45.8594 58.3226 45.2797 58.1118 45.8067C57.901 46.3337 58.3226 46.0175 59.0077 46.0175C59.6928 46.0175 59.4293 46.2283 59.8509 46.7026C60.2725 47.1769 60.6414 46.3337 60.9576 46.0175C61.2738 45.7013 60.6414 45.8067 60.2198 45.8067C59.7982 45.8067 59.8509 45.2797 59.4293 44.9108C59.0077 44.5419 58.7969 44.9635 58.3226 44.9108C57.8483 44.8581 57.2158 44.5946 57.9537 44.2784C58.6915 43.9622 59.9563 44.0676 60.9576 44.2784C61.9589 44.4892 62.3805 44.5419 61.9589 43.9622C61.7994 43.7428 61.0103 43.3298 60.6414 43.2771C60.4081 43.2437 59.4756 43.1922 59.0604 43.119C58.1645 42.9608 57.8483 43.0663 57.4266 43.1717C57.0993 43.2535 57.1631 43.1717 56.2145 43.5406C55.2659 43.9095 54.1592 43.6987 53.7376 44.0676C53.316 44.4365 53.1052 44.1203 52.789 43.1717C52.4728 42.223 52.6836 41.8541 52.789 40.6947C52.8944 39.5353 54.1592 38.4813 54.1592 38.2705C54.1592 38.0597 54.4227 37.1637 54.6335 36.8475C54.8443 36.5313 54.7389 36.2678 54.6335 35.7935C54.5281 35.3192 53.4741 34.9503 53.316 35.2665C53.1579 35.5827 52.789 36.0043 52.1566 36.2678C51.5241 36.5313 50.9971 36.1097 50.5755 35.7935Z" fill="white"/>
<path d="M62.5386 36.1097C62.4694 36.1243 62.3809 36.1374 62.2799 36.1451C61.7519 36.3098 61.9336 36.9866 61.7481 36.8475C61.5373 36.6894 61.1684 37.4799 61.2211 37.9016C61.2738 38.3232 61.7481 37.7435 61.7481 37.9016C61.7481 38.0597 61.5373 39.0083 61.4846 38.534C61.4319 38.0597 60.6414 37.9016 59.4293 37.4799C58.2172 37.0583 58.1118 36.1097 58.1118 35.7935C58.1118 35.4773 58.5861 35.2665 59.0077 35.7935C59.4293 36.3205 59.4293 35.7935 59.8509 35.5827C60.2725 35.3719 60.3779 35.2665 60.9576 35.7935C61.3252 36.1277 61.8937 36.1749 62.2799 36.1451C62.352 36.1227 62.4373 36.1097 62.5386 36.1097Z" fill="white"/>
<path d="M63.0656 36.2678C63.1921 36.2678 63.3994 36.1624 63.4873 36.1097C63.8245 36.1097 63.6278 36.4962 63.4873 36.6894C63.3467 36.7948 63.0656 37.1005 63.0656 37.4799C63.0656 37.8594 62.4684 38.0245 62.1697 38.0597C62.1697 37.8664 62.2435 37.4272 62.5386 37.2164C62.9075 36.9529 62.9075 36.2678 63.0656 36.2678Z" fill="white"/>
<path d="M59.9489 48.5668C60.2852 48.3914 60.7503 47.5916 60.9576 47.1769C60.9576 47.9147 61.4846 46.7026 61.4846 46.8607C61.4846 47.0188 61.2211 47.6512 60.9576 48.0728C60.7934 48.3356 60.2404 48.496 59.9489 48.5668C59.9148 48.5846 59.882 48.596 59.8509 48.5999C59.692 48.6197 59.7726 48.6096 59.9489 48.5668Z" fill="white"/>
<path d="M47.6243 34.1071C47.9194 33.8541 48.3445 33.6503 48.5202 33.5801C48.4675 33.6503 48.3199 33.8857 48.1513 34.2652C47.9405 34.7395 48.3621 34.3706 48.1513 35.2665C47.9405 36.1624 48.1513 35.5827 48.3621 35.7935C48.5729 36.0043 48.0986 36.8475 48.1513 36.6894C48.204 36.5313 47.8878 36.2678 47.6243 36.2678C47.3608 36.2678 47.4135 35.7935 47.6243 35.2665C47.8351 34.7395 47.7824 34.5814 47.4135 34.7922C47.0446 35.003 47.2554 34.4233 47.6243 34.1071Z" fill="white"/>
<path d="M47.9405 39.7461C47.9405 39.3245 48.2215 38.7623 48.3621 38.534C48.4148 38.6921 48.5202 39.2085 48.5202 40.0096C48.5202 41.0109 49.2053 40.8528 49.2053 41.169V42.1703C49.0999 42.0298 48.8153 41.696 48.5202 41.4852C48.1513 41.2217 47.9405 40.2731 47.9405 39.7461Z" fill="white"/>
<path d="M49.7323 40.2731C49.6058 39.9358 49.4337 39.1137 49.3634 38.7448C49.5215 38.2705 49.7323 38.534 49.7323 39.2191C49.7323 39.9042 49.8904 40.6947 49.7323 40.2731Z" fill="white"/>
<path d="M56.5307 46.2283C56.2778 46.397 55.7226 46.4742 55.4767 46.4918C56.0564 46.9661 56.5307 46.4918 57.005 46.2283C57.4793 45.9648 56.8469 46.0175 56.5307 46.2283Z" fill="white"/>
<path d="M58.1118 46.8607C57.9431 47.1558 57.4091 47.1945 57.1631 47.1769C57.7522 47.862 58.3226 47.1769 58.5861 46.7026C58.8496 46.2283 58.3226 46.4918 58.1118 46.8607Z" fill="white"/>
<path d="M54.1592 40.2731C54.1592 39.9358 54.7213 39.4299 55.0024 39.2191C55.3713 38.9028 55.4767 39.2191 55.0024 39.7461C54.5281 40.2731 55.0024 40.2731 54.6335 40.6947C54.2646 41.1163 54.6335 41.7487 54.4227 41.696C54.2119 41.6433 54.1592 41.169 54.4227 40.6947C54.6862 40.2204 54.1592 40.6947 54.1592 40.2731Z" fill="white"/>
<path d="M55.7929 35.5827C56.0459 35.5827 56.601 35.0557 56.8469 34.7922C57.6375 34.7922 55.7929 36.2678 56.2145 36.2678C56.6361 36.2678 56.2145 37.2164 56.0564 37.2164C55.8983 37.2164 56.2145 36.8475 55.7929 36.8475C55.3713 36.8475 55.4767 36.6894 55.4767 36.4786C55.4767 36.2678 55.951 36.1097 55.4767 36.2678C55.0024 36.4259 55.4767 35.5827 55.7929 35.5827Z" fill="white"/>
<path d="M59.0077 35.0557C58.839 34.8871 58.6563 34.8098 58.5861 34.7922C59.0604 34.5287 59.6928 34.7922 59.6401 34.7922C59.5874 34.7922 59.2185 35.2665 59.0077 35.0557Z" fill="white"/>
<path d="M63.4872 41.1691C64.1899 41.3974 66.6387 41.9649 67.0182 42.26M63.4872 40.0097C64.1372 40.0097 67.5663 40.4207 68.0722 40.5894M63.2764 38.9029C63.821 38.657 68.1671 38.123 69.6005 37.9543M63.171 37.9543L63.8561 37.5854M64.8574 37.2165L68.0722 36.426M58.1644 37.9543C57.7604 37.5503 56.8891 36.679 56.6361 36.426M55.5294 35.5301L54.897 35.2139M57.1104 38.3759C56.8996 38.1651 56.4253 37.7119 56.2145 37.5854M57.1104 39.4826C56.6712 39.2543 55.5399 38.7132 54.5281 38.3759M53.0524 38.1651C52.6835 38.1651 51.8403 38.1651 51.4187 38.1651M56.2145 40.3786C55.8983 40.2205 55.2132 40.2205 55.1078 40.2205M53.8956 40.3786L53.2105 40.5894" stroke="white" stroke-width="0.210804" stroke-linejoin="round"/>
<path d="M61.6421 40.1526C61.8108 40.4055 61.9232 40.7147 61.9583 40.8377C61.7651 41.0661 61.347 41.5123 61.2205 41.4701C61.094 41.4279 61.1678 40.6796 61.2205 40.3107C61.0975 40.6445 60.8411 41.3015 60.7989 41.2593C60.7567 41.2171 60.8165 40.6093 60.8516 40.3107C60.7462 40.4512 60.5143 40.7534 60.43 40.8377C60.3246 40.9431 60.2719 40.5742 60.2719 40.4161C60.2719 40.258 60.3773 40.0999 60.8516 39.8364C61.3259 39.5729 61.4313 39.8364 61.6421 40.1526Z" fill="white"/>
<path d="M61.8002 42.893C61.8002 43.1038 61.6246 42.9809 61.5367 42.893C59.4814 42.2606 59.1652 42.366 58.9017 42.3133C58.6909 42.2712 58.8138 42.1201 58.9017 42.0498C59.0773 41.839 59.4603 41.4174 59.5868 41.4174C59.7133 41.4174 59.6395 41.839 59.5868 42.0498C59.6922 41.8566 59.9346 41.4701 60.0611 41.4701C60.1876 41.4701 60.2543 41.9268 60.2719 42.1552C60.2895 41.9971 60.3562 41.6598 60.4827 41.5755C60.6092 41.4912 60.6759 41.9268 60.6935 42.1552C60.7462 41.9971 60.8832 41.702 61.0097 41.7863C61.1362 41.8706 61.2029 42.2782 61.2205 42.4714C61.3259 42.2606 61.5894 41.7652 61.8002 41.4701C62.011 41.175 61.9935 41.3471 61.9583 41.4701C61.9056 41.8566 61.8002 42.6822 61.8002 42.893Z" fill="white"/>
<path d="M61.2207 39.4123C61.3894 39.3702 61.5369 39.6056 61.5896 39.7286C61.7222 39.9394 61.9058 40.3083 62.0639 40.3083C62.222 40.3083 61.9585 39.4123 61.695 39.1488C61.4315 38.8853 61.2207 39.1488 60.9572 39.1488C60.6937 39.1488 60.0086 39.5177 59.7451 39.834C59.4816 40.1502 58.9546 41.2042 58.0587 41.8893C57.1628 42.5744 57.5844 42.4163 57.9533 42.3636C58.3222 42.3109 58.6384 41.9947 58.7965 41.7839C58.9546 41.5731 59.587 40.8353 59.7451 40.4664C59.9032 40.0975 61.0099 39.465 61.2207 39.4123Z" fill="white"/>
<path d="M59.3762 32.3135C59.2076 32.0605 58.6735 31.927 58.4276 31.8919C58.7649 31.2173 59.2005 31.4703 59.3762 31.6811C59.6748 31.6811 60.2721 31.7654 60.2721 32.1027C60.2721 32.5243 61.4842 32.3135 61.695 32.3135C61.9058 32.3135 61.6423 33.8418 61.4842 34.0526C61.3261 34.2634 61.2207 33.2094 61.0099 32.9986C60.7991 32.7878 60.641 32.9986 60.2721 32.9986C59.9032 32.9986 59.587 32.6297 59.3762 32.3135Z" fill="white"/>
<path d="M52.894 28.9933C53.2734 29.1198 54.1412 29.6433 54.5277 29.8892C55.1074 30.1352 56.3512 30.9222 56.6884 32.1027C57.1101 33.5783 56.4249 34.0526 55.6871 34.2107C54.9493 34.3688 54.1588 33.3675 53.8953 32.9986C53.6318 32.6297 53.2629 32.3135 52.894 32.3135C52.5251 32.3135 52.2616 31.6811 51.4711 31.4176C50.6805 31.1541 50.8913 31.6811 51.6819 32.1027C52.4724 32.5243 52.3143 32.4716 51.9981 32.4716C51.6819 32.4716 51.2075 32.1027 50.8913 31.8919C50.5751 31.6811 50.2589 32.1027 50.7332 32.3135C51.2075 32.5243 51.5765 32.3135 51.2075 32.9986C50.8386 33.6837 50.7332 33.1567 49.9954 33.3675C49.4052 33.5361 48.836 33.0162 48.6252 32.7351C48.8184 32.3838 49.2682 31.6284 49.5211 31.4176C49.8373 31.1541 50.1008 29.8892 50.2589 29.8892C50.417 29.8892 50.7332 29.8892 50.7332 29.3095C50.7332 28.7298 51.3657 29.2041 51.9981 29.3095C52.6305 29.4149 52.4197 28.8352 52.894 28.9933Z" fill="white"/>
<path d="M54.5277 37.7417C54.5277 37.5309 54.7736 37.162 54.8966 37.0039C55.0899 37.0566 55.4763 37.2041 55.4763 37.3728C55.4763 37.5836 54.5277 38.0052 54.5277 37.7417Z" fill="white"/>
<path d="M46.6226 34.5269C46.3942 34.6499 45.948 34.9275 45.9902 35.0539C46.0429 35.212 46.6226 35.212 46.6226 34.5269Z" fill="white"/>
<path d="M46.6226 38.3214C46.6226 37.8998 46.728 37.2322 46.7807 36.9512C46.9388 39.4808 46.8861 37.8471 47.1496 38.9538C47.4131 40.0605 47.7293 38.4268 47.6766 39.0592C47.6239 39.6916 47.255 40.0605 47.1496 39.797C47.0442 39.5335 46.7807 39.4281 46.6226 39.5335C46.4645 39.6389 46.6226 38.8484 46.6226 38.3214Z" fill="white"/>
<path d="M48.5725 42.9591C48.4882 42.7483 48.1509 42.4145 47.9928 42.274C48.1509 41.9051 48.5725 42.274 48.836 42.9591C49.0995 43.6442 49.363 43.2753 49.4157 43.4334C49.4684 43.5915 49.2576 44.0131 49.1522 43.9077C49.0468 43.8023 48.6779 43.2226 48.5725 42.9591Z" fill="white"/>
<path d="M52.2089 46.0684C51.9559 45.8998 51.3657 45.2604 51.1021 44.9617C51.3657 44.9617 52.7359 45.8576 52.894 46.2265C53.0521 46.5954 53.2629 46.2792 53.8426 46.4373C54.4223 46.5954 53.3683 46.6481 53.1048 46.6481C52.8413 46.6481 52.5251 46.2792 52.2089 46.0684Z" fill="white"/>
<path d="M54.3169 47.5441L54.8439 47.1225C54.475 47.4914 54.8439 47.5441 55.4236 47.5441C56.0033 47.5441 56.4249 47.2806 56.1614 47.5441C55.8979 47.8076 55.4236 47.8076 56.0033 47.8076C56.583 47.8076 57.0047 47.8076 56.4249 48.0184C55.8452 48.2292 56.583 48.3346 56.4249 48.44C56.2668 48.5454 55.2128 48.6508 55.6344 48.44C56.056 48.2292 55.7398 48.1765 55.4236 48.0184C55.1788 47.896 55.4394 47.8052 55.4718 47.7948C55.4657 47.7966 55.4508 47.8008 55.4236 47.8076C55.255 47.8497 54.6155 47.6495 54.3169 47.5441Z" fill="white"/>
<path d="M57.2155 49.3886C57.1733 49.0935 56.9871 48.9494 56.8993 48.9143C57.363 48.9143 57.479 49.4062 57.479 49.6521C57.6546 49.3359 58.0587 48.7878 58.2695 49.1251C58.4803 49.4624 58.8843 49.4413 59.06 49.3886C59.5343 49.1251 60.4829 48.7246 60.4829 49.2305C60.4829 49.8629 60.9045 49.1251 61.1153 49.0197C61.3261 48.9143 61.1153 49.6521 60.7464 49.9156C60.3775 50.1791 60.3248 49.9156 60.3775 49.6521C60.4302 49.3886 59.9559 49.1778 59.6397 49.3886C59.3235 49.5994 59.0073 49.7575 58.5857 49.7575C58.1641 49.7575 58.3749 49.7048 58.2695 49.3886C58.1641 49.0724 57.8479 49.5994 57.6371 49.9156C57.4263 50.2318 57.2682 49.7575 57.2155 49.3886Z" fill="white"/>
<path d="M64.2247 41.6943C64.1896 41.8875 64.1404 42.274 64.2247 42.274C64.3301 42.274 64.4355 41.8524 64.2247 41.6943Z" fill="white"/>
<path d="M62.8018 39.0434C62.8018 39.1308 62.731 39.2015 62.6437 39.2015C62.5563 39.2015 62.4856 39.1308 62.4856 39.0434C62.4856 38.9561 62.5563 38.8853 62.6437 38.8853C62.731 38.8853 62.8018 38.9561 62.8018 39.0434Z" fill="white"/>
<path d="M63.118 39.834C63.118 39.9504 63.0236 40.0448 62.9072 40.0448C62.7907 40.0448 62.6964 39.9504 62.6964 39.834C62.6964 39.7175 62.7907 39.6232 62.9072 39.6232C63.0236 39.6232 63.118 39.7175 63.118 39.834Z" fill="white"/>
<path d="M63.2234 40.9934C63.2234 41.1098 63.129 41.2042 63.0126 41.2042C62.8961 41.2042 62.8018 41.1098 62.8018 40.9934C62.8018 40.877 62.8961 40.7826 63.0126 40.7826C63.129 40.7826 63.2234 40.877 63.2234 40.9934Z" fill="white"/>
<path d="M57.0047 40.5718C57.0047 40.6882 56.9103 40.7826 56.7939 40.7826C56.6774 40.7826 56.583 40.6882 56.583 40.5718C56.583 40.4553 56.6774 40.361 56.7939 40.361C56.9103 40.361 57.0047 40.4553 57.0047 40.5718Z" fill="white"/>
<path d="M57.9533 39.7286C57.9533 39.845 57.8589 39.9394 57.7425 39.9394C57.626 39.9394 57.5317 39.845 57.5317 39.7286C57.5317 39.6121 57.626 39.5177 57.7425 39.5177C57.8589 39.5177 57.9533 39.6121 57.9533 39.7286Z" fill="white"/>
<path d="M58.7965 38.7799C58.7965 38.8964 58.7021 38.9907 58.5857 38.9907C58.4693 38.9907 58.3749 38.8964 58.3749 38.7799C58.3749 38.6635 58.4693 38.5691 58.5857 38.5691C58.7021 38.5691 58.7965 38.6635 58.7965 38.7799Z" fill="white"/>
</g>
<g filter="url(#filter3_d)">
<path d="M27.4216 73.1536C27.4896 73.1536 27.5483 73.1783 27.5977 73.2277C27.6472 73.2772 27.6719 73.3359 27.6719 73.4038V74.3864C27.6719 74.4544 27.6472 74.5131 27.5977 74.5626C27.5483 74.612 27.4896 74.6367 27.4216 74.6367H23.1297C23.0617 74.6367 23.003 74.612 22.9536 74.5626C22.9041 74.5131 22.8794 74.4544 22.8794 74.3864V68.3982C22.8794 68.3302 22.9041 68.2715 22.9536 68.222C23.003 68.1726 23.0617 68.1479 23.1297 68.1479H24.344C24.412 68.1479 24.4707 68.1726 24.5202 68.222C24.5696 68.2715 24.5943 68.3302 24.5943 68.3982V73.1536H27.4216ZM30.1164 72.1153H32.7675C32.8355 72.1153 32.8942 72.0906 32.9436 72.0412C32.9931 71.9917 33.0178 71.933 33.0178 71.8651V70.8825C33.0178 70.8145 32.9931 70.7558 32.9436 70.7063C32.8942 70.6569 32.8355 70.6322 32.7675 70.6322H30.1164V69.631H32.9714C33.0394 69.631 33.0981 69.6063 33.1476 69.5569C33.197 69.5074 33.2217 69.4487 33.2217 69.3808V68.3982C33.2217 68.3302 33.197 68.2715 33.1476 68.222C33.0981 68.1726 33.0394 68.1479 32.9714 68.1479H28.6517C28.5838 68.1479 28.525 68.1726 28.4756 68.222C28.4262 68.2715 28.4014 68.3302 28.4014 68.3982V74.3864C28.4014 74.4544 28.4262 74.5131 28.4756 74.5626C28.525 74.612 28.5838 74.6367 28.6517 74.6367H33.0456C33.1136 74.6367 33.1723 74.612 33.2217 74.5626C33.2712 74.5131 33.2959 74.4544 33.2959 74.3864V73.4038C33.2959 73.3359 33.2712 73.2772 33.2217 73.2277C33.1723 73.1783 33.1136 73.1536 33.0456 73.1536H30.1164V72.1153ZM37.037 68.0552C37.6241 68.0552 38.1308 68.1664 38.5572 68.3889C38.9836 68.6114 39.3112 68.9142 39.5398 69.2973C39.7746 69.6743 39.9044 70.0976 39.9291 70.5673C39.9415 70.7403 39.9477 71.0184 39.9477 71.4016C39.9477 71.7785 39.9415 72.0505 39.9291 72.2173C39.9044 72.687 39.7746 73.1134 39.5398 73.4965C39.3112 73.8735 38.9836 74.1732 38.5572 74.3957C38.1308 74.6182 37.6241 74.7294 37.037 74.7294C36.4499 74.7294 35.9431 74.6182 35.5167 74.3957C35.0903 74.1732 34.7597 73.8735 34.5249 73.4965C34.2962 73.1134 34.1695 72.687 34.1448 72.2173C34.1324 71.8836 34.1263 71.6117 34.1263 71.4016C34.1263 71.1915 34.1324 70.9134 34.1448 70.5673C34.1695 70.0976 34.2962 69.6743 34.5249 69.2973C34.7597 68.9142 35.0903 68.6114 35.5167 68.3889C35.9431 68.1664 36.4499 68.0552 37.037 68.0552ZM38.2142 70.6136C38.1833 70.2861 38.069 70.0265 37.8713 69.835C37.6797 69.6372 37.4016 69.5383 37.037 69.5383C36.6724 69.5383 36.3912 69.6372 36.1934 69.835C36.0018 70.0265 35.8906 70.2861 35.8597 70.6136C35.8412 70.8176 35.8319 71.074 35.8319 71.383C35.8319 71.6858 35.8412 71.9485 35.8597 72.171C35.8906 72.4985 36.0018 72.7611 36.1934 72.9589C36.3912 73.1505 36.6724 73.2463 37.037 73.2463C37.4016 73.2463 37.6797 73.1505 37.8713 72.9589C38.069 72.7611 38.1833 72.4985 38.2142 72.171C38.2328 71.9485 38.242 71.6858 38.242 71.383C38.242 71.074 38.2328 70.8176 38.2142 70.6136ZM45.2294 74.6367C45.1367 74.6367 45.0563 74.6151 44.9883 74.5718C44.9204 74.5224 44.874 74.473 44.8493 74.4235L42.7265 71.2532V74.3864C42.7265 74.4544 42.7018 74.5131 42.6524 74.5626C42.6029 74.612 42.5442 74.6367 42.4762 74.6367H41.2619C41.1939 74.6367 41.1352 74.612 41.0858 74.5626C41.0363 74.5131 41.0116 74.4544 41.0116 74.3864V68.3982C41.0116 68.3302 41.0363 68.2715 41.0858 68.222C41.1352 68.1726 41.1939 68.1479 41.2619 68.1479H42.2259C42.3186 68.1479 42.399 68.1726 42.467 68.222C42.5349 68.2653 42.5813 68.3116 42.606 68.3611L44.7288 71.5313V68.3982C44.7288 68.3302 44.7535 68.2715 44.8029 68.222C44.8524 68.1726 44.9111 68.1479 44.9791 68.1479H46.1934C46.2614 68.1479 46.3201 68.1726 46.3695 68.222C46.419 68.2715 46.4437 68.3302 46.4437 68.3982V74.3864C46.4437 74.4544 46.419 74.5131 46.3695 74.5626C46.3201 74.612 46.2614 74.6367 46.1934 74.6367H45.2294ZM47.9879 74.6367C47.9199 74.6367 47.8612 74.612 47.8118 74.5626C47.7623 74.5131 47.7376 74.4544 47.7376 74.3864V68.3982C47.7376 68.3302 47.7623 68.2715 47.8118 68.222C47.8612 68.1726 47.9199 68.1479 47.9879 68.1479H49.2023C49.2702 68.1479 49.3289 68.1726 49.3784 68.222C49.4278 68.2715 49.4525 68.3302 49.4525 68.3982V74.3864C49.4525 74.4544 49.4278 74.5131 49.3784 74.5626C49.3289 74.612 49.2702 74.6367 49.2023 74.6367H47.9879ZM52.2445 72.171C52.2693 72.4923 52.3712 72.7519 52.5505 72.9496C52.7358 73.1474 53.0232 73.2463 53.4125 73.2463C53.7833 73.2463 54.0522 73.1752 54.219 73.033C54.3859 72.8909 54.5033 72.7179 54.5713 72.5139C54.6083 72.4089 54.6454 72.3378 54.6825 72.3007C54.7196 72.2637 54.7876 72.2451 54.8864 72.2451H56.1008C56.1564 72.2451 56.2027 72.2667 56.2398 72.31C56.2831 72.3471 56.3047 72.3934 56.3047 72.4491C56.2985 72.8631 56.1657 73.2463 55.9061 73.5985C55.6527 73.9446 55.3067 74.2196 54.8679 74.4235C54.4291 74.6274 53.944 74.7294 53.4125 74.7294C52.8378 74.7294 52.3372 74.6182 51.9108 74.3957C51.4844 74.167 51.1538 73.8642 50.919 73.4873C50.6841 73.1041 50.5544 72.6808 50.5296 72.2173C50.5173 71.9207 50.5111 71.6766 50.5111 71.485C50.5111 71.2563 50.5173 70.9504 50.5296 70.5673C50.5482 70.1038 50.6749 69.6836 50.9097 69.3066C51.1445 68.9234 51.4752 68.6206 51.9016 68.3982C52.3342 68.1695 52.8378 68.0552 53.4125 68.0552C53.944 68.0552 54.4291 68.1571 54.8679 68.3611C55.3067 68.565 55.6527 68.8431 55.9061 69.1954C56.1657 69.5414 56.2985 69.9215 56.3047 70.3355C56.3047 70.3912 56.2831 70.4406 56.2398 70.4839C56.2027 70.5209 56.1564 70.5395 56.1008 70.5395H54.8864C54.7876 70.5395 54.7196 70.5209 54.6825 70.4839C54.6454 70.4468 54.6083 70.3757 54.5713 70.2707C54.5033 70.0667 54.3859 69.8937 54.219 69.7515C54.0522 69.6094 53.7833 69.5383 53.4125 69.5383C53.0232 69.5383 52.7358 69.6372 52.5505 69.835C52.3712 70.0327 52.2693 70.2923 52.2445 70.6136C52.2322 70.8237 52.226 71.0833 52.226 71.3923C52.226 71.6889 52.2322 71.9485 52.2445 72.171ZM59.9398 68.0552C60.5269 68.0552 61.0337 68.1664 61.4601 68.3889C61.8865 68.6114 62.214 68.9142 62.4427 69.2973C62.6775 69.6743 62.8073 70.0976 62.832 70.5673C62.8444 70.7403 62.8506 71.0184 62.8506 71.4016C62.8506 71.7785 62.8444 72.0505 62.832 72.2173C62.8073 72.687 62.6775 73.1134 62.4427 73.4965C62.214 73.8735 61.8865 74.1732 61.4601 74.3957C61.0337 74.6182 60.5269 74.7294 59.9398 74.7294C59.3528 74.7294 58.846 74.6182 58.4196 74.3957C57.9932 74.1732 57.6626 73.8735 57.4277 73.4965C57.1991 73.1134 57.0724 72.687 57.0477 72.2173C57.0353 71.8836 57.0291 71.6117 57.0291 71.4016C57.0291 71.1915 57.0353 70.9134 57.0477 70.5673C57.0724 70.0976 57.1991 69.6743 57.4277 69.2973C57.6626 68.9142 57.9932 68.6114 58.4196 68.3889C58.846 68.1664 59.3528 68.0552 59.9398 68.0552ZM61.1171 70.6136C61.0862 70.2861 60.9719 70.0265 60.7741 69.835C60.5825 69.6372 60.3045 69.5383 59.9398 69.5383C59.5752 69.5383 59.294 69.6372 59.0963 69.835C58.9047 70.0265 58.7935 70.2861 58.7626 70.6136C58.744 70.8176 58.7348 71.074 58.7348 71.383C58.7348 71.6858 58.744 71.9485 58.7626 72.171C58.7935 72.4985 58.9047 72.7611 59.0963 72.9589C59.294 73.1505 59.5752 73.2463 59.9398 73.2463C60.3045 73.2463 60.5825 73.1505 60.7741 72.9589C60.9719 72.7611 61.0862 72.4985 61.1171 72.171C61.1356 71.9485 61.1449 71.6858 61.1449 71.383C61.1449 71.074 61.1356 70.8176 61.1171 70.6136ZM66.6769 68.1479C67.505 68.1479 68.1477 68.3271 68.605 68.6855C69.0623 69.0378 69.291 69.5661 69.291 70.2707C69.291 71.1667 68.9232 71.7847 68.1878 72.1246L69.3373 74.3308C69.3558 74.3679 69.3651 74.4019 69.3651 74.4328C69.3651 74.4884 69.3435 74.5378 69.3002 74.5811C69.2631 74.6182 69.2168 74.6367 69.1612 74.6367H67.9005C67.7892 74.6367 67.7058 74.6151 67.6502 74.5718C67.5946 74.5224 67.5482 74.4606 67.5112 74.3864L66.4822 72.4027H65.6294V74.3864C65.6294 74.4544 65.6047 74.5131 65.5552 74.5626C65.5058 74.612 65.4471 74.6367 65.3791 74.6367H64.1648C64.0968 74.6367 64.0381 74.612 63.9886 74.5626C63.9392 74.5131 63.9145 74.4544 63.9145 74.3864V68.3982C63.9145 68.3302 63.9392 68.2715 63.9886 68.222C64.0381 68.1726 64.0968 68.1479 64.1648 68.1479H66.6769ZM66.6769 70.9566C67.2763 70.9566 67.576 70.728 67.576 70.2707C67.576 69.8133 67.2763 69.5847 66.6769 69.5847H65.6294V70.9566H66.6769ZM74.5776 74.6367C74.4849 74.6367 74.4046 74.6151 74.3366 74.5718C74.2686 74.5224 74.2223 74.473 74.1976 74.4235L72.0748 71.2532V74.3864C72.0748 74.4544 72.0501 74.5131 72.0006 74.5626C71.9512 74.612 71.8925 74.6367 71.8245 74.6367H70.6102C70.5422 74.6367 70.4835 74.612 70.434 74.5626C70.3846 74.5131 70.3599 74.4544 70.3599 74.3864V68.3982C70.3599 68.3302 70.3846 68.2715 70.434 68.222C70.4835 68.1726 70.5422 68.1479 70.6102 68.1479H71.5742C71.6669 68.1479 71.7472 68.1726 71.8152 68.222C71.8832 68.2653 71.9296 68.3116 71.9543 68.3611L74.077 71.5313V68.3982C74.077 68.3302 74.1018 68.2715 74.1512 68.222C74.2006 68.1726 74.2594 68.1479 74.3273 68.1479H75.5417C75.6097 68.1479 75.6684 68.1726 75.7178 68.222C75.7672 68.2715 75.792 68.3302 75.792 68.3982V74.3864C75.792 74.4544 75.7672 74.5131 75.7178 74.5626C75.6684 74.612 75.6097 74.6367 75.5417 74.6367H74.5776ZM43.6746 79.0702C43.6746 79.1119 43.6584 79.149 43.626 79.1814C43.5982 79.2092 43.5657 79.2231 43.5287 79.2231H42.6179C42.553 79.2231 42.502 79.2162 42.4649 79.2023C42.4279 79.1837 42.3862 79.1536 42.3398 79.1119C42.3305 79.1026 42.3004 79.0725 42.2494 79.0215C42.1984 78.9659 42.1173 78.9172 42.0061 78.8755C41.8995 78.8338 41.7743 78.8129 41.6307 78.8129C41.4314 78.8129 41.2668 78.8407 41.137 78.8964C41.0119 78.9473 40.9493 79.0377 40.9493 79.1675C40.9493 79.2602 40.9887 79.3344 41.0675 79.39C41.1463 79.441 41.2668 79.4873 41.429 79.529C41.5959 79.5707 41.8833 79.6333 42.2911 79.7167C42.8149 79.8233 43.1996 79.9902 43.4452 80.2173C43.6909 80.4444 43.8137 80.7689 43.8137 81.1906C43.8137 81.4965 43.721 81.7654 43.5356 81.9971C43.3548 82.2242 43.0999 82.4003 42.7708 82.5255C42.4464 82.646 42.0779 82.7062 41.6654 82.7062C41.2668 82.7062 40.9053 82.6367 40.5809 82.4977C40.2564 82.3586 40.0015 82.1779 39.8161 81.9554C39.6307 81.7329 39.5334 81.5035 39.5241 81.2671C39.5241 81.2254 39.538 81.1906 39.5658 81.1628C39.5983 81.1304 39.633 81.1142 39.6701 81.1142H40.5809C40.6828 81.1142 40.7709 81.1466 40.845 81.2115C40.859 81.2254 40.896 81.2671 40.9563 81.3366C41.0165 81.4015 41.1069 81.4618 41.2274 81.5174C41.3526 81.5684 41.4986 81.5939 41.6654 81.5939C42.2402 81.5939 42.5275 81.471 42.5275 81.2254C42.5275 81.1466 42.4858 81.0817 42.4024 81.0307C42.3236 80.9751 42.21 80.9288 42.0617 80.8917C41.9134 80.8546 41.677 80.8013 41.3526 80.7318L41.0397 80.6692C40.567 80.5672 40.2193 80.3981 39.9969 80.1617C39.7744 79.9207 39.6632 79.6009 39.6632 79.2023C39.6632 78.9334 39.7443 78.6855 39.9065 78.4584C40.0687 78.2266 40.2981 78.0435 40.5948 77.9091C40.896 77.7701 41.2413 77.7006 41.6307 77.7006C42.0061 77.7006 42.3491 77.7724 42.6596 77.9161C42.9701 78.0551 43.2135 78.2313 43.3896 78.4445C43.5704 78.6577 43.6654 78.8662 43.6746 79.0702ZM48.0396 77.9578C48.0535 77.8929 48.079 77.8466 48.116 77.8188C48.1578 77.7863 48.2041 77.7701 48.2551 77.7701H49.1659C49.2076 77.7701 49.2423 77.7863 49.2701 77.8188C49.3026 77.8466 49.3188 77.8813 49.3188 77.923L49.3119 77.9787L48.415 82.3725C48.4057 82.4374 48.3663 82.4977 48.2968 82.5533C48.2319 82.6089 48.1554 82.6367 48.0674 82.6367H47.4903C47.4023 82.6367 47.3281 82.6112 47.2679 82.5602C47.2076 82.5046 47.1659 82.4421 47.1427 82.3725L46.6213 80.8013L46.0999 82.3725C46.0767 82.4421 46.035 82.5046 45.9747 82.5602C45.9145 82.6112 45.8403 82.6367 45.7523 82.6367H45.1752C45.0871 82.6367 45.0084 82.6089 44.9388 82.5533C44.8739 82.4977 44.8369 82.4374 44.8276 82.3725L43.9307 77.9787L43.9238 77.923C43.9238 77.8813 43.9377 77.8466 43.9655 77.8188C43.9979 77.7863 44.035 77.7701 44.0767 77.7701H44.9875C45.0385 77.7701 45.0825 77.7863 45.1196 77.8188C45.1613 77.8466 45.1891 77.8929 45.203 77.9578L45.648 80.3077L46.0582 79.0493C46.1045 78.9149 46.1833 78.8477 46.2945 78.8477H46.9481C47.0593 78.8477 47.1381 78.9149 47.1844 79.0493L47.5946 80.3077L48.0396 77.9578ZM54.4012 82.3795C54.4197 82.4258 54.429 82.4606 54.429 82.4838C54.429 82.5255 54.4128 82.5626 54.3803 82.595C54.3525 82.6228 54.3178 82.6367 54.276 82.6367H53.4C53.3212 82.6367 53.2587 82.6205 53.2123 82.5881C53.1706 82.551 53.1428 82.5093 53.1289 82.4629L52.9342 81.8859H51.0849L50.8902 82.4629C50.8763 82.5093 50.8462 82.551 50.7999 82.5881C50.7582 82.6205 50.6979 82.6367 50.6191 82.6367H49.7431C49.7014 82.6367 49.6643 82.6228 49.6319 82.595C49.6041 82.5626 49.5902 82.5255 49.5902 82.4838C49.5902 82.4606 49.5994 82.4258 49.618 82.3795L51.1336 77.9995C51.1568 77.9346 51.1938 77.8813 51.2448 77.8396C51.2958 77.7933 51.363 77.7701 51.4464 77.7701H52.5727C52.6561 77.7701 52.7233 77.7933 52.7743 77.8396C52.8253 77.8813 52.8624 77.9346 52.8856 77.9995L54.4012 82.3795ZM52.5727 80.8083L52.0096 79.1397L51.4464 80.8083H52.5727ZM57.1666 77.7701C57.7692 77.7701 58.2396 77.9091 58.578 78.1872C58.9209 78.4607 59.0924 78.8639 59.0924 79.3969C59.0924 79.9299 58.9209 80.3355 58.578 80.6136C58.2396 80.8917 57.7692 81.0307 57.1666 81.0307H56.2767V82.449C56.2767 82.5 56.2582 82.544 56.2211 82.5811C56.184 82.6182 56.14 82.6367 56.089 82.6367H55.1783C55.1273 82.6367 55.0832 82.6182 55.0462 82.5811C55.0091 82.544 54.9906 82.5 54.9906 82.449V77.9578C54.9906 77.9068 55.0091 77.8628 55.0462 77.8257C55.0832 77.7886 55.1273 77.7701 55.1783 77.7701H57.1666ZM57.1319 79.9462C57.3358 79.9462 57.498 79.9021 57.6185 79.8141C57.7437 79.7214 57.8062 79.5823 57.8062 79.3969C57.8062 79.2115 57.7437 79.0748 57.6185 78.9867C57.498 78.894 57.3358 78.8477 57.1319 78.8477H56.2767V79.9462H57.1319Z" fill="url(#paint6_linear)" shape-rendering="crispEdges"/>
</g>
<path d="M26.8734 73.1536C26.9414 73.1536 27.0001 73.1783 27.0495 73.2277C27.099 73.2772 27.1237 73.3359 27.1237 73.4038V74.3864C27.1237 74.4544 27.099 74.5131 27.0495 74.5626C27.0001 74.612 26.9414 74.6367 26.8734 74.6367H22.5815C22.5135 74.6367 22.4548 74.612 22.4054 74.5626C22.3559 74.5131 22.3312 74.4544 22.3312 74.3864V68.3982C22.3312 68.3302 22.3559 68.2715 22.4054 68.222C22.4548 68.1726 22.5135 68.1479 22.5815 68.1479H23.7958C23.8638 68.1479 23.9225 68.1726 23.9719 68.222C24.0214 68.2715 24.0461 68.3302 24.0461 68.3982V73.1536H26.8734ZM29.5681 72.1153H32.2193C32.2873 72.1153 32.346 72.0906 32.3954 72.0412C32.4449 71.9917 32.4696 71.933 32.4696 71.8651V70.8825C32.4696 70.8145 32.4449 70.7558 32.3954 70.7063C32.346 70.6569 32.2873 70.6322 32.2193 70.6322H29.5681V69.631H32.4232C32.4912 69.631 32.5499 69.6063 32.5994 69.5569C32.6488 69.5074 32.6735 69.4487 32.6735 69.3808V68.3982C32.6735 68.3302 32.6488 68.2715 32.5994 68.222C32.5499 68.1726 32.4912 68.1479 32.4232 68.1479H28.1035C28.0355 68.1479 27.9768 68.1726 27.9274 68.222C27.8779 68.2715 27.8532 68.3302 27.8532 68.3982V74.3864C27.8532 74.4544 27.8779 74.5131 27.9274 74.5626C27.9768 74.612 28.0355 74.6367 28.1035 74.6367H32.4974C32.5654 74.6367 32.6241 74.612 32.6735 74.5626C32.723 74.5131 32.7477 74.4544 32.7477 74.3864V73.4038C32.7477 73.3359 32.723 73.2772 32.6735 73.2277C32.6241 73.1783 32.5654 73.1536 32.4974 73.1536H29.5681V72.1153ZM36.4888 68.0552C37.0758 68.0552 37.5826 68.1664 38.009 68.3889C38.4354 68.6114 38.7629 68.9142 38.9916 69.2973C39.2264 69.6743 39.3562 70.0976 39.3809 70.5673C39.3933 70.7403 39.3995 71.0184 39.3995 71.4016C39.3995 71.7785 39.3933 72.0505 39.3809 72.2173C39.3562 72.687 39.2264 73.1134 38.9916 73.4965C38.7629 73.8735 38.4354 74.1732 38.009 74.3957C37.5826 74.6182 37.0758 74.7294 36.4888 74.7294C35.9017 74.7294 35.3949 74.6182 34.9685 74.3957C34.5421 74.1732 34.2115 73.8735 33.9766 73.4965C33.748 73.1134 33.6213 72.687 33.5966 72.2173C33.5842 71.8836 33.578 71.6117 33.578 71.4016C33.578 71.1915 33.5842 70.9134 33.5966 70.5673C33.6213 70.0976 33.748 69.6743 33.9766 69.2973C34.2115 68.9142 34.5421 68.6114 34.9685 68.3889C35.3949 68.1664 35.9017 68.0552 36.4888 68.0552ZM37.666 70.6136C37.6351 70.2861 37.5208 70.0265 37.323 69.835C37.1315 69.6372 36.8534 69.5383 36.4888 69.5383C36.1241 69.5383 35.843 69.6372 35.6452 69.835C35.4536 70.0265 35.3424 70.2861 35.3115 70.6136C35.293 70.8176 35.2837 71.074 35.2837 71.383C35.2837 71.6858 35.293 71.9485 35.3115 72.171C35.3424 72.4985 35.4536 72.7611 35.6452 72.9589C35.843 73.1505 36.1241 73.2463 36.4888 73.2463C36.8534 73.2463 37.1315 73.1505 37.323 72.9589C37.5208 72.7611 37.6351 72.4985 37.666 72.171C37.6846 71.9485 37.6938 71.6858 37.6938 71.383C37.6938 71.074 37.6846 70.8176 37.666 70.6136ZM44.6811 74.6367C44.5884 74.6367 44.5081 74.6151 44.4401 74.5718C44.3721 74.5224 44.3258 74.473 44.3011 74.4235L42.1783 71.2532V74.3864C42.1783 74.4544 42.1536 74.5131 42.1041 74.5626C42.0547 74.612 41.996 74.6367 41.928 74.6367H40.7137C40.6457 74.6367 40.587 74.612 40.5375 74.5626C40.4881 74.5131 40.4634 74.4544 40.4634 74.3864V68.3982C40.4634 68.3302 40.4881 68.2715 40.5375 68.222C40.587 68.1726 40.6457 68.1479 40.7137 68.1479H41.6777C41.7704 68.1479 41.8508 68.1726 41.9187 68.222C41.9867 68.2653 42.0331 68.3116 42.0578 68.3611L44.1806 71.5313V68.3982C44.1806 68.3302 44.2053 68.2715 44.2547 68.222C44.3042 68.1726 44.3629 68.1479 44.4309 68.1479H45.6452C45.7132 68.1479 45.7719 68.1726 45.8213 68.222C45.8708 68.2715 45.8955 68.3302 45.8955 68.3982V74.3864C45.8955 74.4544 45.8708 74.5131 45.8213 74.5626C45.7719 74.612 45.7132 74.6367 45.6452 74.6367H44.6811ZM47.4397 74.6367C47.3717 74.6367 47.313 74.612 47.2636 74.5626C47.2141 74.5131 47.1894 74.4544 47.1894 74.3864V68.3982C47.1894 68.3302 47.2141 68.2715 47.2636 68.222C47.313 68.1726 47.3717 68.1479 47.4397 68.1479H48.654C48.722 68.1479 48.7807 68.1726 48.8302 68.222C48.8796 68.2715 48.9043 68.3302 48.9043 68.3982V74.3864C48.9043 74.4544 48.8796 74.5131 48.8302 74.5626C48.7807 74.612 48.722 74.6367 48.654 74.6367H47.4397ZM51.6963 72.171C51.7211 72.4923 51.823 72.7519 52.0022 72.9496C52.1876 73.1474 52.475 73.2463 52.8643 73.2463C53.2351 73.2463 53.5039 73.1752 53.6708 73.033C53.8376 72.8909 53.9551 72.7179 54.023 72.5139C54.0601 72.4089 54.0972 72.3378 54.1343 72.3007C54.1714 72.2637 54.2393 72.2451 54.3382 72.2451H55.5526C55.6082 72.2451 55.6545 72.2667 55.6916 72.31C55.7349 72.3471 55.7565 72.3934 55.7565 72.4491C55.7503 72.8631 55.6174 73.2463 55.3579 73.5985C55.1045 73.9446 54.7584 74.2196 54.3197 74.4235C53.8809 74.6274 53.3958 74.7294 52.8643 74.7294C52.2896 74.7294 51.789 74.6182 51.3626 74.3957C50.9362 74.167 50.6056 73.8642 50.3708 73.4873C50.1359 73.1041 50.0061 72.6808 49.9814 72.2173C49.9691 71.9207 49.9629 71.6766 49.9629 71.485C49.9629 71.2563 49.9691 70.9504 49.9814 70.5673C50 70.1038 50.1266 69.6836 50.3615 69.3066C50.5963 68.9234 50.9269 68.6206 51.3533 68.3982C51.7859 68.1695 52.2896 68.0552 52.8643 68.0552C53.3958 68.0552 53.8809 68.1571 54.3197 68.3611C54.7584 68.565 55.1045 68.8431 55.3579 69.1954C55.6174 69.5414 55.7503 69.9215 55.7565 70.3355C55.7565 70.3912 55.7349 70.4406 55.6916 70.4839C55.6545 70.5209 55.6082 70.5395 55.5526 70.5395H54.3382C54.2393 70.5395 54.1714 70.5209 54.1343 70.4839C54.0972 70.4468 54.0601 70.3757 54.023 70.2707C53.9551 70.0667 53.8376 69.8937 53.6708 69.7515C53.5039 69.6094 53.2351 69.5383 52.8643 69.5383C52.475 69.5383 52.1876 69.6372 52.0022 69.835C51.823 70.0327 51.7211 70.2923 51.6963 70.6136C51.684 70.8237 51.6778 71.0833 51.6778 71.3923C51.6778 71.6889 51.684 71.9485 51.6963 72.171ZM59.3916 68.0552C59.9787 68.0552 60.4855 68.1664 60.9119 68.3889C61.3383 68.6114 61.6658 68.9142 61.8945 69.2973C62.1293 69.6743 62.2591 70.0976 62.2838 70.5673C62.2962 70.7403 62.3023 71.0184 62.3023 71.4016C62.3023 71.7785 62.2962 72.0505 62.2838 72.2173C62.2591 72.687 62.1293 73.1134 61.8945 73.4965C61.6658 73.8735 61.3383 74.1732 60.9119 74.3957C60.4855 74.6182 59.9787 74.7294 59.3916 74.7294C58.8045 74.7294 58.2978 74.6182 57.8714 74.3957C57.445 74.1732 57.1143 73.8735 56.8795 73.4965C56.6509 73.1134 56.5242 72.687 56.4995 72.2173C56.4871 71.8836 56.4809 71.6117 56.4809 71.4016C56.4809 71.1915 56.4871 70.9134 56.4995 70.5673C56.5242 70.0976 56.6509 69.6743 56.8795 69.2973C57.1143 68.9142 57.445 68.6114 57.8714 68.3889C58.2978 68.1664 58.8045 68.0552 59.3916 68.0552ZM60.5689 70.6136C60.538 70.2861 60.4237 70.0265 60.2259 69.835C60.0343 69.6372 59.7562 69.5383 59.3916 69.5383C59.027 69.5383 58.7458 69.6372 58.5481 69.835C58.3565 70.0265 58.2453 70.2861 58.2144 70.6136C58.1958 70.8176 58.1866 71.074 58.1866 71.383C58.1866 71.6858 58.1958 71.9485 58.2144 72.171C58.2453 72.4985 58.3565 72.7611 58.5481 72.9589C58.7458 73.1505 59.027 73.2463 59.3916 73.2463C59.7562 73.2463 60.0343 73.1505 60.2259 72.9589C60.4237 72.7611 60.538 72.4985 60.5689 72.171C60.5874 71.9485 60.5967 71.6858 60.5967 71.383C60.5967 71.074 60.5874 70.8176 60.5689 70.6136ZM66.1287 68.1479C66.9568 68.1479 67.5995 68.3271 68.0568 68.6855C68.5141 69.0378 68.7427 69.5661 68.7427 70.2707C68.7427 71.1667 68.375 71.7847 67.6396 72.1246L68.7891 74.3308C68.8076 74.3679 68.8169 74.4019 68.8169 74.4328C68.8169 74.4884 68.7953 74.5378 68.752 74.5811C68.7149 74.6182 68.6686 74.6367 68.613 74.6367H67.3523C67.241 74.6367 67.1576 74.6151 67.102 74.5718C67.0464 74.5224 67 74.4606 66.9629 74.3864L65.934 72.4027H65.0812V74.3864C65.0812 74.4544 65.0565 74.5131 65.007 74.5626C64.9576 74.612 64.8989 74.6367 64.8309 74.6367H63.6165C63.5486 74.6367 63.4899 74.612 63.4404 74.5626C63.391 74.5131 63.3663 74.4544 63.3663 74.3864V68.3982C63.3663 68.3302 63.391 68.2715 63.4404 68.222C63.4899 68.1726 63.5486 68.1479 63.6165 68.1479H66.1287ZM66.1287 70.9566C66.7281 70.9566 67.0278 70.728 67.0278 70.2707C67.0278 69.8133 66.7281 69.5847 66.1287 69.5847H65.0812V70.9566H66.1287ZM74.0294 74.6367C73.9367 74.6367 73.8564 74.6151 73.7884 74.5718C73.7204 74.5224 73.6741 74.473 73.6493 74.4235L71.5266 71.2532V74.3864C71.5266 74.4544 71.5018 74.5131 71.4524 74.5626C71.403 74.612 71.3443 74.6367 71.2763 74.6367H70.0619C69.994 74.6367 69.9352 74.612 69.8858 74.5626C69.8364 74.5131 69.8116 74.4544 69.8116 74.3864V68.3982C69.8116 68.3302 69.8364 68.2715 69.8858 68.222C69.9352 68.1726 69.994 68.1479 70.0619 68.1479H71.026C71.1187 68.1479 71.199 68.1726 71.267 68.222C71.335 68.2653 71.3813 68.3116 71.4061 68.3611L73.5288 71.5313V68.3982C73.5288 68.3302 73.5536 68.2715 73.603 68.222C73.6524 68.1726 73.7111 68.1479 73.7791 68.1479H74.9935C75.0614 68.1479 75.1201 68.1726 75.1696 68.222C75.219 68.2715 75.2437 68.3302 75.2437 68.3982V74.3864C75.2437 74.4544 75.219 74.5131 75.1696 74.5626C75.1201 74.612 75.0614 74.6367 74.9935 74.6367H74.0294ZM43.1264 79.0702C43.1264 79.1119 43.1102 79.149 43.0778 79.1814C43.05 79.2092 43.0175 79.2231 42.9804 79.2231H42.0697C42.0048 79.2231 41.9538 79.2162 41.9167 79.2023C41.8796 79.1837 41.8379 79.1536 41.7916 79.1119C41.7823 79.1026 41.7522 79.0725 41.7012 79.0215C41.6502 78.9659 41.5691 78.9172 41.4579 78.8755C41.3513 78.8338 41.2261 78.8129 41.0824 78.8129C40.8831 78.8129 40.7186 78.8407 40.5888 78.8964C40.4637 78.9473 40.4011 79.0377 40.4011 79.1675C40.4011 79.2602 40.4405 79.3344 40.5193 79.39C40.5981 79.441 40.7186 79.4873 40.8808 79.529C41.0477 79.5707 41.335 79.6333 41.7429 79.7167C42.2667 79.8233 42.6514 79.9902 42.897 80.2173C43.1427 80.4444 43.2655 80.7689 43.2655 81.1906C43.2655 81.4965 43.1728 81.7654 42.9874 81.9971C42.8066 82.2242 42.5517 82.4003 42.2226 82.5255C41.8982 82.646 41.5297 82.7062 41.1172 82.7062C40.7186 82.7062 40.3571 82.6367 40.0326 82.4977C39.7082 82.3586 39.4533 82.1779 39.2679 81.9554C39.0825 81.7329 38.9852 81.5035 38.9759 81.2671C38.9759 81.2254 38.9898 81.1906 39.0176 81.1628C39.05 81.1304 39.0848 81.1142 39.1219 81.1142H40.0326C40.1346 81.1142 40.2227 81.1466 40.2968 81.2115C40.3107 81.2254 40.3478 81.2671 40.4081 81.3366C40.4683 81.4015 40.5587 81.4618 40.6792 81.5174C40.8044 81.5684 40.9504 81.5939 41.1172 81.5939C41.6919 81.5939 41.9793 81.471 41.9793 81.2254C41.9793 81.1466 41.9376 81.0817 41.8542 81.0307C41.7754 80.9751 41.6618 80.9288 41.5135 80.8917C41.3652 80.8546 41.1288 80.8013 40.8044 80.7318L40.4915 80.6692C40.0187 80.5672 39.6711 80.3981 39.4486 80.1617C39.2262 79.9207 39.1149 79.6009 39.1149 79.2023C39.1149 78.9334 39.196 78.6855 39.3583 78.4584C39.5205 78.2266 39.7499 78.0435 40.0465 77.9091C40.3478 77.7701 40.6931 77.7006 41.0824 77.7006C41.4579 77.7006 41.8009 77.7724 42.1114 77.9161C42.4219 78.0551 42.6653 78.2313 42.8414 78.4445C43.0221 78.6577 43.1172 78.8662 43.1264 79.0702ZM47.4914 77.9578C47.5053 77.8929 47.5308 77.8466 47.5678 77.8188C47.6095 77.7863 47.6559 77.7701 47.7069 77.7701H48.6176C48.6593 77.7701 48.6941 77.7863 48.7219 77.8188C48.7544 77.8466 48.7706 77.8813 48.7706 77.923L48.7636 77.9787L47.8668 82.3725C47.8575 82.4374 47.8181 82.4977 47.7486 82.5533C47.6837 82.6089 47.6072 82.6367 47.5192 82.6367H46.9421C46.8541 82.6367 46.7799 82.6112 46.7196 82.5602C46.6594 82.5046 46.6177 82.4421 46.5945 82.3725L46.0731 80.8013L45.5517 82.3725C45.5285 82.4421 45.4868 82.5046 45.4265 82.5602C45.3663 82.6112 45.2921 82.6367 45.204 82.6367H44.627C44.5389 82.6367 44.4601 82.6089 44.3906 82.5533C44.3257 82.4977 44.2886 82.4374 44.2794 82.3725L43.3825 77.9787L43.3756 77.923C43.3756 77.8813 43.3895 77.8466 43.4173 77.8188C43.4497 77.7863 43.4868 77.7701 43.5285 77.7701H44.4393C44.4903 77.7701 44.5343 77.7863 44.5714 77.8188C44.6131 77.8466 44.6409 77.8929 44.6548 77.9578L45.0998 80.3077L45.5099 79.0493C45.5563 78.9149 45.6351 78.8477 45.7463 78.8477H46.3998C46.5111 78.8477 46.5899 78.9149 46.6362 79.0493L47.0464 80.3077L47.4914 77.9578ZM53.853 82.3795C53.8715 82.4258 53.8808 82.4606 53.8808 82.4838C53.8808 82.5255 53.8645 82.5626 53.8321 82.595C53.8043 82.6228 53.7695 82.6367 53.7278 82.6367H52.8518C52.773 82.6367 52.7105 82.6205 52.6641 82.5881C52.6224 82.551 52.5946 82.5093 52.5807 82.4629L52.386 81.8859H50.5367L50.342 82.4629C50.3281 82.5093 50.298 82.551 50.2517 82.5881C50.2099 82.6205 50.1497 82.6367 50.0709 82.6367H49.1949C49.1532 82.6367 49.1161 82.6228 49.0837 82.595C49.0558 82.5626 49.0419 82.5255 49.0419 82.4838C49.0419 82.4606 49.0512 82.4258 49.0698 82.3795L50.5854 77.9995C50.6085 77.9346 50.6456 77.8813 50.6966 77.8396C50.7476 77.7933 50.8148 77.7701 50.8982 77.7701H52.0245C52.1079 77.7701 52.1751 77.7933 52.2261 77.8396C52.2771 77.8813 52.3142 77.9346 52.3374 77.9995L53.853 82.3795ZM52.0245 80.8083L51.4614 79.1397L50.8982 80.8083H52.0245ZM56.6184 77.7701C57.2209 77.7701 57.6914 77.9091 58.0297 78.1872C58.3727 78.4607 58.5442 78.8639 58.5442 79.3969C58.5442 79.9299 58.3727 80.3355 58.0297 80.6136C57.6914 80.8917 57.2209 81.0307 56.6184 81.0307H55.7285V82.449C55.7285 82.5 55.71 82.544 55.6729 82.5811C55.6358 82.6182 55.5918 82.6367 55.5408 82.6367H54.63C54.5791 82.6367 54.535 82.6182 54.498 82.5811C54.4609 82.544 54.4423 82.5 54.4423 82.449V77.9578C54.4423 77.9068 54.4609 77.8628 54.498 77.8257C54.535 77.7886 54.5791 77.7701 54.63 77.7701H56.6184ZM56.5837 79.9462C56.7876 79.9462 56.9498 79.9021 57.0703 79.8141C57.1955 79.7214 57.258 79.5823 57.258 79.3969C57.258 79.2115 57.1955 79.0748 57.0703 78.9867C56.9498 78.894 56.7876 78.8477 56.5837 78.8477H55.7285V79.9462H56.5837Z" fill="url(#paint7_linear)"/>
</g>
<defs>
<filter id="filter0_f" x="1.77298" y="2.74282" width="94.6668" height="97.5131" filterUnits="userSpaceOnUse" color-interpolation-filters="sRGB">
<feFlood flood-opacity="0" result="BackgroundImageFix"/>
<feBlend mode="normal" in="SourceGraphic" in2="BackgroundImageFix" result="shape"/>
<feGaussianBlur stdDeviation="0.274096" result="effect1_foregroundBlur"/>
</filter>
<filter id="filter1_i" x="6.38306" y="5.48535" width="90.058" height="92.028" filterUnits="userSpaceOnUse" color-interpolation-filters="sRGB">
<feFlood flood-opacity="0" result="BackgroundImageFix"/>
<feBlend mode="normal" in="SourceGraphic" in2="BackgroundImageFix" result="shape"/>
<feColorMatrix in="SourceAlpha" type="matrix" values="0 0 0 0 0 0 0 0 0 0 0 0 0 0 0 0 0 0 127 0" result="hardAlpha"/>
<feOffset dx="5.48191"/>
<feGaussianBlur stdDeviation="4.11143"/>
<feComposite in2="hardAlpha" operator="arithmetic" k2="-1" k3="1"/>
<feColorMatrix type="matrix" values="0 0 0 0 0 0 0 0 0 0 0 0 0 0 0 0 0 0 0.58 0"/>
<feBlend mode="normal" in2="shape" result="effect1_innerShadow"/>
</filter>
<filter id="filter2_d" x="28.0192" y="20.1042" width="42.6901" height="45.6452" filterUnits="userSpaceOnUse" color-interpolation-filters="sRGB">
<feFlood flood-opacity="0" result="BackgroundImageFix"/>
<feColorMatrix in="SourceAlpha" type="matrix" values="0 0 0 0 0 0 0 0 0 0 0 0 0 0 0 0 0 0 127 0" result="hardAlpha"/>
<feOffset dx="0.548191"/>
<feGaussianBlur stdDeviation="0.274096"/>
<feComposite in2="hardAlpha" operator="out"/>
<feColorMatrix type="matrix" values="0 0 0 0 0 0 0 0 0 0 0 0 0 0 0 0 0 0 0.25 0"/>
<feBlend mode="normal" in2="BackgroundImageFix" result="effect1_dropShadow"/>
<feBlend mode="normal" in="SourceGraphic" in2="effect1_dropShadow" result="shape"/>
</filter>
<filter id="filter3_d" x="22.8794" y="67.5075" width="54.0089" height="15.7474" filterUnits="userSpaceOnUse" color-interpolation-filters="sRGB">
<feFlood flood-opacity="0" result="BackgroundImageFix"/>
<feColorMatrix in="SourceAlpha" type="matrix" values="0 0 0 0 0 0 0 0 0 0 0 0 0 0 0 0 0 0 127 0" result="hardAlpha"/>
<feOffset dx="0.548191"/>
<feGaussianBlur stdDeviation="0.274096"/>
<feComposite in2="hardAlpha" operator="out"/>
<feColorMatrix type="matrix" values="0 0 0 0 0 0 0 0 0 0 0 0 0 0 0 0 0 0 0.25 0"/>
<feBlend mode="normal" in2="BackgroundImageFix" result="effect1_dropShadow"/>
<feBlend mode="normal" in="SourceGraphic" in2="effect1_dropShadow" result="shape"/>
</filter>
<linearGradient id="paint0_linear" x1="53.3859" y1="0" x2="53.3859" y2="103" gradientUnits="userSpaceOnUse">
<stop stop-color="#9C9DA9"/>
<stop offset="0.500102" stop-color="#6F6C80"/>
<stop offset="1" stop-color="#D8D0D3"/>
</linearGradient>
<linearGradient id="paint1_linear" x1="-9.7443e-07" y1="51.5686" x2="97.9225" y2="51.5686" gradientUnits="userSpaceOnUse">
<stop stop-color="#716E7A"/>
<stop offset="1" stop-color="#383741"/>
</linearGradient>
<linearGradient id="paint2_linear" x1="6.38306" y1="49.9907" x2="90.9591" y2="49.9907" gradientUnits="userSpaceOnUse">
<stop stop-color="#565362"/>
<stop offset="1" stop-color="#6E6A85"/>
</linearGradient>
<linearGradient id="paint3_linear" x1="1.88592" y1="51.568" x2="93.8606" y2="51.568" gradientUnits="userSpaceOnUse">
<stop stop-color="#7A7884"/>
<stop offset="1" stop-color="#86848E"/>
</linearGradient>
<linearGradient id="paint4_linear" x1="1.88593" y1="49.785" x2="14.7968" y2="49.5549" gradientUnits="userSpaceOnUse">
<stop stop-color="white"/>
<stop offset="1" stop-color="white" stop-opacity="0"/>
</linearGradient>
<linearGradient id="paint5_linear" x1="93.8606" y1="51.568" x2="78.6282" y2="51.568" gradientUnits="userSpaceOnUse">
<stop stop-color="white"/>
<stop offset="1" stop-color="white" stop-opacity="0"/>
</linearGradient>
<linearGradient id="paint6_linear" x1="75.7843" y1="73.8018" x2="22.3356" y2="73.8018" gradientUnits="userSpaceOnUse">
<stop stop-color="#ABA5C4"/>
<stop offset="1" stop-color="#ABA5C4" stop-opacity="0"/>
</linearGradient>
<linearGradient id="paint7_linear" x1="75.9213" y1="74.2815" x2="23.0894" y2="74.2815" gradientUnits="userSpaceOnUse">
<stop stop-color="white"/>
<stop offset="1" stop-color="#E8E5F4"/>
</linearGradient>
<clipPath id="clip0">
<rect x="12.8793" y="15.624" width="71.813" height="71.813" rx="7.1813" fill="white"/>
</clipPath>
</defs>
</svg>
