<svg width="148" height="41" viewBox="0 0 148 41" fill="none" xmlns="http://www.w3.org/2000/svg">
<path d="M13.6892 4.25994C15.4086 4.55895 17.2089 4.13535 17.8941 3.88617C17.2868 4.25994 16.6327 5.10092 16.4925 5.19436C16.3804 5.26911 15.3868 5.56813 14.904 5.70829C13.6581 5.81731 10.9794 5.63354 10.2319 4.02633C9.29746 2.01732 10.9794 0.849297 10.6991 1.40995C10.4748 1.85847 10.6991 2.43781 10.8393 2.67142C11.0729 3.07634 11.9699 3.96092 13.6892 4.25994Z" fill="#03A9F4"/>
<path d="M21.1646 6.31566C20.7909 6.80156 20.3859 7.60828 20.2302 7.9509C20.4638 8.32467 21.1646 7.57713 21.5851 7.57713C22.0056 7.57713 22.2392 7.39025 22.4261 7.57713C22.613 7.76402 22.4261 7.81074 23.3138 7.76402C24.2015 7.7173 24.5753 8.23123 24.5753 8.04434C24.5753 7.85746 24.4351 6.78287 24.3884 6.45583C24.3417 6.12878 23.5007 5.33452 22.8933 5.38124C22.2859 5.42796 21.6318 5.70829 21.1646 6.31566Z" fill="#03A9F4"/>
<path d="M24.8089 6.92304C24.7715 6.58665 24.513 5.97304 24.3884 5.70829C24.2644 5.42796 24.4818 5.61485 24.8089 5.98862C25.1359 6.36238 25.2294 6.12878 25.4162 6.31566C25.6031 6.50255 25.7433 7.29681 25.79 7.76402C25.8367 8.23123 25.4162 8.13779 24.9958 7.9509C24.5753 7.76402 24.8556 7.34353 24.8089 6.92304Z" fill="#03A9F4"/>
<path d="M28.313 5.98862L26.6777 7.39025C27.0982 5.52141 26.2105 3.88617 25.5564 3.27879C26.1482 3.48125 27.4439 4.04502 27.8925 4.68043C28.341 5.31583 28.3752 5.5837 28.313 5.98862Z" fill="#03A9F4"/>
<path d="M29.2007 11.0812C29.0885 11.1186 28.8736 10.7853 28.7802 10.614C29.752 9.30581 29.5121 8.35582 29.2007 7.9509L29.6211 7.57713L29.9482 8.27795C30.0884 8.37139 30.4061 8.63303 30.5556 8.93204C30.7424 9.30581 30.7424 9.91319 30.5556 10.4271C30.3687 10.9411 30.0416 11.2214 29.808 11.0812C29.5744 10.9411 29.3408 11.0345 29.2007 11.0812Z" fill="#03A9F4"/>
<path d="M11.7737 15.4263C12.6707 15.3141 14.3589 14.3828 15.0909 13.9312C14.2966 14.5853 14.904 14.3984 15.0909 14.4919C15.2778 14.5853 14.7171 14.8656 13.8294 15.2861C13.1193 15.6225 13.3466 15.2705 13.5491 15.0525C13.004 15.3796 11.4093 16.043 9.39091 16.0804C7.37256 16.1177 5.8401 17.2173 5.32617 17.7623C5.6065 17.3418 6.326 16.4355 6.96141 16.1738C7.75567 15.8468 10.6524 15.5664 11.7737 15.4263Z" fill="#03A9F4"/>
<path d="M4.11581 21.9702C4.1142 21.9529 4.11274 21.9364 4.11142 21.9205C4.11293 21.9371 4.11439 21.9537 4.11581 21.9702C4.15196 22.3597 4.25951 23.0855 4.43847 23.2287C4.67208 23.4156 4.9524 23.6492 4.85896 24.023C4.78421 24.322 4.08028 24.8639 3.73765 25.0975C3.92265 24.7275 4.25415 23.5884 4.11581 21.9702Z" fill="#03A9F4"/>
<path d="M12.054 20.5656C12.2783 20.2666 13.0196 19.9738 13.3622 19.8648C12.7081 20.4254 13.6425 20.2385 13.5491 20.2853C13.4556 20.332 12.895 20.9394 12.6614 21.2664C12.4278 21.5935 11.7737 22.1541 11.3532 22.2476C10.9327 22.341 11.0261 21.7336 11.1663 21.6402C11.3065 21.5467 11.7737 20.9394 12.054 20.5656Z" fill="#03A9F4"/>
<path d="M10.886 25.4713C11.5214 25.3592 12.4901 22.8705 12.895 21.6402C11.6802 22.7148 10.5122 23.0885 10.2319 23.2287C10.0076 23.3408 9.76468 24.7705 9.67123 25.4713C9.8114 25.518 10.2506 25.5834 10.886 25.4713Z" fill="#03A9F4"/>
<path d="M8.40976 24.1164C8.33501 24.5275 8.44091 25.191 8.50321 25.4713C4.4665 25.5834 2.52291 28.7262 2.05569 30.2836L2.24258 28.4147C2.49176 27.7451 3.2611 26.1628 4.34503 25.191C5.42896 24.2192 7.50649 23.6336 8.40976 23.4623C8.44091 23.509 8.48452 23.7053 8.40976 24.1164Z" fill="#03A9F4"/>
<path d="M10.6991 25.7984C10.5496 25.8357 9.95156 25.8139 9.67123 25.7984C9.48435 26.2843 9.7491 27.2467 9.90484 27.6672L11.1663 25.6115C11.0729 25.6582 10.8486 25.761 10.6991 25.7984Z" fill="#03A9F4"/>
<path d="M9.67123 27.8074L8.83025 26.359C8.31632 27.5582 7.00813 30.1621 5.88682 30.9844C4.76552 31.8067 4.67208 31.95 4.76552 31.9188C5.09257 31.7631 5.95223 31.3021 6.77453 30.7041C7.59682 30.106 9.04829 28.5238 9.67123 27.8074Z" fill="#03A9F4"/>
<path d="M14.5769 28.1344C17.2307 26.5272 17.8319 22.668 17.8007 20.9394C18.1745 20.6123 17.8941 24.677 18.1278 24.6303C18.3614 24.5836 18.3614 23.7894 18.595 23.5557C18.8286 23.3221 18.8753 23.6025 18.7818 25.3311C18.6884 27.0598 17.9876 28.2746 16.913 29.4893C16.0688 30.4436 14.4949 31.2657 13.7748 31.5752C13.7612 31.5813 13.7483 31.5869 13.736 31.5918C13.7486 31.5864 13.7615 31.5809 13.7748 31.5752C14.0185 31.4654 14.4481 31.1644 14.4835 30.7041C14.5188 30.2449 14.7795 29.8051 14.9263 29.6136C14.583 30.0369 13.452 31.013 11.4466 31.7787C9.39091 32.5636 7.47534 32.1057 6.77453 31.7787C6.99256 31.6852 7.48469 31.461 7.70895 31.3114C7.93321 31.1619 8.8614 30.5639 9.29746 30.2836C9.95156 30.2369 11.9232 29.7416 14.5769 28.1344Z" fill="#03A9F4"/>
<path d="M25.1359 25.7984C25.2854 25.6489 25.3539 25.8607 25.3695 25.9852C24.9023 26.359 25.1359 26.8729 25.1359 27.0131C25.1359 27.1533 25.3695 27.4803 25.7433 27.3402C26.1171 27.2 26.1638 27.0131 26.1638 27.3402C26.1638 27.6018 26.2884 27.8541 26.3507 27.9475C26.3818 28.15 26.4067 28.7885 26.2572 29.7229C26.0703 30.891 25.2761 32.1991 24.8089 32.7131C24.3417 33.227 24.8089 32.1991 24.949 31.9188C25.0892 31.6385 25.3695 31.0778 25.1359 30.9844C24.949 30.9096 24.9335 30.7664 24.949 30.7041C24.731 31.4672 24.0613 33.1803 23.1269 33.9278C22.1925 34.6754 21.0245 34.6442 20.5572 34.5352C21.0712 34.0991 22.2299 33.0214 22.7531 32.1991C23.4072 31.1713 23.3605 30.4237 23.5941 28.5549C23.8277 26.6861 24.949 25.9852 25.1359 25.7984Z" fill="#03A9F4"/>
<path d="M29.1072 27.6672C29.4062 27.4429 29.4498 26.7016 29.4343 26.359C29.7613 26.2656 29.9015 27.2467 29.9482 27.6672C29.9949 28.0877 29.5744 29.1156 29.808 28.9754C30.0416 28.8352 30.322 27.9475 30.4154 27.9475C30.4902 27.9475 30.2908 28.7885 30.1818 29.209C29.8859 29.7696 29.2567 30.8536 29.1072 30.7041C28.9203 30.5172 29.5744 29.4893 29.2941 29.7229C29.0698 29.9098 28.7023 30.3926 28.5466 30.6106C28.4998 30.0967 28.4064 28.9847 28.4064 28.6483C28.4064 28.2279 28.7334 27.9475 29.1072 27.6672Z" fill="#03A9F4"/>
<path d="M31.3031 27.0131C31.191 26.3777 30.6023 25.7205 30.322 25.4713C31.5367 23.6025 30.0884 23.0418 30.4154 23.1353C30.677 23.21 30.7736 23.1041 30.7892 23.0418C31.1629 23.4312 31.9479 24.4341 32.0974 25.3311C32.2842 26.4525 31.9105 27.1533 31.6301 27.8074C31.3498 28.4615 31.4433 27.8074 31.3031 27.0131Z" fill="#03A9F4"/>
<path d="M2.149 8.46469C1.21458 8.7637 0.949828 9.95976 0.934254 10.5204C-0.280494 6.5024 6.68095 6.82945 9.53094 7.10977C11.8109 7.33404 13.5022 6.36224 14.0629 5.8483C14.2498 5.86388 14.7076 5.88568 15.044 5.8483C15.3804 5.81093 16.2432 5.52126 16.6325 5.38109C17.4424 4.33766 19.8096 2.31619 22.7997 2.57783C25.6008 2.82293 26.4066 4.42649 26.4845 5.34523C26.5023 5.42131 26.5017 5.48077 26.4907 5.52126C26.4917 5.46612 26.4897 5.40723 26.4845 5.34523C26.4268 5.09942 26.1764 4.68011 25.4628 4.16635C24.5284 3.49356 23.2358 3.88602 22.7063 4.16635H24.2014C24.5596 4.25979 25.3974 4.68962 25.8833 5.66142C26.3692 6.63322 26.2104 7.7483 26.0702 8.18436C26.0235 7.99748 25.9207 7.52092 25.8833 7.10977C25.8366 6.59584 25.1825 5.14749 22.9866 5.00733C21.2299 4.89519 19.9186 7.42125 19.4825 8.69829C19.2022 9.72615 18.2771 11.9314 16.8194 12.5294C14.9973 13.277 12.7547 12.1089 10.9326 11.922C9.47487 11.7725 8.4252 12.9499 8.08258 13.5573C8.17603 13.1524 8.54979 12.1743 9.29733 11.5016C10.2318 10.6606 11.4465 10.8475 14.4367 11.3614C16.8288 11.7725 18.2366 9.1655 18.6416 7.81059C18.3768 8.10649 17.6698 8.77304 16.9596 9.07206C16.2494 9.37107 14.8571 9.13435 14.2498 8.97862L11.9137 10.3335C11.5867 10.5671 10.185 10.9689 7.19488 10.7073C4.20473 10.4457 2.39818 13.3704 1.86868 14.8655C3.41047 8.79173 7.47521 9.8196 9.76454 9.77288C11.596 9.7355 13.0194 8.54255 13.5022 7.95075C12.2875 8.65157 10.7924 8.65157 10.2318 8.69829C9.6711 8.74501 6.3539 8.23108 5.83997 8.18436C5.32604 8.13764 3.31703 8.09092 2.149 8.46469Z" fill="#EA1E62"/>
<path d="M9.29733 14.8655C11.6521 14.8655 13.7047 14.1802 14.4367 13.8376C11.9137 15.7532 8.45635 15.613 6.96128 15.8933C5.4662 16.1737 3.45719 17.7155 2.66293 19.2105C1.86868 20.7056 1.86868 22.481 2.149 24.3499C2.37326 25.8449 1.58835 26.8105 1.16786 27.1064C1.24573 26.9507 1.46687 26.5271 1.72851 26.0785C1.99015 25.63 1.6195 24.5835 1.40147 24.1163C0.685075 22.7146 -0.224429 19.4161 1.86868 17.4351C4.48506 14.9589 6.3539 14.8655 9.29733 14.8655Z" fill="#EA1E62"/>
<path d="M13.0817 21.8736C14.0162 19.2199 16.2432 18.4007 17.2399 18.3228L17.5202 19.8646C17.0219 20.0204 15.8757 20.5 15.2776 21.1728C14.6796 21.8456 13.8449 23.9761 13.5022 24.9572C12.9727 25.9851 11.3344 28.4613 9.017 30.1433C6.1203 32.2457 4.76538 32.199 5.18587 32.1056C5.60636 32.0121 8.45635 29.5826 9.017 29.022C9.57766 28.4613 11.9137 25.1908 13.0817 21.8736Z" fill="#EA1E62"/>
<path d="M19.7161 22.3408C19.4919 22.2661 19.1866 21.7179 19.062 21.4531C19.2956 22.6212 19.7161 26.499 17.0063 29.7228C14.8385 32.3018 10.4965 32.6351 8.59651 32.4793C8.02029 32.4482 7.54996 32.526 10.2785 33.0867C13.007 33.6474 15.6203 32.7908 16.5858 32.2924C17.4891 31.7629 19.4732 30.2554 20.1833 28.4613C21.071 26.2187 20.744 24.1163 20.744 23.4622C20.744 22.8081 19.9965 22.4343 19.7161 22.3408Z" fill="#EA1E62"/>
<path d="M22.7997 28.1343C22.9119 27.1998 23.5005 25.7515 23.7809 25.1441C22.6596 24.8638 22.3647 30.6572 20.9776 32.2924C19.8679 33.6006 18.5218 33.99 17.9875 34.0211C16.4924 34.1457 13.2873 34.7032 12.4276 35.9367C11.568 37.1701 12.3498 38.4129 12.8481 38.8801C12.7547 38.3818 12.8014 37.1888 13.7358 36.4039C14.9039 35.4228 17.5202 35.2826 18.5481 35.1891C19.576 35.0957 20.744 34.1146 21.6317 32.4793C22.5194 30.8441 22.6596 29.3023 22.7997 28.1343Z" fill="#EA1E62"/>
<path d="M28.2661 29.7228C28.154 28.751 28.3128 27.3867 28.4063 26.8261L28.3999 26.807C28.2659 26.4044 28.256 26.3747 27.612 27.3867C27.0887 28.209 27.2071 30.6572 27.3317 31.7785C27.394 32.1367 27.4345 33.0867 27.0981 34.0211C26.6776 35.1892 24.4817 35.1891 22.7997 34.8621C21.4542 34.6005 20.4014 34.7531 20.0432 34.8621C19.5448 35.0178 18.5761 35.7124 18.6883 37.2449C18.8004 38.7773 20.5104 40.0326 21.3514 40.4686C21.2268 40.3596 20.8188 39.9547 20.1833 39.2072C19.5479 38.4596 19.9186 37.5875 20.1833 37.2449C20.4481 36.9178 21.4261 36.3291 23.2202 36.5908C25.4628 36.9178 26.6776 36.4039 27.8456 35.5629C29.0136 34.7219 28.4063 30.9375 28.2661 29.7228Z" fill="#EA1E62"/>
<path d="M32.7046 23.2753C32.742 22.3035 31.9103 21.5622 31.4899 21.313C31.5989 20.8769 31.9103 20.0889 32.2841 20.4253C32.7513 20.8458 33.0317 21.1728 33.1718 22.5745C33.2839 23.6958 32.8136 24.9728 32.5644 25.4712C32.5956 25.1441 32.6672 24.2471 32.7046 23.2753Z" fill="#EA1E62"/>
<path d="M28.0325 9.77288L28.1259 9.1655L29.0136 8.18436C29.1227 8.35567 29.2005 8.45534 29.2005 8.97862C29.2005 9.50189 28.7645 10.2245 28.5464 10.5204L28.0325 9.77288Z" fill="#EA1E62"/>
<path d="M31.0226 10.3335C30.8358 10.7821 30.3218 11.1122 30.0882 11.2212V12.3893C30.353 12.2335 30.9666 11.7912 31.303 11.268C31.6394 10.7447 31.3808 9.83517 31.2095 9.44583C31.2251 9.55485 31.2095 9.88501 31.0226 10.3335Z" fill="#EA1E62"/>
<path d="M31.5833 11.9688C31.359 12.3425 30.462 12.5606 30.0415 12.6229L29.9013 13.0901C30.0415 13.1368 30.5181 13.1088 31.303 12.6229C32.0879 12.137 32.1595 11.2991 32.0972 10.9409C32.0194 11.1278 31.8076 11.595 31.5833 11.9688Z" fill="#EA1E62"/>
<path d="M15.0442 4.16646C16.3897 4.24121 18.6884 3.35662 19.6696 2.90499C16.4178 2.15745 14.4212 3.34105 13.8294 4.02629C13.6737 4.04187 13.6986 4.0917 15.0442 4.16646Z" fill="#FFC108"/>
<path d="M10.4188 6.82956C11.8017 6.86694 13.113 6.22218 13.5958 5.89514C12.923 5.89514 12.163 5.64596 11.8671 5.52137C11.727 5.64596 10.8393 5.84842 8.40979 5.66153C5.98029 5.47465 5.74668 3.964 5.93357 3.23203L5.69996 4.02629C5.63767 4.47793 5.71865 5.51202 6.54094 6.0353C7.56881 6.68939 8.69011 6.78284 10.4188 6.82956Z" fill="#FFC108"/>
<path d="M10.4188 13.7443C11.428 13.7443 12.8016 13.0902 13.3622 12.7631C13.8481 12.95 15.122 12.9967 15.6983 12.9967C15.3868 13.1992 14.3621 13.7256 12.7548 14.2115C10.7458 14.8189 9.39093 14.6787 7.38192 14.5853C5.77472 14.5105 4.06472 15.4574 3.41063 15.9402C3.4885 15.8 3.73768 15.3889 4.11145 14.8656C4.57866 14.2115 5.18603 13.9312 5.84013 13.7443C6.49422 13.5574 9.15732 13.7443 10.4188 13.7443Z" fill="#FFC108"/>
<path d="M3.97128 20.2385C4.41981 17.8464 5.59095 16.7189 6.12045 16.4541C2.2426 18.3229 2.009 21.2197 2.38277 23.6492C2.68178 25.5927 2.13359 27.1065 1.82211 27.6204C2.009 27.6516 2.55096 27.3308 3.22375 25.7983C4.06472 23.8828 3.41063 23.2287 3.97128 20.2385Z" fill="#FFC108"/>
<path d="M13.3622 18.9303C14.5957 19.0051 15.5893 18.1828 15.9319 17.7623C15.3712 19.0705 13.8294 19.491 13.5024 19.5377C13.1753 19.5844 12.5212 19.5844 10.7458 21.6401C9.32552 23.2847 9.31306 25.9073 9.48437 27.0131C9.23519 26.5614 8.73683 25.5647 8.73683 25.1909C8.73683 24.7237 8.45651 23.1819 9.29749 21.6401C10.1385 20.0983 11.8204 18.8369 13.3622 18.9303Z" fill="#FFC108"/>
<path d="M21.4917 25.1909C21.9776 24.107 23.0646 24.0541 23.5474 24.1631C21.3515 25.4246 22.2859 26.2655 21.2581 29.1155C20.2302 31.9655 18.8753 32.8999 17.5204 33.6942C16.1655 34.4884 11.5868 34.395 9.67125 34.6286C7.75569 34.8622 8.12946 37.0581 5.93357 38.086C4.17686 38.9083 2.8344 38.4909 2.38277 38.1794H3.73768C4.43849 38.1794 5.41964 37.245 5.88685 36.5909C6.35406 35.9368 7.47536 34.3483 8.12946 33.6942C8.78355 33.0401 11.5868 33.4139 13.5024 33.554C15.4179 33.6942 16.1655 33.3671 16.7261 33.1803C17.2868 32.9934 16.9597 32.7598 16.3991 32.8532C15.8384 32.9467 16.1655 32.6663 16.5393 32.5729C16.913 32.4794 17.5204 31.9188 18.2679 31.3581C18.866 30.9096 18.8597 31.1712 18.7819 31.3581C19.0466 31.0311 19.5201 30.5172 19.2958 31.0778C19.0155 31.7786 19.5761 31.1245 19.7163 30.8442C19.8565 30.5639 20.5105 29.4426 20.604 28.695C20.6974 27.9475 20.8843 26.5459 21.4917 25.1909Z" fill="#FFC108"/>
<path d="M29.808 30.2835C30.1818 29.6481 30.4933 28.7418 30.6023 28.368C30.4621 32.1524 29.4343 32.8532 29.0138 33.554C28.6774 34.1147 28.6556 33.8811 28.6867 33.6942V31.9188C28.6867 31.4049 29.3408 31.0778 29.808 30.2835Z" fill="#FFC108"/>
<path d="M31.6302 14.2115C31.5554 14.062 30.7892 13.5262 30.4154 13.2771C30.8826 13.0435 32.4244 13.4172 31.817 13.5107C31.2097 13.6041 31.4433 13.7443 31.817 14.0246C32.1908 14.3049 32.331 15.0057 32.4244 15.3328C32.5179 15.6598 32.1908 16.5943 32.0974 16.4541C32.0039 16.3139 31.7703 15.5664 31.817 15.3328C31.8638 15.0992 31.7236 14.3984 31.6302 14.2115Z" fill="#FFC108"/>
<path d="M5.60653 8.79143C5.75604 9.01569 5.35735 9.13405 5.13932 9.1652C3.50408 9.35208 2.70982 10.0996 1.96229 10.2865C1.21475 10.4734 1.68196 9.63241 1.96229 9.1652C2.24261 8.69799 3.03687 8.32422 3.50408 8.32422C3.97129 8.32422 5.41965 8.5111 5.60653 8.79143Z" fill="#9B28B0"/>
<path d="M8.36308 12.1086C8.25095 12.3329 8.03603 12.2644 7.94259 12.2021C4.48522 11.7816 4.01801 14.8185 2.80327 16.2668C1.83147 17.4255 0.529506 17.1234 0 16.8275C0.109016 16.8586 0.457867 16.9022 0.981143 16.8275C1.63524 16.734 2.10245 15.9398 2.70982 15.1922C3.3172 14.4447 3.50408 13.3234 4.57867 12.3422C5.65325 11.3611 7.33521 11.6881 7.66226 11.6881C7.98931 11.6881 8.50324 11.8283 8.36308 12.1086Z" fill="#9B28B0"/>
<path d="M10.7459 18.2291C11.3813 18.2665 12.6614 17.9332 13.2221 17.7619C11.6803 18.6963 13.7827 17.7619 14.0163 17.8553C14.2499 17.9488 13.6893 18.2291 13.2221 18.4627C12.7549 18.6963 12.2409 18.6496 10.9327 19.4438C9.62455 20.2381 9.01717 21.4996 8.59668 21.9668C8.17619 22.434 8.78357 21.0791 8.6434 21.0324C8.50324 20.9856 7.66226 22.0602 7.56882 21.8266C7.47538 21.593 8.78357 19.9578 8.59668 19.9578C8.4098 19.9578 7.14833 21.4528 7.05488 21.3127C6.96144 21.1725 7.94259 20.1914 7.94259 19.9578C7.94259 19.7242 7.47538 20.1447 6.68112 20.9389C6.04571 21.5743 6.04259 21.2037 6.12046 20.9389C6.18276 20.6742 6.50358 20.0045 7.28849 19.4438C8.26963 18.743 9.95159 18.1824 10.7459 18.2291Z" fill="#9B28B0"/>
<path d="M15.6983 21.4996C15.9599 21.1258 16.3991 21.2192 16.586 21.3127C17.3335 21.2733 16.8196 22.3873 17.0532 22.1069C17.2868 21.8266 17.4737 21.3127 17.5671 21.4996C17.6606 21.6865 17.4737 22.2004 17.0532 23.602C16.6327 25.0036 15.5114 26.5454 14.7171 27.3397C13.9229 28.134 14.1565 27.6668 14.2032 27.3397C14.2499 27.0127 13.2221 28.2274 12.9417 28.4143C12.6614 28.6012 12.3811 28.5077 12.6147 28.0872C12.8483 27.6668 12.0073 28.3208 12.0073 28.0872C12.0073 27.8536 12.4745 27.1995 12.9417 26.7323C13.409 26.2651 13.6893 25.1905 13.8762 25.0036C14.063 24.8168 14.577 23.5553 14.7171 23.1348C14.8573 22.7143 15.3712 21.9668 15.6983 21.4996Z" fill="#9B28B0"/>
<path d="M5.55981 29.0684C5.97096 28.3582 7.53767 27.4954 8.26963 27.1528C8.26963 27.2463 7.28849 29.0684 7.05488 29.2085C6.82128 29.3487 6.26063 29.9094 6.12046 30.3299C6.00833 30.6662 5.35735 31.0618 5.04588 31.2176C5.04588 30.7971 5.14866 29.7785 5.55981 29.0684Z" fill="#9B28B0"/>
<path d="M5.65325 32.4323L5.23276 32.5725C5.65325 34.8151 5.88686 34.0208 5.65325 33.5536C5.46637 33.1798 5.57538 32.6503 5.65325 32.4323Z" fill="#9B28B0"/>
<path d="M22.0056 26.7323C22.043 26.3959 22.3638 26.5922 22.5196 26.7323C21.9614 30.8257 20.7548 32.233 20.4676 32.5681L20.4638 32.5725C20.1835 32.8995 19.7163 33.1331 19.7163 32.9462C19.7163 32.7593 19.8097 32.7126 19.2491 32.9462C18.6884 33.1798 19.1556 32.7593 19.7163 32.2454C20.277 31.7315 20.7909 30.7036 21.3048 29.5823C21.8122 28.4752 21.9553 27.1859 22.0038 26.7487L22.0056 26.7323Z" fill="#9B28B0"/>
<path d="M23.4073 26.8725C23.482 26.4987 23.7499 26.7168 23.8745 26.8725C23.6876 27.0127 23.4073 28.0872 23.4073 28.5545C23.4073 29.0217 23.1737 30.3299 23.0335 30.8438C22.8933 31.3577 22.5196 31.8249 22.3794 31.9184C22.2392 32.0118 22.286 31.5446 22.5196 30.8438C22.7532 30.143 22.9401 28.9282 23.0335 28.2274C23.1269 27.5266 23.3138 27.3397 23.4073 26.8725Z" fill="#9B28B0"/>
<path d="M26.8179 30.8438C27.1543 29.9841 26.9581 28.2741 26.8179 27.5266C26.7058 31.4512 24.4351 33.7405 23.3138 34.3946C23.8122 34.161 24.9023 33.6097 25.2761 33.2733C25.7433 32.8528 26.3974 31.9184 26.8179 30.8438Z" fill="#9B28B0"/>
<path d="M15.3712 35.8429C15.8945 35.6561 17.9565 35.4536 18.922 35.3757C18.6604 35.6374 18.5016 36.1077 18.4548 36.3102C18.3147 36.2946 17.7447 36.2728 16.586 36.3102C15.4273 36.3475 13.8606 37.0421 13.2221 37.3847L13.8762 36.6372C14.1565 36.4503 14.848 36.0298 15.3712 35.8429Z" fill="#9B28B0"/>
<path d="M8.22298 8.884C10.204 8.92137 11.6959 8.74383 12.1943 8.65039C10.7459 9.91186 9.29756 9.49137 7.14839 9.53809C4.99922 9.58481 3.55087 10.8463 2.70989 12.0143C1.86891 13.1823 1.68203 15.1446 1.58858 15.6118C1.49514 16.079 0.934489 16.3454 0.654163 16.4388C0.373836 16.5323 0.794326 16.079 0.794326 15.6118C0.794326 15.1939 0.654162 14.4739 0.654163 14.0561C0.654163 13.1216 1.04255 13.08 1.16809 12.2012C1.30826 11.2201 1.58858 10.8663 2.19596 10.5192C3.1771 9.95858 5.74676 8.83727 8.22298 8.884Z" fill="#8BC44A"/>
<path d="M6.21397 10.893C6.99889 10.7809 8.81478 10.9397 9.62461 11.0332C9.4751 11.0332 8.90822 11.5315 8.64347 11.7807C8.22298 11.6561 7.1484 11.4256 6.21397 11.5004C5.04595 11.5938 3.92464 12.2479 3.27054 13.743C2.74727 14.939 2.08694 15.6118 1.82219 15.7987C1.88448 15.5651 2.04645 14.9951 2.19596 14.584C2.38284 14.07 2.99022 13.0889 3.50415 12.4815C4.01808 11.8741 5.23283 11.0332 6.21397 10.893Z" fill="#8BC44A"/>
<path d="M5.93365 12.6217C6.34479 12.4348 7.03938 12.4504 7.33528 12.4815C6.88676 12.7058 7.27298 13.2291 7.52216 13.4627H6.07381C5.74676 13.4627 5.70004 13.2758 5.65332 13.1356C5.61594 13.0235 5.13939 13.3069 4.90578 13.4627C5.07709 13.2602 5.5225 12.8086 5.93365 12.6217Z" fill="#8BC44A"/>
<path d="M10.6058 12.2012C10.4189 12.2386 9.46887 12.5905 9.01724 12.7618C8.50331 13.2291 9.01724 13.4627 9.62461 13.4627H11.0262C11.4467 13.4627 11.6336 13.1356 11.4467 12.8553C11.2599 12.575 10.8394 12.1545 10.6058 12.2012Z" fill="#8BC44A"/>
<path d="M15.7918 16.079C16.502 15.481 16.4303 14.6151 16.3057 14.2569C13.0353 16.7331 11.4467 15.7987 8.64347 16.6397C5.8402 17.4807 4.62546 19.3028 4.39185 20.938C4.20497 22.2462 4.96808 23.57 5.37299 24.0684V22.8069C5.37299 22.4705 5.55988 21.7634 5.65332 21.452C5.79348 21.0003 6.27004 19.9382 7.05495 19.3028C8.03609 18.5085 9.8115 17.8077 11.4467 17.8544C13.082 17.9012 14.9041 16.8266 15.7918 16.079Z" fill="#8BC44A"/>
<path d="M8.64347 26.2175C8.64347 26.1054 8.51888 25.8905 8.45658 25.797C4.7189 26.1241 3.27054 28.2265 3.1771 30.7027C3.10235 32.6837 4.14267 34.7986 4.67218 35.6085C4.57873 34.6429 4.41054 32.4968 4.48529 31.6372C4.57873 30.5626 4.57873 29.9552 5.37299 28.6003C6.0084 27.5164 7.69347 26.9962 8.45658 26.8716C8.51888 26.7003 8.64347 26.3297 8.64347 26.2175Z" fill="#8BC44A"/>
<path d="M26.5376 33.0388C26.6498 32.9267 26.927 32.3068 27.0516 32.0109C27.3319 33.6929 26.5376 34.2535 25.977 34.4404C25.538 34.5868 24.3768 34.6257 23.8166 34.6273C23.8005 34.6294 23.7888 34.6292 23.7811 34.6273C23.7927 34.6273 23.8045 34.6273 23.8166 34.6273C23.932 34.612 24.2746 34.4789 24.9958 34.0199C26.0237 33.3658 26.1172 32.4781 26.1172 32.8052C26.1172 33.1322 26.3975 33.179 26.5376 33.0388Z" fill="#8BC44A"/>
<path d="M30.1352 25.7036C30.0604 25.6288 29.8548 25.9528 29.7614 26.1241C30.8453 26.9464 31.054 29.1765 31.0229 30.1888C31.0852 29.6282 31.1724 28.2826 31.0229 27.3855C30.836 26.2642 30.2286 25.797 30.1352 25.7036Z" fill="#8BC44A"/>
<path d="M31.2098 21.5454C31.163 21.6389 30.5557 22.4331 30.4622 22.4798C32.032 23.6385 32.3311 25.1118 32.2843 25.7036C32.3311 25.5479 32.4432 24.9841 32.5179 23.9749C32.6114 22.7134 31.8171 21.9192 31.6302 21.6856C31.4434 21.452 31.2565 21.452 31.2098 21.5454Z" fill="#8BC44A"/>
<path d="M26.8178 10.1926C26.4815 10.1926 25.899 9.81888 25.6498 9.63199C25.276 9.38869 25.3072 8.84537 25.3695 8.60413H25.6498C28.3908 6.20578 33.9662 1.34367 34.3399 1.08203C34.7137 0.820393 34.6826 1.0976 34.6203 1.26892L27.2383 9.81888C27.2383 9.94347 27.1542 10.1926 26.8178 10.1926Z" fill="white"/>
<path d="M22.7532 12.2477C22.7532 12.6347 22.4394 12.9485 22.0524 12.9485C21.6653 12.9485 21.3516 12.6347 21.3516 12.2477C21.3516 11.8606 21.6653 11.5469 22.0524 11.5469C22.4394 11.5469 22.7532 11.8606 22.7532 12.2477Z" fill="#03A9F4"/>
<path d="M29.2941 12.4813C29.2941 12.6877 29.1268 12.8551 28.9204 12.8551C28.714 12.8551 28.5466 12.6877 28.5466 12.4813C28.5466 12.2749 28.714 12.1075 28.9204 12.1075C29.1268 12.1075 29.2941 12.2749 29.2941 12.4813Z" fill="#03A9F4"/>
<path d="M19.9965 14.3978C19.6975 14.1736 19.0621 14.3044 18.7818 14.3978C19.9965 14.5847 19.9965 14.8183 19.576 15.1921C19.1556 15.5659 19.5293 15.6593 19.7629 15.6593C19.9965 15.6593 20.2301 15.3323 20.6039 15.6593C20.9777 15.9863 20.9777 16.0331 21.258 15.6593C21.4823 15.3603 21.8187 14.9741 21.9588 14.8183C22.1769 14.8806 22.6503 14.9678 22.7998 14.8183C22.9867 14.6314 23.3605 15.0519 23.1736 15.6593C22.9867 16.2667 22.6596 16.3601 22.1924 17.0142C21.7252 17.6683 21.6785 18.3691 21.5851 18.7429C21.4916 19.1167 20.9777 19.6773 20.9777 20.3781C20.9777 21.0789 21.3982 21.4527 22.426 22.1535C23.4539 22.8544 24.3883 22.4806 24.9957 22.4806C25.6031 22.4806 25.4162 22.6675 25.8367 22.9945C26.2572 23.3216 26.8645 22.8076 26.6777 23.2748C26.4908 23.7421 26.8645 23.4617 27.4719 23.4617C28.0793 23.4617 27.8457 23.6486 28.2194 24.0691C28.5932 24.4896 28.9203 23.7421 29.2006 23.4617C29.4809 23.1814 28.9203 23.2748 28.5465 23.2748C28.1727 23.2748 28.2194 22.8076 27.8457 22.4806C27.4719 22.1535 27.285 22.5273 26.8645 22.4806C26.444 22.4339 25.8834 22.2003 26.5375 21.9199C27.1916 21.6396 28.3129 21.733 29.2006 21.9199C30.0883 22.1068 30.4621 22.1535 30.0883 21.6396C29.9469 21.4451 29.2473 21.0789 28.9203 21.0322C28.7134 21.0027 27.8867 20.957 27.5186 20.8921C26.7244 20.7519 26.444 20.8453 26.0703 20.9388C25.7801 21.0113 25.8367 20.9388 24.9957 21.2658C24.1547 21.5929 23.1736 21.406 22.7998 21.733C22.426 22.0601 22.2391 21.7798 21.9588 20.9388C21.6785 20.0978 21.8654 19.7708 21.9588 18.7429C22.0523 17.715 23.1736 16.7806 23.1736 16.5937C23.1736 16.4068 23.4072 15.6126 23.5941 15.3323C23.7809 15.0519 23.6875 14.8183 23.5941 14.3978C23.5006 13.9773 22.5662 13.6503 22.426 13.9306C22.2859 14.2109 21.9588 14.5847 21.3982 14.8183C20.8375 15.0519 20.3703 14.6782 19.9965 14.3978Z" fill="white"/>
<path d="M30.6022 14.6782C30.5409 14.6911 30.4624 14.7027 30.3728 14.7096C29.9048 14.8555 30.0658 15.4556 29.9014 15.3323C29.7145 15.1921 29.3875 15.8929 29.4342 16.2667C29.4809 16.6404 29.9014 16.1265 29.9014 16.2667C29.9014 16.4068 29.7145 17.2478 29.6678 16.8273C29.6211 16.4068 28.9203 16.2667 27.8457 15.8929C26.7711 15.5191 26.6777 14.6782 26.6777 14.3978C26.6777 14.1175 27.0981 13.9306 27.4719 14.3978C27.8457 14.865 27.8457 14.3978 28.2194 14.2109C28.5932 14.0241 28.6867 13.9306 29.2006 14.3978C29.5265 14.6941 30.0305 14.736 30.3728 14.7096C30.4368 14.6896 30.5124 14.6782 30.6022 14.6782Z" fill="white"/>
<path d="M31.0694 14.8183C31.1816 14.8183 31.3653 14.7249 31.4432 14.6782C31.7422 14.6782 31.5678 15.0208 31.4432 15.1921C31.3186 15.2855 31.0694 15.5565 31.0694 15.8929C31.0694 16.2293 30.5399 16.3757 30.2752 16.4068C30.2752 16.2355 30.3406 15.8462 30.6022 15.6593C30.9293 15.4257 30.9293 14.8183 31.0694 14.8183Z" fill="white"/>
<path d="M28.3063 25.7218C28.6045 25.5663 29.0168 24.8572 29.2006 24.4896C29.2006 25.1437 29.6678 24.0691 29.6678 24.2093C29.6678 24.3494 29.4342 24.9101 29.2006 25.2838C29.055 25.5168 28.5647 25.659 28.3063 25.7218C28.2761 25.7375 28.247 25.7476 28.2194 25.7511C28.0786 25.7687 28.1501 25.7597 28.3063 25.7218Z" fill="white"/>
<path d="M17.3802 12.9028C17.6418 12.6785 18.0187 12.4978 18.1744 12.4355C18.1277 12.4978 17.9969 12.7065 17.8474 13.0429C17.6605 13.4634 18.0343 13.1364 17.8474 13.9306C17.6605 14.7249 17.8474 14.2109 18.0343 14.3978C18.2211 14.5847 17.8006 15.3323 17.8474 15.1921C17.8941 15.0519 17.6138 14.8183 17.3802 14.8183C17.1465 14.8183 17.1933 14.3978 17.3802 13.9306C17.567 13.4634 17.5203 13.3232 17.1933 13.5101C16.8662 13.697 17.0531 13.1831 17.3802 12.9028Z" fill="white"/>
<path d="M17.6605 17.9019C17.6605 17.5281 17.9097 17.0298 18.0343 16.8273C18.081 16.9675 18.1744 17.4254 18.1744 18.1355C18.1744 19.0232 18.7818 18.8831 18.7818 19.1634V20.0511C18.6883 19.9265 18.4361 19.6306 18.1744 19.4437C17.8474 19.2101 17.6605 18.3691 17.6605 17.9019Z" fill="white"/>
<path d="M19.249 18.3691C19.1369 18.0701 18.9842 17.3413 18.922 17.0142C19.0621 16.5937 19.249 16.8273 19.249 17.4347C19.249 18.0421 19.3892 18.7429 19.249 18.3691Z" fill="white"/>
<path d="M25.276 23.6486C25.0518 23.7981 24.5596 23.8666 24.3416 23.8822C24.8555 24.3027 25.276 23.8822 25.6965 23.6486C26.117 23.415 25.5563 23.4617 25.276 23.6486Z" fill="white"/>
<path d="M26.6777 24.2093C26.5281 24.4709 26.0547 24.5052 25.8367 24.4896C26.3589 25.097 26.8645 24.4896 27.0981 24.0691C27.3317 23.6486 26.8645 23.8822 26.6777 24.2093Z" fill="white"/>
<path d="M23.1736 18.3691C23.1736 18.0701 23.6719 17.6216 23.9211 17.4347C24.2482 17.1543 24.3416 17.4347 23.9211 17.9019C23.5006 18.3691 23.9211 18.3691 23.5941 18.7429C23.267 19.1167 23.5941 19.6773 23.4072 19.6306C23.2203 19.5839 23.1736 19.1634 23.4072 18.7429C23.6408 18.3224 23.1736 18.7429 23.1736 18.3691Z" fill="white"/>
<path d="M24.6219 14.2109C24.8462 14.2109 25.3383 13.7437 25.5563 13.5101C26.2572 13.5101 24.6219 14.8183 24.9957 14.8183C25.3695 14.8183 24.9957 15.6593 24.8555 15.6593C24.7154 15.6593 24.9957 15.3323 24.6219 15.3323C24.2482 15.3323 24.3416 15.1921 24.3416 15.0052C24.3416 14.8183 24.7621 14.6782 24.3416 14.8183C23.9211 14.9585 24.3416 14.2109 24.6219 14.2109Z" fill="white"/>
<path d="M27.4719 13.7437C27.3224 13.5942 27.1604 13.5257 27.0981 13.5101C27.5186 13.2765 28.0793 13.5101 28.0326 13.5101C27.9858 13.5101 27.6588 13.9306 27.4719 13.7437Z" fill="white"/>
<path d="M31.4431 19.1623C32.0661 19.3648 34.2371 19.8678 34.5735 20.1295M31.4431 18.1344C32.0194 18.1344 35.0594 18.4989 35.5079 18.6484M31.2563 17.1533C31.7391 16.9353 35.592 16.4618 36.8628 16.3123M31.1628 16.3123L31.7702 15.9853M32.6579 15.6582L35.5079 14.9574M26.7243 16.3123C26.3661 15.9541 25.5937 15.1817 25.3694 14.9574M24.3883 14.1631L23.8276 13.8828M25.7899 16.6861C25.603 16.4992 25.1825 16.0974 24.9956 15.9853M25.7899 17.6672C25.4006 17.4648 24.3976 16.9851 23.5006 16.6861M22.1924 16.4992C21.8653 16.4992 21.1178 16.4992 20.744 16.4992M24.9956 18.4615C24.7153 18.3213 24.1079 18.3213 24.0145 18.3213M22.9399 18.4615L22.3325 18.6484" stroke="white" stroke-width="0.186884" stroke-linejoin="round"/>
<path d="M29.808 18.2607C29.9575 18.485 30.0572 18.7591 30.0883 18.8681C29.917 19.0705 29.5464 19.4661 29.4342 19.4287C29.3221 19.3914 29.3875 18.7279 29.4342 18.4009C29.3252 18.6968 29.0979 19.2792 29.0605 19.2419C29.0231 19.2045 29.0761 18.6656 29.1072 18.4009C29.0138 18.5255 28.8082 18.7933 28.7334 18.8681C28.64 18.9615 28.5933 18.6345 28.5933 18.4943C28.5933 18.3542 28.6867 18.214 29.1072 17.9804C29.5277 17.7468 29.6211 17.9804 29.808 18.2607Z" fill="white"/>
<path d="M29.9482 20.6902C29.9482 20.8771 29.7924 20.7681 29.7146 20.6902C27.8924 20.1296 27.6121 20.223 27.3785 20.1763C27.1916 20.1389 27.3006 20.005 27.3785 19.9427C27.5343 19.7558 27.8738 19.382 27.9859 19.382C28.098 19.382 28.0326 19.7558 27.9859 19.9427C28.0793 19.7714 28.2943 19.4287 28.4064 19.4287C28.5185 19.4287 28.5777 19.8337 28.5933 20.0361C28.6088 19.896 28.668 19.5969 28.7802 19.5222C28.8923 19.4474 28.9515 19.8337 28.967 20.0361C29.0138 19.896 29.1352 19.6343 29.2474 19.7091C29.3595 19.7838 29.4187 20.1451 29.4342 20.3164C29.5277 20.1296 29.7613 19.6904 29.9482 19.4287C30.1351 19.1671 30.1195 19.3197 30.0883 19.4287C30.0416 19.7714 29.9482 20.5033 29.9482 20.6902Z" fill="white"/>
<path d="M29.4343 17.6069C29.5838 17.5695 29.7147 17.7782 29.7614 17.8872C29.8789 18.0741 30.0417 18.4011 30.1819 18.4011C30.322 18.4011 30.0884 17.6069 29.8548 17.3733C29.6212 17.1397 29.4343 17.3733 29.2007 17.3733C28.9671 17.3733 28.3598 17.7003 28.1262 17.9807C27.8925 18.261 27.4253 19.1954 26.6311 19.8028C25.8368 20.4101 26.2106 20.27 26.5376 20.2233C26.8647 20.1765 27.145 19.8962 27.2852 19.7093C27.4253 19.5224 27.986 18.8684 28.1262 18.5413C28.2663 18.2143 29.2475 17.6536 29.4343 17.6069Z" fill="white"/>
<path d="M27.7991 11.3135C27.6496 11.0893 27.1762 10.9709 26.9581 10.9397C27.2571 10.3417 27.6434 10.566 27.7991 10.7529C28.0639 10.7529 28.5934 10.8276 28.5934 11.1266C28.5934 11.5004 29.6679 11.3135 29.8548 11.3135C30.0417 11.3135 29.8081 12.6684 29.6679 12.8553C29.5278 13.0422 29.4343 12.1078 29.2475 11.9209C29.0606 11.734 28.9204 11.9209 28.5934 11.9209C28.2663 11.9209 27.986 11.5938 27.7991 11.3135Z" fill="white"/>
<path d="M22.0524 8.37009C22.3888 8.48222 23.1581 8.94631 23.5008 9.16435C24.0147 9.38238 25.1173 10.0801 25.4163 11.1266C25.7901 12.4348 25.1827 12.8553 24.5286 12.9955C23.8745 13.1356 23.1737 12.2479 22.9401 11.9209C22.7065 11.5938 22.3795 11.3135 22.0524 11.3135C21.7254 11.3135 21.4918 10.7529 20.7909 10.5193C20.0901 10.2857 20.277 10.7529 20.9778 11.1266C21.6786 11.5004 21.5385 11.4537 21.2582 11.4537C20.9778 11.4537 20.5573 11.1266 20.277 10.9397C19.9967 10.7529 19.7164 11.1266 20.1368 11.3135C20.5573 11.5004 20.8844 11.3135 20.5573 11.9209C20.2303 12.5283 20.1368 12.0611 19.4827 12.2479C18.9595 12.3974 18.4549 11.9365 18.268 11.6873C18.4393 11.3758 18.838 10.7061 19.0623 10.5193C19.3426 10.2857 19.5762 9.16435 19.7164 9.16435C19.8565 9.16435 20.1368 9.16435 20.1368 8.65041C20.1368 8.13648 20.6975 8.55697 21.2582 8.65041C21.8188 8.74386 21.6319 8.22992 22.0524 8.37009Z" fill="white"/>
<path d="M23.5008 16.1258C23.5008 15.9389 23.7188 15.6119 23.8278 15.4717C23.9991 15.5184 24.3417 15.6492 24.3417 15.7987C24.3417 15.9856 23.5008 16.3594 23.5008 16.1258Z" fill="white"/>
<path d="M16.4926 13.2758C16.2901 13.3848 15.8946 13.6309 15.9319 13.743C15.9787 13.8832 16.4926 13.8832 16.4926 13.2758Z" fill="white"/>
<path d="M16.4926 16.6397C16.4926 16.266 16.586 15.6742 16.6328 15.425C16.7729 17.6676 16.7262 16.2192 16.9598 17.2004C17.1934 18.1815 17.4737 16.7332 17.427 17.2938C17.3803 17.8545 17.0533 18.1815 16.9598 17.9479C16.8664 17.7143 16.6328 17.6209 16.4926 17.7143C16.3524 17.8077 16.4926 17.1069 16.4926 16.6397Z" fill="white"/>
<path d="M18.2213 20.7512C18.1465 20.5643 17.8475 20.2684 17.7073 20.1438C17.8475 19.8168 18.2213 20.1438 18.4549 20.7512C18.6885 21.3585 18.9221 21.0315 18.9688 21.1717C19.0155 21.3118 18.8287 21.6856 18.7352 21.5922C18.6418 21.4987 18.3147 20.9848 18.2213 20.7512Z" fill="white"/>
<path d="M21.445 23.5077C21.2208 23.3582 20.6975 22.7913 20.4639 22.5266C20.6975 22.5266 21.9122 23.3208 22.0524 23.6479C22.1926 23.9749 22.3795 23.6946 22.8934 23.8348C23.4073 23.9749 22.4729 24.0217 22.2393 24.0217C22.0057 24.0217 21.7254 23.6946 21.445 23.5077Z" fill="white"/>
<path d="M23.3139 24.8159L23.7811 24.4421C23.454 24.7692 23.7811 24.8159 24.295 24.8159C24.809 24.8159 25.1827 24.5823 24.9491 24.8159C24.7155 25.0495 24.295 25.0495 24.809 25.0495C25.3229 25.0495 25.6967 25.0495 25.1827 25.2364C24.6688 25.4233 25.3229 25.5167 25.1827 25.6102C25.0426 25.7036 24.1081 25.7971 24.4819 25.6102C24.8557 25.4233 24.5753 25.3766 24.295 25.2364C24.078 25.1279 24.309 25.0474 24.3377 25.0382C24.3324 25.0398 24.3191 25.0435 24.295 25.0495C24.1455 25.0869 23.5786 24.9094 23.3139 24.8159Z" fill="white"/>
<path d="M25.8835 26.4511C25.8462 26.1895 25.6811 26.0618 25.6032 26.0307C26.0144 26.0307 26.1171 26.4667 26.1171 26.6848C26.2729 26.4044 26.6311 25.9185 26.818 26.2175C27.0048 26.5166 27.363 26.4979 27.5188 26.4511C27.9393 26.2175 28.7802 25.8625 28.7802 26.311C28.7802 26.8716 29.154 26.2175 29.3409 26.1241C29.5278 26.0307 29.3409 26.6848 29.0139 26.9184C28.6868 27.152 28.6401 26.9184 28.6868 26.6848C28.7335 26.4511 28.313 26.2643 28.0327 26.4511C27.7524 26.638 27.4721 26.7782 27.0983 26.7782C26.7245 26.7782 26.9114 26.7315 26.818 26.4511C26.7245 26.1708 26.4442 26.638 26.2573 26.9184C26.0704 27.1987 25.9303 26.7782 25.8835 26.4511Z" fill="white"/>
<path d="M32.0974 19.6299C32.0663 19.8012 32.0227 20.1438 32.0974 20.1438C32.1909 20.1438 32.2843 19.77 32.0974 19.6299Z" fill="white"/>
<path d="M30.836 17.2798C30.836 17.3572 30.7732 17.42 30.6958 17.42C30.6184 17.42 30.5556 17.3572 30.5556 17.2798C30.5556 17.2024 30.6184 17.1397 30.6958 17.1397C30.7732 17.1397 30.836 17.2024 30.836 17.2798Z" fill="white"/>
<path d="M31.1163 17.9807C31.1163 18.0839 31.0326 18.1675 30.9294 18.1675C30.8262 18.1675 30.7425 18.0839 30.7425 17.9807C30.7425 17.8774 30.8262 17.7938 30.9294 17.7938C31.0326 17.7938 31.1163 17.8774 31.1163 17.9807Z" fill="white"/>
<path d="M31.2097 19.0085C31.2097 19.1117 31.1261 19.1954 31.0229 19.1954C30.9196 19.1954 30.836 19.1117 30.836 19.0085C30.836 18.9053 30.9196 18.8216 31.0229 18.8216C31.1261 18.8216 31.2097 18.9053 31.2097 19.0085Z" fill="white"/>
<path d="M25.6967 18.6347C25.6967 18.738 25.613 18.8216 25.5098 18.8216C25.4066 18.8216 25.3229 18.738 25.3229 18.6347C25.3229 18.5315 25.4066 18.4479 25.5098 18.4479C25.613 18.4479 25.6967 18.5315 25.6967 18.6347Z" fill="white"/>
<path d="M26.5376 17.8872C26.5376 17.9904 26.454 18.0741 26.3507 18.0741C26.2475 18.0741 26.1639 17.9904 26.1639 17.8872C26.1639 17.784 26.2475 17.7003 26.3507 17.7003C26.454 17.7003 26.5376 17.784 26.5376 17.8872Z" fill="white"/>
<path d="M27.2852 17.0462C27.2852 17.1494 27.2015 17.2331 27.0983 17.2331C26.9951 17.2331 26.9114 17.1494 26.9114 17.0462C26.9114 16.943 26.9951 16.8593 27.0983 16.8593C27.2015 16.8593 27.2852 16.943 27.2852 17.0462Z" fill="white"/>
<path d="M54.8107 17.197C54.9391 17.197 55.0501 17.2437 55.1435 17.3371C55.237 17.4305 55.2837 17.5415 55.2837 17.67V19.527C55.2837 19.6555 55.237 19.7664 55.1435 19.8598C55.0501 19.9533 54.9391 20 54.8107 20H46.6993C46.5709 20 46.4599 19.9533 46.3665 19.8598C46.273 19.7664 46.2263 19.6555 46.2263 19.527V8.20969C46.2263 8.08122 46.273 7.97027 46.3665 7.87683C46.4599 7.7834 46.5709 7.73668 46.6993 7.73668H48.9943C49.1228 7.73668 49.2338 7.7834 49.3272 7.87683C49.4206 7.97027 49.4674 8.08122 49.4674 8.20969V17.197H54.8107ZM59.9035 15.2348H64.9139C65.0424 15.2348 65.1534 15.1881 65.2468 15.0947C65.3402 15.0012 65.3869 14.8903 65.3869 14.7618V12.9048C65.3869 12.7763 65.3402 12.6654 65.2468 12.5719C65.1534 12.4785 65.0424 12.4318 64.9139 12.4318H59.9035V10.5397H65.2994C65.4278 10.5397 65.5388 10.493 65.6322 10.3996C65.7256 10.3061 65.7724 10.1952 65.7724 10.0667V8.20969C65.7724 8.08122 65.7256 7.97027 65.6322 7.87683C65.5388 7.7834 65.4278 7.73668 65.2994 7.73668H57.1355C57.007 7.73668 56.8961 7.7834 56.8026 7.87683C56.7092 7.97027 56.6625 8.08122 56.6625 8.20969V19.527C56.6625 19.6555 56.7092 19.7664 56.8026 19.8598C56.8961 19.9533 57.007 20 57.1355 20H65.4395C65.568 20 65.6789 19.9533 65.7724 19.8598C65.8658 19.7664 65.9125 19.6555 65.9125 19.527V17.67C65.9125 17.5415 65.8658 17.4305 65.7724 17.3371C65.6789 17.2437 65.568 17.197 65.4395 17.197H59.9035V15.2348ZM72.9828 7.56149C74.0924 7.56149 75.0501 7.77172 75.8559 8.19218C76.6618 8.61263 77.2808 9.18492 77.7129 9.90904C78.1568 10.6215 78.402 11.4215 78.4487 12.3091C78.4721 12.6362 78.4838 13.1617 78.4838 13.8859C78.4838 14.5983 78.4721 15.1122 78.4487 15.4275C78.402 16.3152 78.1568 17.121 77.7129 17.8452C77.2808 18.5576 76.6618 19.124 75.8559 19.5445C75.0501 19.965 74.0924 20.1752 72.9828 20.1752C71.8733 20.1752 70.9156 19.965 70.1097 19.5445C69.3038 19.124 68.679 18.5576 68.2352 17.8452C67.803 17.121 67.5636 16.3152 67.5169 15.4275C67.4935 14.7968 67.4818 14.283 67.4818 13.8859C67.4818 13.4888 67.4935 12.9632 67.5169 12.3091C67.5636 11.4215 67.803 10.6215 68.2352 9.90904C68.679 9.18492 69.3038 8.61263 70.1097 8.19218C70.9156 7.77172 71.8733 7.56149 72.9828 7.56149ZM75.2077 12.3967C75.1493 11.7777 74.9333 11.2872 74.5595 10.9251C74.1975 10.5514 73.6719 10.3645 72.9828 10.3645C72.2937 10.3645 71.7623 10.5514 71.3886 10.9251C71.0265 11.2872 70.8163 11.7777 70.7579 12.3967C70.7229 12.7822 70.7053 13.2669 70.7053 13.8508C70.7053 14.4231 70.7229 14.9195 70.7579 15.3399C70.8163 15.9589 71.0265 16.4553 71.3886 16.8291C71.7623 17.1911 72.2937 17.3721 72.9828 17.3721C73.6719 17.3721 74.1975 17.1911 74.5595 16.8291C74.9333 16.4553 75.1493 15.9589 75.2077 15.3399C75.2428 14.9195 75.2603 14.4231 75.2603 13.8508C75.2603 13.2669 75.2428 12.7822 75.2077 12.3967ZM88.4657 20C88.2905 20 88.1386 19.9591 88.0102 19.8774C87.8817 19.7839 87.7941 19.6905 87.7474 19.5971L83.7355 13.6056V19.527C83.7355 19.6555 83.6888 19.7664 83.5954 19.8598C83.5019 19.9533 83.391 20 83.2625 20H80.9675C80.839 20 80.7281 19.9533 80.6347 19.8598C80.5412 19.7664 80.4945 19.6555 80.4945 19.527V8.20969C80.4945 8.08122 80.5412 7.97027 80.6347 7.87683C80.7281 7.7834 80.839 7.73668 80.9675 7.73668H82.7895C82.9647 7.73668 83.1165 7.7834 83.245 7.87683C83.3735 7.95859 83.4611 8.04618 83.5078 8.13962L87.5196 14.1311V8.20969C87.5196 8.08122 87.5664 7.97027 87.6598 7.87683C87.7532 7.7834 87.8642 7.73668 87.9926 7.73668H90.2876C90.4161 7.73668 90.5271 7.7834 90.6205 7.87683C90.7139 7.97027 90.7607 8.08122 90.7607 8.20969V19.527C90.7607 19.6555 90.7139 19.7664 90.6205 19.8598C90.5271 19.9533 90.4161 20 90.2876 20H88.4657ZM93.6791 20C93.5506 20 93.4397 19.9533 93.3462 19.8598C93.2528 19.7664 93.2061 19.6555 93.2061 19.527V8.20969C93.2061 8.08122 93.2528 7.97027 93.3462 7.87683C93.4397 7.7834 93.5506 7.73668 93.6791 7.73668H95.9741C96.1025 7.73668 96.2135 7.7834 96.3069 7.87683C96.4004 7.97027 96.4471 8.08122 96.4471 8.20969V19.527C96.4471 19.6555 96.4004 19.7664 96.3069 19.8598C96.2135 19.9533 96.1025 20 95.9741 20H93.6791ZM101.724 15.3399C101.77 15.9473 101.963 16.4378 102.302 16.8115C102.652 17.1853 103.195 17.3721 103.931 17.3721C104.632 17.3721 105.14 17.2378 105.455 16.9692C105.771 16.7006 105.993 16.3736 106.121 15.9881C106.191 15.7896 106.261 15.6553 106.331 15.5852C106.401 15.5151 106.53 15.4801 106.717 15.4801H109.012C109.117 15.4801 109.204 15.521 109.274 15.6027C109.356 15.6728 109.397 15.7604 109.397 15.8655C109.385 16.648 109.134 17.3721 108.644 18.0379C108.165 18.6919 107.511 19.2116 106.682 19.5971C105.852 19.9825 104.936 20.1752 103.931 20.1752C102.845 20.1752 101.899 19.965 101.093 19.5445C100.287 19.1124 99.6623 18.5401 99.2185 17.8276C98.7747 17.1035 98.5294 16.3035 98.4827 15.4275C98.4594 14.8669 98.4477 14.4056 98.4477 14.0435C98.4477 13.6114 98.4594 13.0333 98.4827 12.3091C98.5178 11.4332 98.7572 10.639 99.201 9.92656C99.6448 9.20244 100.27 8.63015 101.076 8.20969C101.893 7.77756 102.845 7.56149 103.931 7.56149C104.936 7.56149 105.852 7.7542 106.682 8.13962C107.511 8.52504 108.165 9.05061 108.644 9.71633C109.134 10.3704 109.385 11.0887 109.397 11.8712C109.397 11.9763 109.356 12.0697 109.274 12.1515C109.204 12.2216 109.117 12.2566 109.012 12.2566H106.717C106.53 12.2566 106.401 12.2216 106.331 12.1515C106.261 12.0814 106.191 11.9471 106.121 11.7485C105.993 11.3631 105.771 11.0361 105.455 10.7675C105.14 10.4988 104.632 10.3645 103.931 10.3645C103.195 10.3645 102.652 10.5514 102.302 10.9251C101.963 11.2989 101.77 11.7894 101.724 12.3967C101.7 12.7938 101.689 13.2844 101.689 13.8683C101.689 14.4289 101.7 14.9195 101.724 15.3399ZM116.267 7.56149C117.377 7.56149 118.334 7.77172 119.14 8.19218C119.946 8.61263 120.565 9.18492 120.997 9.90904C121.441 10.6215 121.686 11.4215 121.733 12.3091C121.756 12.6362 121.768 13.1617 121.768 13.8859C121.768 14.5983 121.756 15.1122 121.733 15.4275C121.686 16.3152 121.441 17.121 120.997 17.8452C120.565 18.5576 119.946 19.124 119.14 19.5445C118.334 19.965 117.377 20.1752 116.267 20.1752C115.158 20.1752 114.2 19.965 113.394 19.5445C112.588 19.124 111.963 18.5576 111.519 17.8452C111.087 17.121 110.848 16.3152 110.801 15.4275C110.778 14.7968 110.766 14.283 110.766 13.8859C110.766 13.4888 110.778 12.9632 110.801 12.3091C110.848 11.4215 111.087 10.6215 111.519 9.90904C111.963 9.18492 112.588 8.61263 113.394 8.19218C114.2 7.77172 115.158 7.56149 116.267 7.56149ZM118.492 12.3967C118.434 11.7777 118.218 11.2872 117.844 10.9251C117.482 10.5514 116.956 10.3645 116.267 10.3645C115.578 10.3645 115.047 10.5514 114.673 10.9251C114.311 11.2872 114.101 11.7777 114.042 12.3967C114.007 12.7822 113.99 13.2669 113.99 13.8508C113.99 14.4231 114.007 14.9195 114.042 15.3399C114.101 15.9589 114.311 16.4553 114.673 16.8291C115.047 17.1911 115.578 17.3721 116.267 17.3721C116.956 17.3721 117.482 17.1911 117.844 16.8291C118.218 16.4553 118.434 15.9589 118.492 15.3399C118.527 14.9195 118.545 14.4231 118.545 13.8508C118.545 13.2669 118.527 12.7822 118.492 12.3967ZM128.999 7.73668C130.565 7.73668 131.779 8.07538 132.643 8.75279C133.508 9.41851 133.94 10.4171 133.94 11.7485C133.94 13.442 133.245 14.61 131.855 15.2523L134.027 19.4219C134.062 19.4919 134.08 19.5562 134.08 19.6146C134.08 19.7197 134.039 19.8131 133.957 19.8949C133.887 19.965 133.8 20 133.695 20H131.312C131.102 20 130.944 19.9591 130.839 19.8774C130.734 19.7839 130.646 19.6671 130.576 19.527L128.632 15.7779H127.02V19.527C127.02 19.6555 126.973 19.7664 126.88 19.8598C126.786 19.9533 126.675 20 126.547 20H124.252C124.123 20 124.012 19.9533 123.919 19.8598C123.826 19.7664 123.779 19.6555 123.779 19.527V8.20969C123.779 8.08122 123.826 7.97027 123.919 7.87683C124.012 7.7834 124.123 7.73668 124.252 7.73668H128.999ZM128.999 13.0449C130.132 13.0449 130.699 12.6128 130.699 11.7485C130.699 10.8843 130.132 10.4521 128.999 10.4521H127.02V13.0449H128.999ZM143.931 20C143.756 20 143.604 19.9591 143.476 19.8774C143.347 19.7839 143.26 19.6905 143.213 19.5971L139.201 13.6056V19.527C139.201 19.6555 139.154 19.7664 139.061 19.8598C138.967 19.9533 138.856 20 138.728 20H136.433C136.305 20 136.194 19.9533 136.1 19.8598C136.007 19.7664 135.96 19.6555 135.96 19.527V8.20969C135.96 8.08122 136.007 7.97027 136.1 7.87683C136.194 7.7834 136.305 7.73668 136.433 7.73668H138.255C138.43 7.73668 138.582 7.7834 138.71 7.87683C138.839 7.95859 138.927 8.04618 138.973 8.13962L142.985 14.1311V8.20969C142.985 8.08122 143.032 7.97027 143.125 7.87683C143.219 7.7834 143.33 7.73668 143.458 7.73668H145.753C145.882 7.73668 145.993 7.7834 146.086 7.87683C146.179 7.97027 146.226 8.08122 146.226 8.20969V19.527C146.226 19.6555 146.179 19.7664 146.086 19.8598C145.993 19.9533 145.882 20 145.753 20H143.931ZM49.2308 34.1314C48.4425 34.1314 47.768 34.0131 47.2074 33.7766C46.6468 33.5401 46.222 33.2292 45.9329 32.8437C45.6438 32.4583 45.4905 32.0379 45.473 31.5824C45.473 31.5123 45.4993 31.451 45.5518 31.3984C45.6044 31.3371 45.6701 31.3064 45.7489 31.3064H46.9446C47.041 31.3064 47.1198 31.3283 47.1811 31.3721C47.2424 31.4159 47.2994 31.4773 47.3519 31.5561C47.4395 31.8539 47.6366 32.1036 47.9432 32.305C48.2585 32.5065 48.6878 32.6072 49.2308 32.6072C49.844 32.6072 50.3039 32.5065 50.6105 32.305C50.9258 32.0948 51.0835 31.8101 51.0835 31.451C51.0835 31.2145 51.0046 31.0174 50.847 30.8597C50.6893 30.702 50.4484 30.5663 50.1243 30.4524C49.809 30.3298 49.336 30.1852 48.7053 30.0188C47.6717 29.7735 46.914 29.4494 46.4322 29.0465C45.9504 28.6436 45.7095 28.0654 45.7095 27.3121C45.7095 26.8041 45.8497 26.3529 46.13 25.9588C46.4103 25.5558 46.8088 25.2405 47.3257 25.0127C47.8512 24.785 48.46 24.6711 49.152 24.6711C49.879 24.6711 50.5054 24.7981 51.0309 25.0522C51.5653 25.3062 51.9682 25.6259 52.2397 26.0113C52.52 26.388 52.669 26.7646 52.6865 27.1413C52.6865 27.2114 52.6602 27.2771 52.6076 27.3384C52.5551 27.3909 52.4894 27.4172 52.4105 27.4172H51.1623C50.9696 27.4172 50.8382 27.3384 50.7681 27.1807C50.7243 26.9004 50.5535 26.6683 50.2557 26.4843C49.9579 26.2916 49.59 26.1953 49.152 26.1953C48.6702 26.1953 48.2892 26.2872 48.0089 26.4712C47.7373 26.6551 47.6016 26.9223 47.6016 27.2727C47.6016 27.5092 47.6717 27.7063 47.8118 27.864C47.952 28.0216 48.1709 28.1618 48.4688 28.2844C48.7666 28.3983 49.2002 28.5297 49.7696 28.6786C50.5492 28.8538 51.1667 29.0509 51.6222 29.2699C52.0864 29.4889 52.4281 29.7648 52.6471 30.0976C52.866 30.4305 52.9755 30.8553 52.9755 31.3721C52.9755 31.9415 52.8179 32.4364 52.5025 32.8569C52.1959 33.2686 51.758 33.5839 51.1886 33.8029C50.628 34.0219 49.9754 34.1314 49.2308 34.1314ZM58.0155 34.1314C56.8067 34.1314 55.8694 33.8248 55.2037 33.2116C54.5467 32.5897 54.1963 31.7094 54.1525 30.5707C54.1438 30.3341 54.1394 29.9487 54.1394 29.4144C54.1394 28.8713 54.1438 28.4771 54.1525 28.2319C54.1963 27.1106 54.5511 26.2391 55.2168 25.6171C55.8825 24.9865 56.8154 24.6711 58.0155 24.6711C58.7951 24.6711 59.4739 24.8069 60.0521 25.0784C60.6302 25.3412 61.0769 25.7047 61.3923 26.169C61.7164 26.6333 61.8872 27.1544 61.9047 27.7326V27.7588C61.9047 27.8289 61.874 27.8902 61.8127 27.9428C61.7602 27.9866 61.6988 28.0085 61.6288 28.0085H60.3543C60.2491 28.0085 60.1703 27.9866 60.1178 27.9428C60.0652 27.8902 60.0214 27.8026 59.9864 27.68C59.855 27.1369 59.6272 26.7559 59.3031 26.5369C58.979 26.3091 58.5498 26.1953 58.0155 26.1953C56.7629 26.1953 56.1103 26.896 56.0577 28.2976C56.049 28.5341 56.0446 28.8976 56.0446 29.3881C56.0446 29.8786 56.049 30.2509 56.0577 30.505C56.1103 31.9065 56.7629 32.6072 58.0155 32.6072C58.541 32.6072 58.9659 32.4977 59.29 32.2788C59.6228 32.051 59.855 31.6656 59.9864 31.1225C60.0214 30.9999 60.0652 30.9167 60.1178 30.8729C60.1703 30.8203 60.2491 30.794 60.3543 30.794H61.6288C61.7076 30.794 61.7733 30.8203 61.8259 30.8729C61.8872 30.9254 61.9135 30.9911 61.9047 31.0699C61.8872 31.6481 61.7164 32.1693 61.3923 32.6335C61.0769 33.0978 60.6302 33.4657 60.0521 33.7372C59.4739 34 58.7951 34.1314 58.0155 34.1314ZM62.795 34C62.7161 34 62.6505 33.9737 62.5979 33.9212C62.5453 33.8686 62.5191 33.8029 62.5191 33.7241L62.5453 33.6058L65.6988 25.131C65.7864 24.912 65.944 24.8025 66.1718 24.8025H67.6171C67.8448 24.8025 68.0025 24.912 68.0901 25.131L71.2435 33.6058L71.2698 33.7241C71.2698 33.8029 71.2392 33.8686 71.1778 33.9212C71.1253 33.9737 71.064 34 70.9939 34H69.8245C69.6405 34 69.5135 33.9168 69.4435 33.7504L68.839 32.1605H64.9498L64.3454 33.7504C64.2753 33.9168 64.1483 34 63.9644 34H62.795ZM65.4097 30.6363H68.3792L66.8944 26.5895L65.4097 30.6363ZM72.7984 34C72.7108 34 72.6363 33.9693 72.575 33.908C72.5137 33.8467 72.483 33.7723 72.483 33.6847V25.131C72.483 25.0346 72.5093 24.9558 72.5619 24.8945C72.6232 24.8332 72.702 24.8025 72.7984 24.8025H73.8232C73.9897 24.8025 74.1167 24.877 74.2043 25.0259L77.9621 30.8597V25.131C77.9621 25.0346 77.9884 24.9558 78.0409 24.8945C78.1023 24.8332 78.1811 24.8025 78.2775 24.8025H79.4074C79.5038 24.8025 79.5826 24.8332 79.6439 24.8945C79.7053 24.9558 79.7359 25.0346 79.7359 25.131V33.6715C79.7359 33.7679 79.7053 33.8467 79.6439 33.908C79.5826 33.9693 79.5082 34 79.4206 34H78.3826C78.2074 34 78.076 33.9255 77.9884 33.7766L74.2437 28.0742V33.6847C74.2437 33.7723 74.213 33.8467 74.1517 33.908C74.0992 33.9693 74.0247 34 73.9284 34H72.7984Z" fill="white"/>
</svg>
