<svg width="61" height="65" viewBox="0 0 61 65" fill="none" xmlns="http://www.w3.org/2000/svg">
<path d="M23.0476 6.31969C25.834 6.80428 28.7516 6.11778 29.8622 5.71395C28.8778 6.31969 27.8178 7.68259 27.5906 7.83403C27.4089 7.95518 25.7987 8.43976 25.0163 8.66692C22.9971 8.84359 18.656 8.54577 17.4446 5.9411C15.9302 2.68527 18.656 0.79235 18.2017 1.70095C17.8383 2.42784 18.2017 3.36673 18.4289 3.74531C18.8075 4.40153 20.2612 5.8351 23.0476 6.31969Z" fill="#03A9F4"/>
<path d="M35.1623 9.65124C34.5566 10.4387 33.9004 11.7461 33.648 12.3013C34.0266 12.9071 35.1623 11.6956 35.8438 11.6956C36.5252 11.6956 36.9038 11.3927 37.2067 11.6956C37.5096 11.9985 37.2067 12.0742 38.6453 11.9985C40.084 11.9227 40.6897 12.7556 40.6897 12.4528C40.6897 12.1499 40.4625 10.4084 40.3868 9.87839C40.3111 9.34837 38.9482 8.06118 37.9639 8.1369C36.9796 8.21261 35.9195 8.66692 35.1623 9.65124Z" fill="#03A9F4"/>
<path d="M41.0683 10.6356C41.0077 10.0904 40.5887 9.09598 40.3868 8.66692C40.1858 8.21261 40.5382 8.51548 41.0683 9.12122C41.5983 9.72695 41.7497 9.34837 42.0526 9.65124C42.3555 9.9541 42.5826 11.2413 42.6583 11.9985C42.734 12.7556 42.0526 12.6042 41.3711 12.3013C40.6897 11.9985 41.144 11.317 41.0683 10.6356Z" fill="#03A9F4"/>
<path d="M46.747 9.12122L44.0969 11.3927C44.7784 8.36405 43.3398 5.71395 42.2797 4.72963C43.2388 5.05774 45.3387 5.97139 46.0656 7.00114C46.7925 8.03089 46.848 8.465 46.747 9.12122Z" fill="#03A9F4"/>
<path d="M48.1857 17.3744C48.0039 17.4349 47.6556 16.8948 47.5042 16.6172C49.0791 14.4971 48.6904 12.9575 48.1857 12.3013L48.8671 11.6956L49.3971 12.8313C49.6243 12.9828 50.1392 13.4068 50.3815 13.8914C50.6843 14.4971 50.6843 15.4814 50.3815 16.3143C50.0786 17.1472 49.5486 17.6015 49.17 17.3744C48.7914 17.1472 48.4128 17.2987 48.1857 17.3744Z" fill="#03A9F4"/>
<path d="M19.9432 24.416C21.397 24.2343 24.1329 22.725 25.3191 21.9931C24.0319 23.0531 25.0163 22.7503 25.3191 22.9017C25.622 23.0531 24.7134 23.5074 23.2748 24.1889C22.1239 24.7341 22.4924 24.1637 22.8205 23.8103C21.9371 24.3403 19.3526 25.4155 16.0817 25.4761C12.8107 25.5367 10.3272 27.3185 9.49428 28.2019C9.94858 27.5204 11.1146 26.0515 12.1444 25.6275C13.4316 25.0975 18.126 24.6432 19.9432 24.416Z" fill="#03A9F4"/>
<path d="M7.53274 35.0212C7.53015 34.9933 7.52778 34.9664 7.52564 34.9407C7.52809 34.9676 7.53045 34.9945 7.53274 35.0212C7.59133 35.6525 7.76563 36.8288 8.05566 37.0608C8.43424 37.3637 8.88855 37.7422 8.73711 38.348C8.61596 38.8326 7.47516 39.7109 6.9199 40.0895C7.21971 39.4898 7.75695 37.6438 7.53274 35.0212Z" fill="#03A9F4"/>
<path d="M20.3975 32.7449C20.761 32.2603 21.9623 31.7858 22.5176 31.6092C21.4576 32.5178 22.9719 32.2149 22.8205 32.2906C22.669 32.3663 21.7604 33.3507 21.3818 33.8807C21.0033 34.4107 19.9432 35.3193 19.2618 35.4707C18.5803 35.6222 18.7318 34.6378 18.9589 34.4864C19.1861 34.335 19.9432 33.3507 20.3975 32.7449Z" fill="#03A9F4"/>
<path d="M18.5046 40.6952C19.5344 40.5135 21.1042 36.4803 21.7604 34.4864C19.7918 36.2279 17.8989 36.8336 17.4446 37.0608C17.0811 37.2425 16.6874 39.5594 16.536 40.6952C16.7631 40.7709 17.4749 40.8769 18.5046 40.6952Z" fill="#03A9F4"/>
<path d="M14.4916 38.4994C14.3705 39.1657 14.5421 40.2409 14.643 40.6952C8.10109 40.8769 4.95126 45.9701 4.19409 48.494L4.49696 45.4654C4.90078 44.3801 6.14759 41.8158 7.90422 40.2409C9.66086 38.666 13.0277 37.717 14.4916 37.4394C14.5421 37.5151 14.6128 37.8331 14.4916 38.4994Z" fill="#03A9F4"/>
<path d="M18.2017 41.2252C17.9594 41.2858 16.9903 41.2505 16.536 41.2252C16.2331 42.0127 16.6622 43.5724 16.9145 44.2539L18.9589 40.9224C18.8075 40.9981 18.444 41.1646 18.2017 41.2252Z" fill="#03A9F4"/>
<path d="M16.536 44.481L15.1731 42.1338C14.3402 44.0772 12.2201 48.2972 10.4029 49.6298C8.58568 50.9624 8.43424 51.1946 8.58568 51.1441C9.1157 50.8918 10.5089 50.1447 11.8415 49.1755C13.1741 48.2063 15.5264 45.642 16.536 44.481Z" fill="#03A9F4"/>
<path d="M24.4862 45.0111C28.787 42.4064 29.7612 36.1522 29.7107 33.3507C30.3165 32.8206 29.8622 39.408 30.2407 39.3323C30.6193 39.2566 30.6193 37.9694 30.9979 37.5908C31.3765 37.2122 31.4522 37.6665 31.3008 40.468C31.1493 43.2696 30.0136 45.2382 28.2721 47.2069C26.904 48.7534 24.3532 50.0857 23.1862 50.5873C23.1643 50.5972 23.1433 50.6062 23.1233 50.6141C23.1438 50.6055 23.1648 50.5965 23.1862 50.5873C23.5813 50.4093 24.2774 49.9215 24.3348 49.1755C24.3921 48.4313 24.8145 47.7187 25.0525 47.4083C24.496 48.0942 22.6631 49.6761 19.4132 50.917C16.0817 52.189 12.9773 51.447 11.8415 50.917C12.1949 50.7656 12.9924 50.4021 13.3558 50.1598C13.7193 49.9175 15.2235 48.9484 15.9302 48.494C16.9903 48.4183 20.1855 47.6157 24.4862 45.0111Z" fill="#03A9F4"/>
<path d="M41.5983 41.2252C41.8406 40.9829 41.9516 41.3262 41.9769 41.5281C41.2197 42.1338 41.5983 42.9667 41.5983 43.1939C41.5983 43.421 41.9769 43.951 42.5826 43.7239C43.1883 43.4967 43.2641 43.1939 43.2641 43.7239C43.2641 44.1479 43.466 44.5568 43.5669 44.7082C43.6174 45.0363 43.6578 46.0711 43.4155 47.5854C43.1126 49.4784 41.8254 51.5984 41.0683 52.4313C40.3111 53.2642 41.0683 51.5984 41.2954 51.1441C41.5226 50.6898 41.9769 49.7812 41.5983 49.6298C41.2954 49.5087 41.2702 49.2765 41.2954 49.1755C40.9421 50.4122 39.8568 53.1885 38.3425 54.4C36.8281 55.6114 34.9352 55.561 34.178 55.3843C35.0109 54.6776 36.8887 52.9311 37.7367 51.5984C38.7968 49.9327 38.721 48.7212 39.0996 45.6925C39.4782 42.6638 41.2954 41.5281 41.5983 41.2252Z" fill="#03A9F4"/>
<path d="M48.0342 44.2539C48.5188 43.8905 48.5895 42.6891 48.5643 42.1338C49.0943 41.9824 49.3214 43.5724 49.3971 44.2539C49.4729 44.9354 48.7914 46.6011 49.17 46.374C49.5486 46.1468 50.0029 44.7082 50.1543 44.7082C50.2755 44.7082 49.9524 46.0711 49.7757 46.7526C49.2962 47.6612 48.2765 49.4178 48.0342 49.1755C47.7314 48.8726 48.7914 47.2069 48.3371 47.5854C47.9737 47.8883 47.378 48.6707 47.1256 49.0241C47.0499 48.1912 46.8985 46.3891 46.8985 45.844C46.8985 45.1625 47.4285 44.7082 48.0342 44.2539Z" fill="#03A9F4"/>
<path d="M51.5929 43.1939C51.4112 42.1641 50.4572 41.099 50.0029 40.6952C51.9715 37.6665 49.6243 36.7579 50.1543 36.9093C50.5783 37.0305 50.7348 36.8589 50.76 36.7579C51.3658 37.3889 52.6378 39.0143 52.8801 40.468C53.183 42.2853 52.5773 43.421 52.1229 44.481C51.6686 45.5411 51.8201 44.481 51.5929 43.1939Z" fill="#03A9F4"/>
<path d="M4.34563 13.1339C2.83129 13.6185 2.40223 15.5568 2.37699 16.4654C0.408348 9.95376 11.6902 10.4838 16.3089 10.9381C20.0039 11.3015 22.7449 9.72661 23.6535 8.89372C23.9563 8.91896 24.6984 8.9543 25.2435 8.89372C25.7887 8.83315 27.1869 8.3637 27.8179 8.13655C29.1303 6.44554 32.9667 3.16952 37.8125 3.59353C42.3521 3.99074 43.6579 6.5895 43.7841 8.07842C43.8131 8.20172 43.8121 8.29808 43.7942 8.3637C43.7958 8.27434 43.7926 8.17891 43.7841 8.07842C43.6906 7.68007 43.2848 7.00052 42.1284 6.16791C40.6141 5.07759 38.5192 5.71361 37.6611 6.16791H40.0841C40.6646 6.31934 42.0224 7.01594 42.8099 8.59085C43.5973 10.1658 43.3399 11.9729 43.1127 12.6796C43.037 12.3767 42.8704 11.6044 42.8099 10.9381C42.7342 10.1052 41.6741 7.75797 38.1154 7.53082C35.2685 7.3491 33.1433 11.4429 32.4366 13.5125C31.9823 15.1782 30.4831 18.7521 28.1208 19.7213C25.1678 20.9327 21.5334 19.0398 18.5804 18.7369C16.2181 18.4946 14.517 20.4027 13.9617 21.387C14.1131 20.7308 14.7189 19.1458 15.9303 18.0555C17.4447 16.6926 19.4133 16.9954 24.2592 17.8283C28.1359 18.4946 30.4175 14.2696 31.0737 12.0738C30.6447 12.5534 29.4988 13.6336 28.3479 14.1182C27.197 14.6028 24.9407 14.2191 23.9563 13.9668L20.1705 16.1626C19.6405 16.5411 17.369 17.1923 12.5231 16.7683C7.67718 16.3443 4.74946 21.0842 3.89133 23.5071C6.38999 13.6639 12.9774 15.3297 16.6875 15.254C19.6556 15.1934 21.9625 13.2601 22.7449 12.301C20.7762 13.4367 18.3533 13.4367 17.4447 13.5125C16.5361 13.5882 11.1602 12.7553 10.3273 12.6796C9.49439 12.6039 6.23856 12.5281 4.34563 13.1339Z" fill="#EA1E62"/>
<path d="M15.9303 23.5071C19.7465 23.5071 23.073 22.3966 24.2592 21.8413C20.1705 24.9457 14.5674 24.7186 12.1445 25.1729C9.72154 25.6272 6.46571 28.1258 5.17852 30.5488C3.89133 32.9717 3.89133 35.849 4.34563 38.8776C4.70907 41.3006 3.43703 42.8654 2.75557 43.345C2.88177 43.0926 3.24016 42.4061 3.66418 41.6792C4.08819 40.9523 3.48751 39.2562 3.13416 38.4991C1.97317 36.2276 0.499208 30.8819 3.89133 27.6715C8.13148 23.6585 11.1602 23.5071 15.9303 23.5071Z" fill="#EA1E62"/>
<path d="M22.0634 34.8646C23.5778 30.5639 27.1869 29.2364 28.8022 29.1102L29.2565 31.6088C28.4489 31.8612 26.5913 32.6386 25.6221 33.7289C24.6529 34.8192 23.3001 38.2719 22.7449 39.862C21.8867 41.5277 19.2316 45.5407 15.476 48.2666C10.7816 51.6738 8.58578 51.5981 9.26724 51.4467C9.94869 51.2952 14.5674 47.3579 15.476 46.4493C16.3846 45.5407 20.1705 40.2406 22.0634 34.8646Z" fill="#EA1E62"/>
<path d="M32.8152 35.6218C32.4518 35.5007 31.9571 34.6123 31.7552 34.1832C32.1338 36.0761 32.8152 42.3606 28.4236 47.5851C24.9104 51.7647 17.8737 52.3048 14.7946 52.0524C13.8607 52.0019 13.0985 52.1281 17.5204 53.0367C21.9423 53.9453 26.1774 52.5572 27.7422 51.7495C29.206 50.8914 32.4215 48.4483 33.5724 45.5407C35.011 41.9063 34.481 38.4991 34.481 37.439C34.481 36.379 33.2695 35.7733 32.8152 35.6218Z" fill="#EA1E62"/>
<path d="M37.8125 45.0107C37.9943 43.4964 38.9483 41.1492 39.4026 40.1648C37.5854 39.7105 37.1076 49.0994 34.8596 51.7495C33.0612 53.8696 30.8797 54.5006 30.0137 54.5511C27.5908 54.753 22.3966 55.6565 21.0034 57.6555C19.6102 59.6544 20.8772 61.6685 21.6848 62.4256C21.5334 61.618 21.6091 59.6847 23.1234 58.4126C25.0164 56.8226 29.2565 56.5954 30.9223 56.444C32.5881 56.2926 34.481 54.7025 35.9196 52.0524C37.3582 49.4023 37.5854 46.9036 37.8125 45.0107Z" fill="#EA1E62"/>
<path d="M46.6714 47.5851C46.4897 46.0102 46.7472 43.7993 46.8986 42.8907L46.8883 42.8597C46.6712 42.2073 46.6551 42.1591 45.6114 43.7993C44.7634 45.1319 44.9552 49.0994 45.1571 50.9166C45.2581 51.4971 45.3237 53.0367 44.7785 54.5511C44.0971 56.444 40.5384 56.444 37.8125 55.914C35.6319 55.49 33.9257 55.7373 33.3452 55.914C32.5376 56.1664 30.9677 57.292 31.1495 59.7755C31.3312 62.2591 34.1024 64.2933 35.4653 65C35.2634 64.8233 34.6021 64.1671 33.5724 62.9557C32.5426 61.7442 33.1433 60.3308 33.5724 59.7755C34.0015 59.2455 35.5865 58.2915 38.494 58.7155C42.1284 59.2455 44.0971 58.4126 45.99 57.0497C47.8829 55.6868 46.8986 49.5537 46.6714 47.5851Z" fill="#EA1E62"/>
<path d="M53.8646 37.1362C53.9251 35.5612 52.5774 34.3599 51.8959 33.956C52.0726 33.2494 52.5774 31.9723 53.1831 32.5174C53.9403 33.1989 54.3946 33.7289 54.6217 36.0004C54.8034 37.8176 54.0412 39.8872 53.6374 40.6949C53.6879 40.1648 53.804 38.7111 53.8646 37.1362Z" fill="#EA1E62"/>
<path d="M46.2929 15.254L46.4443 14.2696L47.8829 12.6796C48.0596 12.9572 48.1858 13.1187 48.1858 13.9668C48.1858 14.8148 47.4791 15.9859 47.1257 16.4654L46.2929 15.254Z" fill="#EA1E62"/>
<path d="M51.1387 16.1626C50.8359 16.8894 50.003 17.4245 49.6244 17.6012V19.4941C50.0535 19.2417 51.0479 18.5249 51.593 17.6769C52.1382 16.8289 51.7192 15.3549 51.4416 14.7239C51.4669 14.9006 51.4416 15.4357 51.1387 16.1626Z" fill="#EA1E62"/>
<path d="M52.0473 18.8126C51.6839 19.4184 50.2301 19.7717 49.5487 19.8727L49.3215 20.6299C49.5487 20.7056 50.321 20.6601 51.593 19.8727C52.8651 19.0852 52.9812 17.7274 52.8802 17.1469C52.754 17.4497 52.4108 18.2069 52.0473 18.8126Z" fill="#EA1E62"/>
<path d="M25.2441 6.16809C27.4247 6.28924 31.15 4.85566 32.74 4.12373C27.4701 2.91226 24.2345 4.83042 23.2754 5.94094C23.023 5.96618 23.0634 6.04694 25.2441 6.16809Z" fill="#FFC108"/>
<path d="M17.7481 10.484C19.9893 10.5445 22.1144 9.49964 22.8968 8.96962C21.8065 8.96962 20.5749 8.56579 20.0953 8.36388C19.8682 8.56579 18.4295 8.8939 14.4923 8.59103C10.555 8.28816 10.1764 5.83998 10.4793 4.65375L10.1007 5.94094C9.99971 6.67287 10.131 8.34874 11.4636 9.19677C13.1293 10.2568 14.9466 10.4082 17.7481 10.484Z" fill="#FFC108"/>
<path d="M17.7481 21.6901C19.3836 21.6901 21.6096 20.63 22.5183 20.1C23.3057 20.4029 25.3703 20.4786 26.3041 20.4786C25.7993 20.8067 24.1386 21.6598 21.5339 22.4472C18.2781 23.4316 16.0823 23.2044 12.8265 23.053C10.2218 22.9318 7.45058 24.4664 6.39054 25.2488C6.51673 25.0216 6.92056 24.3553 7.52629 23.5073C8.28346 22.4472 9.26778 21.9929 10.3278 21.6901C11.3879 21.3872 15.7037 21.6901 17.7481 21.6901Z" fill="#FFC108"/>
<path d="M7.29914 32.2147C8.02603 28.338 9.924 26.5107 10.7821 26.0817C4.49761 29.1103 4.11903 33.8048 4.72477 37.7421C5.20935 40.8919 4.32094 43.3451 3.81616 44.178C4.11903 44.2285 4.99735 43.7086 6.08767 41.2251C7.45058 38.1207 6.39054 37.0606 7.29914 32.2147Z" fill="#FFC108"/>
<path d="M22.5183 30.0947C24.5172 30.2158 26.1274 28.8832 26.6827 28.2017C25.7741 30.3218 23.2754 31.0033 22.7454 31.079C22.2154 31.1547 21.1553 31.1547 18.2781 34.4862C15.9763 37.1515 15.9561 41.4017 16.2337 43.1937C15.8299 42.4618 15.0223 40.8465 15.0223 40.2407C15.0223 39.4836 14.568 36.9849 15.9309 34.4862C17.2938 31.9876 20.0196 29.9432 22.5183 30.0947Z" fill="#FFC108"/>
<path d="M35.693 40.2407C36.4805 38.4841 38.2421 38.3983 39.0246 38.575C35.4659 40.6193 36.9802 41.9822 35.3144 46.601C33.6486 51.2197 31.4529 52.734 29.2571 54.0212C27.0613 55.3084 19.641 55.157 16.5366 55.5356C13.4322 55.9142 14.038 59.4728 10.4793 61.1386C7.6323 62.4712 5.4567 61.7948 4.72477 61.2901H6.92056C8.05631 61.2901 9.64637 59.7757 10.4035 58.7157C11.1607 57.6556 12.9779 55.0813 14.038 54.0212C15.098 52.9612 19.641 53.5669 22.7454 53.7941C25.8498 54.0212 27.0613 53.4912 27.9699 53.1883C28.8785 52.8855 28.3485 52.5069 27.4399 52.6583C26.5313 52.8098 27.0613 52.3554 27.667 52.204C28.2727 52.0526 29.2571 51.144 30.4685 50.2354C31.4377 49.5085 31.4276 49.9325 31.3014 50.2354C31.7305 49.7054 32.4977 48.8725 32.1343 49.7811C31.68 50.9168 32.5886 49.8568 32.8158 49.4025C33.0429 48.9482 34.1029 47.131 34.2544 45.9195C34.4058 44.708 34.7087 42.4365 35.693 40.2407Z" fill="#FFC108"/>
<path d="M49.1706 48.4939C49.7764 47.4641 50.2811 45.9952 50.4578 45.3895C50.2307 51.5226 48.5649 52.6583 47.8834 53.7941C47.3383 54.7027 47.3029 54.3241 47.3534 54.0212V51.144C47.3534 50.3111 48.4135 49.7811 49.1706 48.4939Z" fill="#FFC108"/>
<path d="M52.1236 22.4472C52.0024 22.2049 50.7607 21.3367 50.1549 20.9329C50.9121 20.5543 53.4108 21.1601 52.4265 21.3115C51.4421 21.4629 51.8207 21.6901 52.4265 22.1444C53.0322 22.5987 53.2593 23.7344 53.4108 24.2644C53.5622 24.7945 53.0322 26.3088 52.8808 26.0817C52.7293 25.8545 52.3507 24.643 52.4265 24.2644C52.5022 23.8859 52.275 22.7501 52.1236 22.4472Z" fill="#FFC108"/>
<path d="M9.94883 13.664C10.1911 14.0275 9.54501 14.2193 9.19166 14.2698C6.54156 14.5726 5.25438 15.7841 4.04291 16.087C2.83143 16.3898 3.5886 15.0269 4.04291 14.2698C4.49721 13.5126 5.7844 12.9069 6.54157 12.9069C7.29874 12.9069 9.64596 13.2097 9.94883 13.664Z" fill="#9B28B0"/>
<path d="M14.4161 19.0399C14.2344 19.4034 13.8861 19.2923 13.7347 19.1914C8.13162 18.5099 7.37445 23.4315 5.40581 25.7787C3.8309 27.6565 1.72092 27.1669 0.862793 26.6874C1.03947 26.7378 1.60482 26.8085 2.45285 26.6874C3.51289 26.5359 4.27006 25.2487 5.25438 24.0373C6.2387 22.8258 6.54157 21.0086 8.28306 19.4185C10.0245 17.8285 12.7504 18.3585 13.2804 18.3585C13.8104 18.3585 14.6433 18.5856 14.4161 19.0399Z" fill="#9B28B0"/>
<path d="M18.2777 28.9589C19.3075 29.0194 21.3821 28.4793 22.2907 28.2017C19.792 29.716 23.1993 28.2017 23.5779 28.3531C23.9565 28.5046 23.0479 28.9589 22.2907 29.3374C21.5335 29.716 20.7006 29.6403 18.5806 30.9275C16.4605 32.2147 15.4762 34.2591 14.7947 35.0162C14.1133 35.7734 15.0976 33.5776 14.8704 33.5019C14.6433 33.4262 13.2804 35.1677 13.1289 34.7891C12.9775 34.4105 15.0976 31.7604 14.7947 31.7604C14.4919 31.7604 12.4475 34.1833 12.2961 33.9562C12.1446 33.729 13.7347 32.139 13.7347 31.7604C13.7347 31.3818 12.9775 32.0633 11.6903 33.3504C10.6606 34.3802 10.6555 33.7795 10.7817 33.3504C10.8827 32.9214 11.4026 31.8361 12.6746 30.9275C14.2647 29.7917 16.9905 28.8831 18.2777 28.9589Z" fill="#9B28B0"/>
<path d="M26.3037 34.2591C26.7277 33.6533 27.4395 33.8047 27.7423 33.9562C28.9538 33.8924 28.1209 35.6977 28.4995 35.2434C28.8781 34.7891 29.1809 33.9562 29.3324 34.2591C29.4838 34.5619 29.1809 35.3948 28.4995 37.6663C27.818 39.9378 26.0008 42.4365 24.7136 43.7237C23.4265 45.0109 23.805 44.2537 23.8808 43.7237C23.9565 43.1937 22.2907 45.1623 21.8364 45.4652C21.3821 45.768 20.9278 45.6166 21.3064 44.9351C21.685 44.2537 20.3221 45.3137 20.3221 44.9351C20.3221 44.5566 21.0792 43.4965 21.8364 42.7394C22.5936 41.9822 23.0479 40.2407 23.3507 39.9378C23.6536 39.635 24.4865 37.5906 24.7136 36.9091C24.9408 36.2277 25.7737 35.0162 26.3037 34.2591Z" fill="#9B28B0"/>
<path d="M9.87311 46.5252C10.5394 45.3743 13.0785 43.9761 14.2647 43.4208C14.2647 43.5722 12.6746 46.5252 12.2961 46.7524C11.9175 46.9795 11.0089 47.8881 10.7817 48.5696C10.6 49.1147 9.54501 49.7558 9.04023 50.0082C9.04023 49.3267 9.20681 47.6761 9.87311 46.5252Z" fill="#9B28B0"/>
<path d="M10.0245 51.9768L9.3431 52.204C10.0245 55.8384 10.4031 54.5512 10.0245 53.794C9.72168 53.1883 9.89835 52.3302 10.0245 51.9768Z" fill="#9B28B0"/>
<path d="M36.5255 42.7394C36.5861 42.1942 37.106 42.5122 37.3584 42.7394C36.4538 49.3731 34.4984 51.6539 34.0329 52.1969L34.0268 52.204C33.5725 52.734 32.8154 53.1126 32.8154 52.8097C32.8154 52.5068 32.9668 52.4311 32.0582 52.8097C31.1736 53.1783 31.8679 52.5422 32.7436 51.7397L32.8154 51.674C33.724 50.8411 34.5569 49.1753 35.3897 47.3581C36.2121 45.5639 36.4439 43.4744 36.5225 42.7659L36.5255 42.7394Z" fill="#9B28B0"/>
<path d="M38.797 42.9665C38.9182 42.3608 39.3523 42.7141 39.5542 42.9665C39.2513 43.1937 38.797 44.9351 38.797 45.6923C38.797 46.4495 38.4184 48.5696 38.1913 49.4024C37.9641 50.2353 37.3584 50.9925 37.1312 51.1439C36.9041 51.2954 36.9798 50.5382 37.3584 49.4024C37.737 48.2667 38.0398 46.298 38.1913 45.1623C38.3427 44.0265 38.6456 43.7237 38.797 42.9665Z" fill="#9B28B0"/>
<path d="M44.3243 49.4024C44.8695 48.0093 44.5515 45.238 44.3243 44.0265C44.1426 50.3868 40.4628 54.0969 38.6456 55.1569C39.4532 54.7784 41.2199 53.8849 41.8257 53.3397C42.5829 52.6583 43.6429 51.1439 44.3243 49.4024Z" fill="#9B28B0"/>
<path d="M25.7737 57.5042C26.6217 57.2013 29.9634 56.8732 31.5282 56.747C31.1042 57.171 30.8467 57.9332 30.771 58.2613C30.5439 58.2361 29.6201 58.2008 27.7423 58.2613C25.8645 58.3219 23.3255 59.4476 22.2907 60.0028L23.3507 58.7914C23.805 58.4885 24.9257 57.807 25.7737 57.5042Z" fill="#9B28B0"/>
<path d="M14.1888 13.8154C17.3992 13.8759 19.8171 13.5882 20.6247 13.4368C18.2775 15.4811 15.9303 14.7997 12.4473 14.8754C8.96432 14.9511 6.6171 16.9955 5.25419 18.8884C3.89129 20.7813 3.58842 23.9614 3.43699 24.7186C3.28555 25.4758 2.37695 25.9074 1.92265 26.0589C1.46834 26.2103 2.1498 25.4758 2.1498 24.7186C2.1498 24.0414 1.92265 22.8745 1.92265 22.1973C1.92265 20.6829 2.55208 20.6154 2.75553 19.1913C2.98268 17.6012 3.43699 17.0279 4.42131 16.4654C6.01136 15.5568 10.1758 13.7396 14.1888 13.8154Z" fill="#8BC44A"/>
<path d="M10.933 17.0712C12.205 16.8895 15.1479 17.1469 16.4603 17.2983C16.218 17.2983 15.2993 18.106 14.8702 18.5098C14.1888 18.3079 12.4473 17.9344 10.933 18.0555C9.04004 18.2069 7.22283 19.267 6.1628 21.6899C5.31477 23.6283 4.24463 24.7186 3.81557 25.0215C3.91653 24.6429 4.17901 23.7191 4.42131 23.0528C4.72417 22.2199 5.7085 20.6299 6.54138 19.6456C7.37427 18.6612 9.34291 17.2983 10.933 17.0712Z" fill="#8BC44A"/>
<path d="M10.4787 19.8727C11.145 19.5698 12.2706 19.5951 12.7502 19.6456C12.0233 20.009 12.6492 20.857 13.053 21.2356H10.7058C10.1758 21.2356 10.1001 20.9327 10.0244 20.7056C9.96379 20.5239 9.19148 20.9832 8.81289 21.2356C9.09052 20.9075 9.81236 20.1756 10.4787 19.8727Z" fill="#8BC44A"/>
<path d="M18.0504 19.1913C17.7475 19.2518 16.2079 19.8222 15.476 20.0999C14.6431 20.857 15.476 21.2356 16.4603 21.2356H18.7318C19.4133 21.2356 19.7161 20.7056 19.4133 20.2513C19.1104 19.797 18.4289 19.1155 18.0504 19.1913Z" fill="#8BC44A"/>
<path d="M26.455 25.4758C27.6059 24.5066 27.4898 23.1033 27.2878 22.5228C21.9877 26.5358 19.4133 25.0215 14.8702 26.3844C10.3272 27.7473 8.35859 30.7002 7.98001 33.3503C7.67714 35.4704 8.91385 37.6157 9.57006 38.4234V36.379C9.57006 35.8339 9.87293 34.688 10.0244 34.1832C10.2515 33.4513 11.0238 31.73 12.2959 30.7002C13.8859 29.4131 16.7632 28.2773 19.4133 28.353C22.0634 28.4287 25.0163 26.6872 26.455 25.4758Z" fill="#8BC44A"/>
<path d="M14.8702 41.9064C14.8702 41.7246 14.6683 41.3763 14.5674 41.2249C8.51002 41.7549 6.1628 45.1622 6.01136 49.1752C5.89022 52.3856 7.57618 55.813 8.43431 57.1255C8.28287 55.5606 8.01029 52.0827 8.13144 50.6895C8.28287 48.948 8.28287 47.9637 9.57006 45.7679C10.5998 44.0113 13.3307 43.1683 14.5674 42.9664C14.6683 42.6888 14.8702 42.0881 14.8702 41.9064Z" fill="#8BC44A"/>
<path d="M43.8699 52.961C44.0516 52.7793 44.5008 51.7748 44.7027 51.2953C45.157 54.0211 43.8699 54.9297 42.9612 55.2325C42.2498 55.4697 40.3679 55.5328 39.4601 55.5353C39.4339 55.5388 39.415 55.5385 39.4026 55.5354C39.4213 55.5354 39.4405 55.5354 39.4601 55.5353C39.647 55.5106 40.2023 55.2949 41.3712 54.5511C43.037 53.4911 43.1884 52.0524 43.1884 52.5825C43.1884 53.1125 43.6427 53.1882 43.8699 52.961Z" fill="#8BC44A"/>
<path d="M49.7001 41.0735C49.5789 40.9523 49.2458 41.4773 49.0943 41.7549C50.851 43.0875 51.1892 46.7018 51.1387 48.3423C51.2396 47.4337 51.381 45.253 51.1387 43.7993C50.8358 41.9821 49.8515 41.2249 49.7001 41.0735Z" fill="#8BC44A"/>
<path d="M51.4416 34.3347C51.3658 34.4861 50.3815 35.7733 50.2301 35.849C52.7742 37.7268 53.2588 40.1144 53.183 41.0735C53.2588 40.8211 53.4405 39.9074 53.5616 38.2719C53.7131 36.2276 52.4259 34.9404 52.123 34.5618C51.8201 34.1832 51.5173 34.1832 51.4416 34.3347Z" fill="#8BC44A"/>
<path d="M44.3246 15.9356C43.7794 15.9356 42.8355 15.3299 42.4316 15.027C41.8259 14.6327 41.8764 13.7522 41.9773 13.3612H42.4316C46.8737 9.47442 55.9093 1.59481 56.515 1.17079C57.1207 0.746779 57.0703 1.19603 56.9693 1.47366L45.006 15.3299C45.006 15.5318 44.8697 15.9356 44.3246 15.9356Z" fill="white"/>
<path d="M37.737 19.2671C37.737 19.8944 37.2285 20.4029 36.6012 20.4029C35.9739 20.4029 35.4655 19.8944 35.4655 19.2671C35.4655 18.6398 35.9739 18.1313 36.6012 18.1313C37.2285 18.1313 37.737 18.6398 37.737 19.2671Z" fill="#03A9F4"/>
<path d="M48.3373 19.6457C48.3373 19.9802 48.0661 20.2514 47.7316 20.2514C47.3971 20.2514 47.1259 19.9802 47.1259 19.6457C47.1259 19.3111 47.3971 19.04 47.7316 19.04C48.0661 19.04 48.3373 19.3111 48.3373 19.6457Z" fill="#03A9F4"/>
<path d="M33.2695 22.7503C32.7849 22.3869 31.7551 22.5989 31.3008 22.7503C33.2695 23.0532 33.2695 23.4318 32.588 24.0375C31.9066 24.6432 32.5123 24.7947 32.8909 24.7947C33.2695 24.7947 33.6481 24.2646 34.2538 24.7947C34.8595 25.3247 34.8595 25.4004 35.3138 24.7947C35.6773 24.3101 36.2224 23.6841 36.4496 23.4318C36.8029 23.5327 37.5702 23.6741 37.8125 23.4318C38.1154 23.1289 38.7211 23.8103 38.4182 24.7947C38.1154 25.779 37.5853 25.9304 36.8282 26.9905C36.071 28.0505 35.9953 29.1862 35.8438 29.792C35.6924 30.3977 34.8595 31.3063 34.8595 32.4421C34.8595 33.5778 35.541 34.1836 37.2068 35.3193C38.8725 36.4551 40.3869 35.8493 41.3712 35.8493C42.3555 35.8493 42.0526 36.1522 42.7341 36.6822C43.4155 37.2122 44.3999 36.3794 44.097 37.1365C43.7941 37.8937 44.3999 37.4394 45.3842 37.4394C46.3685 37.4394 45.9899 37.7423 46.5957 38.4237C47.2014 39.1052 47.7314 37.8937 48.1857 37.4394C48.64 36.9851 47.7314 37.1365 47.1257 37.1365C46.5199 37.1365 46.5957 36.3794 45.9899 35.8493C45.3842 35.3193 45.0813 35.9251 44.3999 35.8493C43.7184 35.7736 42.8098 35.395 43.8699 34.9407C44.9299 34.4864 46.7471 34.6379 48.1857 34.9407C49.6243 35.2436 50.2301 35.3193 49.6243 34.4864C49.3951 34.1713 48.2614 33.5778 47.7314 33.5021C47.3962 33.4542 46.0564 33.3802 45.4599 33.275C44.1727 33.0478 43.7184 33.1992 43.1127 33.3507C42.6423 33.4683 42.7341 33.3507 41.3712 33.8807C40.0083 34.4107 38.4182 34.1079 37.8125 34.6379C37.2068 35.1679 36.9039 34.7136 36.4496 33.3507C35.9953 31.9878 36.2982 31.4578 36.4496 29.792C36.601 28.1262 38.4182 26.6119 38.4182 26.309C38.4182 26.0061 38.7968 24.7189 39.0997 24.2646C39.4025 23.8103 39.2511 23.4318 39.0997 22.7503C38.9482 22.0689 37.4339 21.5388 37.2068 21.9931C36.9796 22.4474 36.4496 23.0532 35.541 23.4318C34.6324 23.8103 33.8752 23.2046 33.2695 22.7503Z" fill="white"/>
<path d="M50.4572 23.2046C50.3578 23.2255 50.2306 23.2443 50.0855 23.2555C49.3269 23.4921 49.588 24.4645 49.3215 24.2646C49.0186 24.0375 48.4886 25.1732 48.5643 25.779C48.64 26.3847 49.3215 25.5518 49.3215 25.779C49.3215 26.0061 49.0186 27.369 48.9429 26.6876C48.8672 26.0061 47.7314 25.779 45.9899 25.1732C44.2484 24.5675 44.097 23.2046 44.097 22.7503C44.097 22.296 44.7785 21.9931 45.3842 22.7503C45.9899 23.5075 45.9899 22.7503 46.5957 22.4474C47.2014 22.1446 47.3528 21.9931 48.1857 22.7503C48.7139 23.2304 49.5307 23.2983 50.0855 23.2555C50.1891 23.2232 50.3117 23.2046 50.4572 23.2046Z" fill="white"/>
<path d="M51.2144 23.4318C51.3961 23.4318 51.6939 23.2803 51.8201 23.2046C52.3047 23.2046 52.022 23.7599 51.8201 24.0375C51.6182 24.1889 51.2144 24.6281 51.2144 25.1732C51.2144 25.7184 50.3563 25.9557 49.9272 26.0061C49.9272 25.7285 50.0332 25.0975 50.4572 24.7947C50.9872 24.4161 50.9872 23.4318 51.2144 23.4318Z" fill="white"/>
<path d="M46.7365 41.102C47.2197 40.85 47.8878 39.7009 48.1857 39.1052C48.1857 40.1652 48.9429 38.4237 48.9429 38.6509C48.9429 38.878 48.5643 39.7866 48.1857 40.3924C47.9498 40.7698 47.1552 41.0003 46.7365 41.102C46.6874 41.1276 46.6403 41.144 46.5957 41.1495C46.3674 41.1781 46.4832 41.1636 46.7365 41.102Z" fill="white"/>
<path d="M29.0293 20.3274C29.4533 19.9639 30.0641 19.6711 30.3165 19.5702C30.2408 19.6711 30.0288 20.0093 29.7865 20.5545C29.4836 21.236 30.0894 20.7059 29.7865 21.9931C29.4836 23.2803 29.7865 22.4474 30.0894 22.7503C30.3922 23.0532 29.7108 24.2646 29.7865 24.0375C29.8622 23.8103 29.4079 23.4318 29.0293 23.4318C28.6507 23.4318 28.7265 22.7503 29.0293 21.9931C29.3322 21.236 29.2565 21.0088 28.7265 21.3117C28.1964 21.6145 28.4993 20.7817 29.0293 20.3274Z" fill="white"/>
<path d="M29.4836 28.4291C29.4836 27.8233 29.8874 27.0157 30.0894 26.6876C30.1651 26.9147 30.3165 27.6568 30.3165 28.8077C30.3165 30.2463 31.3008 30.0191 31.3008 30.4734V31.9121C31.1494 31.7101 30.7405 31.2306 30.3165 30.9277C29.7865 30.5492 29.4836 29.1862 29.4836 28.4291Z" fill="white"/>
<path d="M32.058 29.1862C31.8763 28.7017 31.6289 27.5205 31.528 26.9905C31.7551 26.309 32.058 26.6876 32.058 27.6719C32.058 28.6562 32.2852 29.792 32.058 29.1862Z" fill="white"/>
<path d="M41.8255 37.7423C41.4621 37.9846 40.6645 38.0956 40.3112 38.1209C41.144 38.8023 41.8255 38.1209 42.5069 37.7423C43.1884 37.3637 42.2798 37.4394 41.8255 37.7423Z" fill="white"/>
<path d="M44.097 38.6509C43.8547 39.0749 43.0874 39.1304 42.7341 39.1052C43.5804 40.0895 44.3999 39.1052 44.7785 38.4237C45.157 37.7423 44.3999 38.1209 44.097 38.6509Z" fill="white"/>
<path d="M38.4182 29.1862C38.4182 28.7017 39.2259 27.9748 39.6297 27.6719C40.1597 27.2174 40.3112 27.6719 39.6297 28.4291C38.9482 29.1862 39.6297 29.1862 39.0997 29.792C38.5697 30.3977 39.0997 31.3063 38.7968 31.2306C38.4939 31.1549 38.4182 30.4734 38.7968 29.792C39.1754 29.1105 38.4182 29.792 38.4182 29.1862Z" fill="white"/>
<path d="M40.7655 22.4474C41.1289 22.4474 41.9264 21.6903 42.2798 21.3117C43.4155 21.3117 40.7655 23.4318 41.3712 23.4318C41.9769 23.4318 41.3712 24.7947 41.144 24.7947C40.9169 24.7947 41.3712 24.2646 40.7655 24.2646C40.1597 24.2646 40.3112 24.0375 40.3112 23.7346C40.3112 23.4318 40.9926 23.2046 40.3112 23.4318C39.6297 23.6589 40.3112 22.4474 40.7655 22.4474Z" fill="white"/>
<path d="M45.3842 21.6903C45.1419 21.448 44.8794 21.3369 44.7785 21.3117C45.4599 20.9331 46.3685 21.3117 46.2928 21.3117C46.2171 21.3117 45.6871 21.9931 45.3842 21.6903Z" fill="white"/>
<path d="M51.8203 30.4731C52.8298 30.8012 56.3481 31.6165 56.8933 32.0405M51.8203 28.8074C52.7541 28.8074 57.6808 29.398 58.4076 29.6402M51.5174 27.2173C52.2998 26.864 58.5439 26.0967 60.6034 25.8544M51.366 25.8544L52.3503 25.3244M53.7889 24.7944L58.4076 23.6586M44.1729 25.8544C43.5924 25.2739 42.3405 24.022 41.9771 23.6586M40.387 22.3714L39.4784 21.9171M42.6585 26.4601C42.3556 26.1573 41.6742 25.5061 41.3713 25.3244M42.6585 28.0502C42.0275 27.7221 40.4021 26.9447 38.9484 26.4601M36.8283 26.1573C36.2983 26.1573 35.0868 26.1573 34.4811 26.1573M41.3713 29.3374C40.917 29.1102 39.9327 29.1102 39.7813 29.1102M38.0398 29.3374L37.0555 29.6402" stroke="white" stroke-width="0.302868" stroke-linejoin="round"/>
<path d="M49.1702 29.0119C49.4125 29.3753 49.574 29.8195 49.6245 29.9962C49.3469 30.3243 48.7462 30.9654 48.5645 30.9048C48.3827 30.8442 48.4887 29.769 48.5645 29.239C48.3878 29.7186 48.0193 30.6625 47.9587 30.6019C47.8981 30.5413 47.984 29.6681 48.0344 29.239C47.883 29.4409 47.5498 29.875 47.4287 29.9962C47.2773 30.1476 47.2015 29.6176 47.2015 29.3904C47.2015 29.1633 47.353 28.9361 48.0344 28.5576C48.7159 28.179 48.8673 28.5576 49.1702 29.0119Z" fill="white"/>
<path d="M49.3973 32.9491C49.3973 33.252 49.1449 33.0753 49.0188 32.9491C46.0658 32.0405 45.6115 32.192 45.2329 32.1163C44.93 32.0557 45.1067 31.8386 45.2329 31.7377C45.4853 31.4348 46.0355 30.8291 46.2172 30.8291C46.3989 30.8291 46.2929 31.4348 46.2172 31.7377C46.3687 31.46 46.717 30.9048 46.8987 30.9048C47.0804 30.9048 47.1763 31.561 47.2015 31.8891C47.2268 31.662 47.3227 31.1774 47.5044 31.0562C47.6861 30.9351 47.782 31.561 47.8073 31.8891C47.883 31.662 48.0799 31.2379 48.2616 31.3591C48.4433 31.4802 48.5392 32.0658 48.5645 32.3434C48.7159 32.0405 49.0945 31.3288 49.3973 30.9048C49.7002 30.4808 49.675 30.7281 49.6245 30.9048C49.5488 31.46 49.3973 32.6463 49.3973 32.9491Z" fill="white"/>
<path d="M48.5649 27.9519C48.8072 27.8914 49.0192 28.2296 49.0949 28.4062C49.2854 28.7091 49.5492 29.2391 49.7764 29.2391C50.0035 29.2391 49.625 27.9519 49.2464 27.5734C48.8678 27.1948 48.5649 27.5734 48.1863 27.5734C47.8078 27.5734 46.8234 28.1034 46.4449 28.5577C46.0663 29.012 45.3091 30.5263 44.0219 31.5106C42.7347 32.495 43.3405 32.2678 43.8705 32.1921C44.4005 32.1164 44.8548 31.6621 45.0819 31.3592C45.3091 31.0563 46.2177 29.9963 46.4449 29.4663C46.672 28.9363 48.2621 28.0277 48.5649 27.9519Z" fill="white"/>
<path d="M45.9148 17.7528C45.6725 17.3894 44.9053 17.1975 44.5519 17.1471C45.0365 16.1779 45.6624 16.5413 45.9148 16.8442C46.3439 16.8442 47.202 16.9653 47.202 17.4499C47.202 18.0557 48.9435 17.7528 49.2464 17.7528C49.5492 17.7528 49.1707 19.9486 48.9435 20.2515C48.7164 20.5543 48.5649 19.04 48.2621 18.7371C47.9592 18.4343 47.732 18.7371 47.202 18.7371C46.672 18.7371 46.2177 18.2071 45.9148 17.7528Z" fill="white"/>
<path d="M36.6016 12.9826C37.1468 13.1644 38.3936 13.9165 38.9489 14.2698C39.7818 14.6232 41.5687 15.7539 42.0533 17.4499C42.659 19.57 41.6747 20.2515 40.6146 20.4786C39.5546 20.7058 38.4188 19.2671 38.0403 18.7371C37.6617 18.2071 37.1317 17.7528 36.6016 17.7528C36.0716 17.7528 35.693 16.8442 34.5573 16.4656C33.4215 16.087 33.7244 16.8442 34.8602 17.4499C35.9959 18.0557 35.7688 17.98 35.3145 17.98C34.8602 17.98 34.1787 17.4499 33.7244 17.1471C33.2701 16.8442 32.8158 17.4499 33.4972 17.7528C34.1787 18.0557 34.7087 17.7528 34.1787 18.7371C33.6487 19.7214 33.4972 18.9643 32.4372 19.2671C31.5892 19.5094 30.7714 18.7624 30.4686 18.3585C30.7462 17.8538 31.3923 16.7685 31.7558 16.4656C32.2101 16.087 32.5886 14.2698 32.8158 14.2698C33.0429 14.2698 33.4972 14.2698 33.4972 13.4369C33.4972 12.604 34.4058 13.2855 35.3145 13.4369C36.2231 13.5884 35.9202 12.7555 36.6016 12.9826Z" fill="white"/>
<path d="M38.9489 25.5517C38.9489 25.2488 39.3022 24.7188 39.4789 24.4916C39.7565 24.5673 40.3118 24.7793 40.3118 25.0216C40.3118 25.3245 38.9489 25.9302 38.9489 25.5517Z" fill="white"/>
<path d="M27.5913 20.9329C27.2632 21.1096 26.6221 21.5084 26.6827 21.6901C26.7584 21.9172 27.5913 21.9172 27.5913 20.9329Z" fill="white"/>
<path d="M27.5913 26.3845C27.5913 25.7788 27.7428 24.8197 27.8185 24.4159C28.0456 28.0503 27.9699 25.7031 28.3485 27.2931C28.7271 28.8832 29.1814 26.536 29.1057 27.4446C29.0299 28.3532 28.4999 28.8832 28.3485 28.5046C28.1971 28.126 27.8185 27.9746 27.5913 28.126C27.3642 28.2775 27.5913 27.1417 27.5913 26.3845Z" fill="white"/>
<path d="M30.3929 33.0476C30.2717 32.7448 29.7871 32.2652 29.56 32.0633C29.7871 31.5333 30.3929 32.0633 30.7714 33.0476C31.15 34.032 31.5286 33.5019 31.6043 33.7291C31.68 33.9562 31.3772 34.562 31.2257 34.4105C31.0743 34.2591 30.5443 33.4262 30.3929 33.0476Z" fill="white"/>
<path d="M35.6173 37.5149C35.2539 37.2726 34.4059 36.3539 34.0273 35.9249C34.4059 35.9249 36.3745 37.2121 36.6016 37.7421C36.8288 38.2721 37.1317 37.8178 37.9645 38.045C38.7974 38.2721 37.2831 38.3478 36.9045 38.3478C36.5259 38.3478 36.0716 37.8178 35.6173 37.5149Z" fill="white"/>
<path d="M38.646 39.635L39.4032 39.0293C38.8732 39.5593 39.4032 39.635 40.2361 39.635C41.0689 39.635 41.6747 39.2564 41.2961 39.635C40.9175 40.0136 40.2361 40.0136 41.0689 40.0136C41.9018 40.0136 42.5076 40.0136 41.6747 40.3165C40.8418 40.6193 41.9018 40.7708 41.6747 40.9222C41.4475 41.0736 39.9332 41.2251 40.5389 40.9222C41.1447 40.6193 40.6904 40.5436 40.2361 40.3165C39.8844 40.1406 40.2587 40.0101 40.3052 39.9953C40.2966 39.9978 40.2751 40.0038 40.2361 40.0136C39.9938 40.0742 39.0751 39.7864 38.646 39.635Z" fill="white"/>
<path d="M42.8104 42.2851C42.7499 41.8611 42.4823 41.6541 42.3561 41.6037C43.0224 41.6037 43.189 42.3103 43.189 42.6637C43.4414 42.2094 44.0219 41.4219 44.3248 41.9065C44.6276 42.3911 45.2081 42.3608 45.4605 42.2851C46.142 41.9065 47.5049 41.3311 47.5049 42.058C47.5049 42.9666 48.1106 41.9065 48.4135 41.7551C48.7164 41.6037 48.4135 42.6637 47.8835 43.0423C47.3535 43.4209 47.2777 43.0423 47.3535 42.6637C47.4292 42.2851 46.7477 41.9822 46.2934 42.2851C45.8391 42.588 45.3848 42.8151 44.7791 42.8151C44.1733 42.8151 44.4762 42.7394 44.3248 42.2851C44.1733 41.8308 43.719 42.588 43.4162 43.0423C43.1133 43.4966 42.8862 42.8151 42.8104 42.2851Z" fill="white"/>
<path d="M52.8808 31.2304C52.8303 31.5081 52.7596 32.0633 52.8808 32.0633C53.0322 32.0633 53.1837 31.4576 52.8808 31.2304Z" fill="white"/>
<path d="M50.8364 27.4219C50.8364 27.5474 50.7347 27.6491 50.6093 27.6491C50.4838 27.6491 50.3821 27.5474 50.3821 27.4219C50.3821 27.2965 50.4838 27.1948 50.6093 27.1948C50.7347 27.1948 50.8364 27.2965 50.8364 27.4219Z" fill="white"/>
<path d="M51.2907 28.5577C51.2907 28.7249 51.1551 28.8605 50.9879 28.8605C50.8206 28.8605 50.685 28.7249 50.685 28.5577C50.685 28.3904 50.8206 28.2548 50.9879 28.2548C51.1551 28.2548 51.2907 28.3904 51.2907 28.5577Z" fill="white"/>
<path d="M51.4422 30.2234C51.4422 30.3907 51.3066 30.5263 51.1393 30.5263C50.972 30.5263 50.8364 30.3907 50.8364 30.2234C50.8364 30.0562 50.972 29.9206 51.1393 29.9206C51.3066 29.9206 51.4422 30.0562 51.4422 30.2234Z" fill="white"/>
<path d="M42.5076 29.6177C42.5076 29.785 42.372 29.9206 42.2047 29.9206C42.0374 29.9206 41.9018 29.785 41.9018 29.6177C41.9018 29.4504 42.0374 29.3148 42.2047 29.3148C42.372 29.3148 42.5076 29.4504 42.5076 29.6177Z" fill="white"/>
<path d="M43.8705 28.4062C43.8705 28.5735 43.7349 28.7091 43.5676 28.7091C43.4003 28.7091 43.2647 28.5735 43.2647 28.4062C43.2647 28.239 43.4003 28.1034 43.5676 28.1034C43.7349 28.1034 43.8705 28.239 43.8705 28.4062Z" fill="white"/>
<path d="M45.0819 27.0433C45.0819 27.2106 44.9463 27.3462 44.7791 27.3462C44.6118 27.3462 44.4762 27.2106 44.4762 27.0433C44.4762 26.8761 44.6118 26.7405 44.7791 26.7405C44.9463 26.7405 45.0819 26.8761 45.0819 27.0433Z" fill="white"/>
</svg>
