<!-- <svg xmlns="http://www.w3.org/2000/svg" xmlns:v="https://vecta.io/nano" xmlns:xlink="http://www.w3.org/1999/xlink" width="193" height="230" fill="none"><style>.B{fill-rule:evenodd}.C{fill:#633001}.D{fill:#fedc90}.E{fill:#d1884f}</style><g clip-path="url(#B)"><g opacity=".1"><path fill="#606063" d="M8.763 136.977l-.042 2a47.16 47.16 0 0 0 .597 7.484H8.72v3.87a47.15 47.15 0 0 0 .335 5.614c4.33 36.136 50.11 64.57 105.945 64.57s101.614-28.433 105.945-64.57c.222-1.852.335-3.724.335-5.614v-3.87h-.598c.395-2.46.598-4.956.598-7.484 0-.67-.015-1.336-.043-2C219.634 99.14 172.684 68.793 115 68.793S10.366 99.14 8.763 136.977zm-8.73 0c.8-23.086 15.214-42.478 35.29-55.735C56.133 67.5 84.325 59.31 115 59.31s58.867 8.19 79.677 21.934c20.075 13.257 34.498 32.65 35.29 55.735H230v13.355c0 23.966-14.67 44.097-35.323 57.735C173.867 221.81 145.675 230 115 230s-58.867-8.19-79.677-21.933C14.67 194.43 0 174.298 0 150.332v-13.355h.034z" class="B"/><path fill="#bebebe" d="M221.28 150.334c0 38.76-47.583 70.183-106.28 70.183S8.72 189.095 8.72 150.334v-11.1h212.56v11.1z"/><path fill="#faf9fa" d="M221.28 138.977c0 38.76-47.583 70.183-106.28 70.183S8.72 177.738 8.72 138.977 56.303 68.794 115 68.794s106.28 31.423 106.28 70.184z"/><path d="M25.072 119.15v.132c0 3.19.425 6.317 1.24 9.352h-1.24v4.1a35.77 35.77 0 0 0 .406 5.375c4.052 26.686 37.95 47.515 79.167 47.515s75.115-20.83 79.167-47.515c.27-1.767.406-3.56.406-5.375v-4.1h-1.24a36.04 36.04 0 0 0 1.239-9.092l.001-.26v-.132c-.107-29.15-35.692-52.758-79.573-52.758S25.18 90 25.072 119.15zm-8.72 0h-.001v13.594c0 19.16 11.65 34.97 27.48 45.492 15.98 10.622 37.503 16.883 60.814 16.883s44.833-6.26 60.814-16.883c15.83-10.522 27.48-26.332 27.48-45.492l.001-13.462c0-19.16-11.648-34.97-27.48-45.492-15.98-10.622-37.503-16.883-60.814-16.883S59.812 63.168 43.83 73.8c-15.795 10.498-27.426 26.26-27.48 45.36z" class="B C"/><path d="M184.217 132.745c0 29.2-35.626 52.89-79.573 52.89s-79.573-23.68-79.573-52.89v-12.41h159.146v12.41z" class="D"/><path d="M184.217 119.282c0 29.2-35.626 52.89-79.573 52.89s-79.573-23.68-79.573-52.89 35.626-52.9 79.573-52.9 79.573 23.68 79.573 52.9z" class="E"/><path d="M49.053 90.696v.132c0 3.192.425 6.317 1.24 9.353h-1.24v4.1a35.75 35.75 0 0 0 .406 5.374c4.052 26.686 37.95 47.515 79.167 47.515s75.116-20.83 79.167-47.515c.27-1.767.406-3.56.406-5.374v-4.1h-1.24c.793-2.953 1.217-5.99 1.24-9.092l.001-.26v-.132c-.107-29.15-35.692-52.758-79.573-52.758S49.16 61.547 49.053 90.696zm-8.72 0h-.001v13.595c0 19.16 11.65 34.97 27.48 45.49 15.98 10.622 37.504 16.883 60.814 16.883s44.833-6.26 60.814-16.883c15.83-10.522 27.48-26.332 27.48-45.49V90.828c0-19.16-11.65-34.97-27.48-45.49-15.98-10.622-37.503-16.882-60.814-16.882s-44.833 6.26-60.814 16.882c-15.795 10.498-27.426 26.26-27.48 45.36z" class="B C"/><path d="M208.198 104.29c0 29.2-35.626 52.9-79.573 52.9s-79.573-23.68-79.573-52.9v-12.41h159.146v12.41z" class="D"/><path d="M208.198 90.828c0 29.2-35.626 52.89-79.573 52.89s-79.573-23.68-79.573-52.89 35.626-52.89 79.573-52.89 79.573 23.68 79.573 52.89z" class="E"/><path d="M25.072 62.242v.132a35.97 35.97 0 0 0 1.24 9.353h-1.24v4.1a35.77 35.77 0 0 0 .406 5.374c4.052 26.686 37.95 47.515 79.167 47.515s75.115-20.83 79.167-47.515a35.68 35.68 0 0 0 .406-5.374v-4.1h-1.24c.792-2.953 1.216-5.99 1.24-9.092l.001-.26v-.132c-.107-29.15-35.692-52.758-79.573-52.758S25.18 33.093 25.072 62.242zm-8.72 0h-.001v13.595c0 19.16 11.65 34.97 27.48 45.492 15.98 10.62 37.503 16.882 60.814 16.882s44.833-6.26 60.814-16.882c15.83-10.523 27.48-26.332 27.48-45.492l.001-13.463c0-19.16-11.648-34.97-27.48-45.492C149.478 6.26 127.956 0 104.645 0S59.812 6.26 43.83 16.883c-15.795 10.498-27.426 26.26-27.48 45.36z" class="B C"/><path d="M184.217 75.837c0 29.2-35.626 52.9-79.573 52.9s-79.573-23.68-79.573-52.9v-12.41h159.146v12.41z" class="D"/><path d="M184.217 62.374c0 29.2-35.626 52.9-79.573 52.9s-79.573-23.68-79.573-52.9 35.626-52.89 79.573-52.89 79.573 23.68 79.573 52.89z" class="E"/><g class="B"><path fill="url(#A)" d="M43.894 65.665c0 9.752 6.515 18.486 16.794 24.363l-7.122 13.417v33.953c0 4.5 3.346 8.13 7.475 8.13s7.475-3.64 7.475-8.13v-27.003l7.662-14.433c4.9 1.13 10.158 1.744 15.63 1.744 26.462 0 47.915-14.345 47.915-32.04s-21.453-32.04-47.915-32.04-47.915 14.345-47.915 32.04z"/><path d="M60.688 90.028l-3.273-2.056c-8.37-5.77-13.52-13.636-13.52-22.307 0-17.696 21.452-32.04 47.915-32.04s47.914 14.345 47.914 32.04-21.452 32.04-47.914 32.04c-5.473 0-10.732-.614-15.63-1.744l-7.662 14.433v27.003c0 4.5-3.347 8.13-7.475 8.13s-7.475-3.64-7.475-8.13v-33.953l7.122-13.417zm-14.752 13.56v33.8c0 9.073 6.763 16.43 15.105 16.43s15.105-7.356 15.105-16.43v-24.78l3.974-7.486c3.774.572 7.686.87 11.69.87 14.41 0 27.82-3.89 37.877-10.613 9.932-6.642 17.668-16.918 17.668-29.726s-7.736-23.084-17.668-29.726c-10.057-6.725-23.468-10.614-37.877-10.614s-27.82 3.89-37.877 10.614C44 42.58 36.263 52.857 36.263 65.665c0 11.24 5.92 20.498 14.145 27.13l-3.397 6.4c-.324.6-.582 1.227-.765 1.9-.223.82-.324 1.66-.3 2.494z" class="C"/></g><g fill="#9e7200"><use xlink:href="#C"/><path d="M58.863 45.052h47.963v7.113H58.863v-7.113z"/></g><path fill="#f0b90b" d="M58.863 45.052c0 9.167 10.737 16.598 23.98 16.598s23.98-7.43 23.98-16.598-10.737-16.598-23.98-16.598-23.98 7.43-23.98 16.598z"/><path fill="#9e7200" d="M73.743 43.05l6.76-4.678c1.428-.988 3.254-.988 4.682 0l6.76 4.678c1.346.932 1.346 3.07 0 4l-6.76 4.678c-1.428.99-3.254.99-4.682 0l-6.76-4.678c-1.346-.932-1.346-3.07 0-4z"/><path d="M61.8 26.314c5.74-3.973 13.204-6.16 21.054-6.16s15.313 2.186 21.054 6.16c5.65 3.9 10.558 10.333 10.558 18.738v7.114c0 8.405-4.908 14.828-10.558 18.738-5.74 3.973-13.204 6.16-21.053 6.16S67.53 74.877 61.8 70.903c-5.65-3.9-10.558-10.333-10.558-18.738v-7.114c0-8.405 4.908-14.828 10.558-18.738zm21.054 2.14c-13.244 0-23.98 7.43-23.98 16.598v7.114c0 9.167 10.737 16.598 23.98 16.598s23.98-7.43 23.98-16.598v-7.114c0-9.167-10.737-16.598-23.98-16.598z" class="B C"/></g></g><defs><linearGradient id="A" x1="92.327" x2="92.327" y1="34.697" y2="144.687" gradientUnits="userSpaceOnUse"><stop stop-color="#9f4a08"/><stop offset=".37" stop-color="#7d3900"/><stop offset="1" stop-color="#8d4104"/></linearGradient><clipPath id="B"><path fill="#fff" d="M0 0h192.24v230H0z"/></clipPath><path id="C" d="M58.863 52.165c0 9.167 10.737 16.598 23.98 16.598s23.98-7.43 23.98-16.598-10.737-16.598-23.98-16.598-23.98 7.43-23.98 16.598z"/></defs></svg>

 -->

 <svg width="182" height="211" viewBox="0 0 182 211" fill="none" xmlns="http://www.w3.org/2000/svg">
<g opacity="0.25">
<path d="M82.4393 -8.0564C92.7937 -6.25564 103.636 -8.80672 107.763 -10.3074C104.105 -8.0564 100.166 -2.99176 99.3215 -2.42902C98.6462 -1.97883 92.6624 -0.17807 89.7549 0.666037C82.2517 1.32257 66.1199 0.215849 61.618 -9.46324C55.9906 -21.5621 66.1199 -28.5963 64.4317 -25.2199C63.0811 -22.5188 64.4317 -19.0298 65.2758 -17.6229C66.6826 -15.1844 72.0849 -9.85716 82.4393 -8.0564Z" fill="#777E89"/>
<path d="M127.458 4.32383C125.207 7.25007 122.769 12.1084 121.831 14.1717C123.238 16.4227 127.458 11.9208 129.991 11.9208C132.523 11.9208 133.93 10.7953 135.055 11.9208C136.181 13.0463 135.055 13.3276 140.401 13.0463C145.747 12.7649 147.998 15.86 147.998 14.7345C147.998 13.609 147.154 7.13752 146.873 5.16794C146.591 3.19836 141.527 -1.58492 137.869 -1.30354C134.211 -1.02218 130.272 0.666037 127.458 4.32383Z" fill="#777E89"/>
<path d="M149.405 7.98163C149.18 5.95577 147.623 2.26046 146.873 0.666037C146.126 -1.02218 147.436 0.1033 149.405 2.35425C151.375 4.6052 151.937 3.19836 153.063 4.32383C154.188 5.44931 155.033 10.2326 155.314 13.0463C155.595 15.86 153.063 15.2972 150.531 14.1717C147.998 13.0463 149.687 10.514 149.405 7.98163Z" fill="#777E89"/>
<path d="M170.508 2.35425L160.66 10.7953C163.192 -0.459438 157.846 -10.3074 153.907 -13.9651C157.471 -12.7459 165.274 -9.3507 167.976 -5.52408C170.677 -1.69746 170.883 -0.08428 170.508 2.35425Z" fill="#777E89"/>
<path d="M175.854 33.0235C175.179 33.2486 173.884 31.2415 173.322 30.2098C179.174 22.3314 177.73 16.6103 175.854 14.1717L178.386 11.9208L180.356 16.1413C181.2 16.7041 183.113 18.2797 184.014 20.0805C185.139 22.3314 185.139 25.9892 184.014 29.0843C182.888 32.1794 180.918 33.8676 179.512 33.0235C178.105 32.1794 176.698 32.7421 175.854 33.0235Z" fill="#777E89"/>
<path d="M70.9032 59.1908C76.3055 58.5155 86.4723 52.9069 90.8804 50.187C86.0971 54.1261 89.7549 53.0007 90.8804 53.5634C92.0059 54.1261 88.6294 55.8144 83.2834 58.3467C79.0066 60.3725 80.3759 58.2529 81.5952 56.9398C78.3126 58.9094 68.7085 62.9049 56.5534 63.13C44.3982 63.355 35.1693 69.9766 32.0743 73.2592C33.7625 70.7269 38.0956 65.2684 41.9222 63.6927C46.7054 61.7231 64.1503 60.0349 70.9032 59.1908Z" fill="#777E89"/>
<path d="M24.785 98.6001C24.7754 98.4963 24.7666 98.3965 24.7587 98.3011C24.7677 98.401 24.7765 98.5007 24.785 98.6001C25.0027 100.946 25.6505 105.317 26.7282 106.179C28.1351 107.305 29.8233 108.712 29.2606 110.963C28.8104 112.763 24.5711 116.027 22.5077 117.434C23.6218 115.206 25.6182 108.346 24.785 98.6001Z" fill="#777E89"/>
<path d="M72.5914 90.1414C73.942 88.3406 78.4064 86.5774 80.4697 85.9208C76.5306 89.2973 82.1579 88.1718 81.5952 88.4532C81.0325 88.7345 77.656 92.3923 76.2492 94.3619C74.8424 96.3315 70.9032 99.7079 68.3709 100.271C65.8385 100.833 66.4013 97.1756 67.2454 96.6129C68.0895 96.0501 70.9032 92.3923 72.5914 90.1414Z" fill="#777E89"/>
<path d="M65.5572 119.685C69.3838 119.01 75.2175 104.022 77.656 96.6129C70.3404 103.084 63.3062 105.335 61.618 106.179C60.2674 106.855 58.8043 115.465 58.2416 119.685C59.0857 119.966 61.7306 120.36 65.5572 119.685Z" fill="#777E89"/>
<path d="M50.6446 111.525C50.1944 114.001 50.8322 117.997 51.2073 119.685C26.8971 120.36 15.1921 139.287 12.3784 148.666L13.5039 137.411C15.0045 133.378 19.6377 123.849 26.1655 117.997C32.6933 112.144 45.2048 108.618 50.6446 107.586C50.8322 107.868 51.0948 109.049 50.6446 111.525Z" fill="#777E89"/>
<path d="M64.4317 121.655C63.5313 121.88 59.9298 121.748 58.2416 121.655C57.1161 124.581 58.7105 130.377 59.6484 132.909L67.2454 120.529C66.6826 120.811 65.3321 121.43 64.4317 121.655Z" fill="#777E89"/>
<path d="M58.2416 133.754L53.1769 125.031C50.0819 132.253 42.2035 147.935 35.4507 152.887C28.6978 157.839 28.1351 158.702 28.6978 158.514C30.6674 157.576 35.8446 154.8 40.7967 151.198C45.7488 147.597 54.49 138.068 58.2416 133.754Z" fill="#777E89"/>
<path d="M87.7853 135.723C103.767 126.044 107.387 102.803 107.2 92.3923C109.451 90.4227 107.763 114.902 109.169 114.62C110.576 114.339 110.576 109.556 111.983 108.149C113.39 106.742 113.671 108.43 113.109 118.841C112.546 129.252 108.325 136.567 101.854 143.883C96.77 149.63 87.291 154.581 82.9544 156.445C82.8729 156.482 82.7947 156.515 82.7207 156.544C82.7968 156.512 82.8748 156.479 82.9544 156.445C84.4224 155.783 87.0093 153.971 87.2226 151.198C87.4353 148.433 89.0051 145.785 89.8895 144.631C87.8217 147.18 81.0105 153.059 68.9336 157.67C56.5534 162.397 45.0172 159.64 40.7967 157.67C42.1097 157.107 45.0735 155.757 46.4241 154.856C47.7746 153.956 53.3645 150.354 55.9906 148.666C59.9298 148.385 71.8036 145.402 87.7853 135.723Z" fill="#777E89"/>
<path d="M151.375 121.655C152.275 120.754 152.688 122.03 152.782 122.78C149.968 125.031 151.375 128.126 151.375 128.97C151.375 129.814 152.782 131.784 155.033 130.94C157.283 130.096 157.565 128.97 157.565 130.94C157.565 132.516 158.315 134.035 158.69 134.598C158.878 135.817 159.028 139.662 158.128 145.29C157.002 152.324 152.219 160.202 149.405 163.297C146.591 166.392 149.405 160.202 150.249 158.514C151.093 156.826 152.782 153.449 151.375 152.887C150.249 152.436 150.155 151.574 150.249 151.198C148.936 155.794 144.903 166.111 139.276 170.613C133.648 175.115 126.614 174.927 123.801 174.271C126.896 171.645 133.874 165.154 137.025 160.202C140.964 154.012 140.683 149.51 142.09 138.255C143.496 127.001 150.249 122.78 151.375 121.655Z" fill="#777E89"/>
<path d="M175.291 132.909C177.092 131.559 177.354 127.094 177.261 125.031C179.23 124.468 180.074 130.377 180.356 132.909C180.637 135.442 178.105 141.632 179.512 140.788C180.918 139.944 182.607 134.598 183.169 134.598C183.62 134.598 182.419 139.662 181.763 142.195C179.981 145.571 176.191 152.099 175.291 151.198C174.166 150.073 178.105 143.883 176.417 145.29C175.066 146.415 172.853 149.323 171.915 150.636C171.633 147.541 171.071 140.844 171.071 138.818C171.071 136.286 173.04 134.598 175.291 132.909Z" fill="#777E89"/>
<path d="M188.515 128.97C187.84 125.144 184.295 121.186 182.607 119.685C189.922 108.43 181.2 105.054 183.169 105.617C184.745 106.067 185.327 105.429 185.42 105.054C187.671 107.399 192.398 113.439 193.299 118.841C194.424 125.594 192.173 129.814 190.485 133.754C188.797 137.693 189.36 133.754 188.515 128.97Z" fill="#777E89"/>
<path d="M12.942 17.2656C7.31463 19.0663 5.72021 26.2694 5.62642 29.6458C-1.68918 5.44807 40.2348 7.41765 57.3983 9.10586C71.1291 10.4564 81.3147 4.60396 84.6911 1.5089C85.8166 1.60269 88.574 1.73399 90.5999 1.5089C92.6257 1.2838 97.8217 -0.460686 100.166 -1.30479C105.043 -7.5887 119.3 -19.7626 137.307 -18.1869C154.176 -16.7109 159.029 -7.0537 159.498 -1.52079C159.605 -1.06261 159.602 -0.704533 159.535 -0.460682C159.541 -0.79274 159.53 -1.14738 159.498 -1.52079C159.15 -3.0011 157.642 -5.52634 153.345 -8.62038C147.718 -12.6721 139.933 -10.3086 136.744 -8.62038H145.748C147.905 -8.05765 152.951 -5.46905 155.877 0.383425C158.804 6.2359 157.847 12.9512 157.003 15.5774C156.722 14.4519 156.103 11.5819 155.877 9.10586C155.596 6.0108 151.657 -2.71164 138.433 -3.55574C127.853 -4.23103 119.956 10.9817 117.33 18.6724C115.642 24.8625 110.071 38.1431 101.292 41.7447C90.3185 46.2466 76.8128 39.2123 65.8394 38.0869C57.0607 37.1865 50.7393 44.277 48.6759 47.9348C49.2386 45.4962 51.4896 39.6063 55.9915 35.5545C61.6189 30.4899 68.9344 31.6154 86.9421 34.7104C101.348 37.1865 109.827 21.4861 112.265 13.3264C110.671 15.1084 106.413 19.1226 102.136 20.9234C97.8592 22.7241 89.4744 21.2985 85.8166 20.3606L71.7481 28.5203C69.7786 29.9272 61.3375 32.3469 43.3299 30.7713C25.3223 29.1956 14.4426 46.8093 11.2538 55.8131C20.539 19.2351 45.0181 25.4253 58.8052 25.1439C69.8348 24.9188 78.4072 17.7345 81.3147 14.1705C73.9991 18.391 64.9953 18.391 61.6189 18.6724C58.2424 18.9538 38.2652 15.8587 35.1702 15.5774C32.0751 15.296 19.9762 15.0146 12.942 17.2656Z" fill="#777E89"/>
<path d="M55.9915 55.8131C70.1725 55.8131 82.534 51.6864 86.9421 49.623C71.7481 61.1591 50.9268 60.315 41.923 62.0032C32.9192 63.6914 20.8203 72.9766 16.0371 81.9804C11.2538 90.9842 11.2538 101.676 12.942 112.931C14.2926 121.935 9.56558 127.75 7.03326 129.532C7.50221 128.594 8.83402 126.043 10.4097 123.342C11.9853 120.641 9.75316 114.338 8.44011 111.524C4.12578 103.083 -1.35154 83.2185 11.2538 71.2884C27.0105 56.3759 38.2652 55.8131 55.9915 55.8131Z" fill="#777E89"/>
<path d="M78.7824 98.0185C84.4097 82.0367 97.8217 77.1034 103.824 76.6344L105.512 85.9196C102.511 86.8575 95.6082 89.7462 92.0067 93.7979C88.4052 97.8496 83.3781 110.68 81.3147 116.589C78.1258 122.779 68.2592 137.691 54.3033 147.821C36.8584 160.482 28.6987 160.201 31.231 159.638C33.7633 159.076 50.9268 144.444 54.3033 141.068C57.6797 137.691 71.7481 117.996 78.7824 98.0185Z" fill="#777E89"/>
<path d="M118.737 100.832C117.386 100.382 115.548 97.0806 114.798 95.4861C116.204 102.52 118.737 125.874 102.417 145.288C89.3618 160.82 63.2133 162.827 51.7709 161.889C48.3007 161.702 45.4683 162.171 61.9002 165.547C78.3322 168.923 94.0701 163.765 99.885 160.764C105.325 157.575 117.274 148.496 121.55 137.691C126.896 124.186 124.927 111.524 124.927 107.585C124.927 103.646 120.425 101.395 118.737 100.832Z" fill="#777E89"/>
<path d="M137.307 135.722C137.982 130.095 141.528 121.372 143.216 117.714C136.463 116.026 134.687 150.916 126.334 160.764C119.651 168.642 111.544 170.987 108.326 171.174C99.3223 171.925 80.0204 175.282 74.8432 182.711C69.666 190.139 74.3743 197.623 77.3755 200.437C76.8128 197.436 77.0942 190.251 82.7215 185.524C89.7558 179.615 105.512 178.771 111.703 178.209C117.893 177.646 124.927 171.737 130.273 161.889C135.619 152.041 136.463 142.756 137.307 135.722Z" fill="#777E89"/>
<path d="M170.227 145.288C169.552 139.436 170.509 131.22 171.071 127.844L171.033 127.728C170.226 125.304 170.167 125.125 166.288 131.22C163.137 136.172 163.85 150.916 164.6 157.669C164.975 159.826 165.219 165.547 163.193 171.174C160.661 178.209 147.436 178.209 137.307 176.239C129.204 174.663 122.864 175.583 120.706 176.239C117.705 177.177 111.871 181.36 112.547 190.589C113.222 199.818 123.52 207.377 128.585 210.003C127.834 209.347 125.377 206.908 121.55 202.406C117.724 197.904 119.956 192.652 121.55 190.589C123.145 188.619 129.035 185.074 139.839 186.65C153.345 188.619 160.661 185.524 167.695 180.46C174.729 175.395 171.071 152.604 170.227 145.288Z" fill="#777E89"/>
<path d="M196.957 106.46C197.182 100.607 192.174 96.1427 189.642 94.642C190.298 92.0159 192.174 87.2702 194.425 89.296C197.239 91.8283 198.927 93.7979 199.771 102.239C200.446 108.992 197.614 116.683 196.113 119.684C196.301 117.714 196.732 112.312 196.957 106.46Z" fill="#777E89"/>
<path d="M168.82 25.1439L169.383 21.4861L174.729 15.5774C175.386 16.609 175.855 17.2093 175.855 20.3606C175.855 23.5119 173.229 27.8638 171.916 29.6458L168.82 25.1439Z" fill="#777E89"/>
<path d="M186.828 28.5203C185.703 31.2215 182.608 33.2098 181.201 33.8663V40.9006C182.795 39.9627 186.49 37.299 188.516 34.1477C190.542 30.9964 188.985 25.5191 187.954 23.1743C188.047 23.8308 187.954 25.8192 186.828 28.5203Z" fill="#777E89"/>
<path d="M190.205 38.3682C188.854 40.6192 183.452 41.9323 180.919 42.3074L180.075 45.1211C180.919 45.4025 183.789 45.2336 188.516 42.3074C193.243 39.3812 193.675 34.3353 193.3 32.1781C192.831 33.3036 191.555 36.1173 190.205 38.3682Z" fill="#777E89"/>
<path d="M90.6032 -8.61977C98.7067 -8.16957 112.55 -13.4968 118.459 -16.2167C98.8755 -20.7186 86.8516 -13.5906 83.2876 -9.46387C82.3497 -9.37008 82.4998 -9.06995 90.6032 -8.61977Z" fill="#777E89"/>
<path d="M62.7477 7.41827C71.0762 7.64336 78.9733 3.76047 81.8808 1.79089C77.8291 1.79089 73.2521 0.290253 71.4701 -0.460064C70.626 0.290253 65.28 1.50952 50.6488 0.384043C36.0177 -0.741434 34.6108 -9.83903 35.7363 -14.2471L34.3295 -9.46387C33.9543 -6.74397 34.442 -0.516338 39.3941 2.63499C45.5842 6.57416 52.3371 7.1369 62.7477 7.41827Z" fill="#777E89"/>
<path d="M62.7477 49.0609C68.8253 49.0609 77.0975 45.1217 80.474 43.1521C83.4002 44.2776 91.0722 44.559 94.5424 44.559C92.6666 45.7782 86.4952 48.9483 76.8162 51.8746C64.7173 55.5324 56.5576 54.6883 44.4587 54.1255C34.7796 53.6753 24.4815 59.3777 20.5424 62.2852C21.0113 61.4411 22.512 58.9651 24.7629 55.8137C27.5766 51.8746 31.2344 50.1863 35.1736 49.0609C39.1127 47.9354 55.1508 49.0609 62.7477 49.0609Z" fill="#777E89"/>
<path d="M23.9188 88.1712C26.6199 73.7651 33.6729 66.9747 36.8618 65.3803C13.5082 76.635 12.1013 94.0799 14.3523 108.711C16.153 120.416 12.8516 129.532 10.9758 132.627C12.1013 132.815 15.3652 130.883 19.4169 121.654C24.4815 110.118 20.5424 106.179 23.9188 88.1712Z" fill="#777E89"/>
<path d="M80.474 80.2928C87.9021 80.743 93.8859 75.7909 95.9492 73.2586C92.5728 81.1369 83.2876 83.6693 81.3181 83.9506C79.3485 84.232 75.4093 84.232 64.7173 96.6122C56.1637 106.516 56.0886 122.311 57.1203 128.97C55.6197 126.25 52.6184 120.247 52.6184 117.996C52.6184 115.183 50.9302 105.897 55.9949 96.6122C61.0595 87.3271 71.1888 79.7301 80.474 80.2928Z" fill="#777E89"/>
<path d="M129.432 117.996C132.358 111.469 138.905 111.15 141.812 111.806C128.588 119.403 134.215 124.468 128.025 141.631C121.835 158.795 113.675 164.422 105.516 169.205C97.3561 173.989 69.7819 173.426 58.2458 174.833C46.7097 176.24 48.9606 189.464 35.7363 195.654C25.1568 200.606 17.0722 198.093 14.3523 196.217H22.512C26.7325 196.217 32.6412 190.589 35.4549 186.65C38.2686 182.711 45.0215 173.145 48.9606 169.205C52.8998 165.266 69.7819 167.517 81.3181 168.361C92.8542 169.205 97.3561 167.236 100.733 166.11C104.109 164.985 102.139 163.578 98.7629 164.141C95.3865 164.704 97.3561 163.015 99.607 162.453C101.858 161.89 105.516 158.513 110.018 155.137C113.619 152.436 113.582 154.012 113.113 155.137C114.707 153.167 117.558 150.072 116.208 153.449C114.52 157.669 117.896 153.73 118.74 152.042C119.584 150.354 123.523 143.601 124.086 139.099C124.649 134.597 125.774 126.156 129.432 117.996Z" fill="#777E89"/>
<path d="M179.516 148.665C181.767 144.839 183.643 139.38 184.299 137.129C183.455 159.92 177.265 164.141 174.733 168.361C172.707 171.738 172.575 170.331 172.763 169.205V158.513C172.763 155.418 176.702 153.449 179.516 148.665Z" fill="#777E89"/>
<path d="M190.489 51.8746C190.039 50.9742 185.425 47.7478 183.174 46.2472C185.987 44.8403 195.272 47.0913 191.615 47.654C187.957 48.2168 189.364 49.0609 191.615 50.7491C193.866 52.4373 194.71 56.6578 195.272 58.6274C195.835 60.597 193.866 66.2244 193.303 65.3803C192.74 64.5362 191.333 60.0343 191.615 58.6274C191.896 57.2206 191.052 53 190.489 51.8746Z" fill="#777E89"/>
<path d="M33.7643 19.2357C34.6647 20.5863 32.2636 21.2991 30.9506 21.4866C21.1027 22.6121 16.3194 27.114 11.8175 28.2395C7.31559 29.365 10.1293 24.3003 11.8175 21.4866C13.5057 18.6729 18.289 16.422 21.1027 16.422C23.9164 16.422 32.6388 17.5475 33.7643 19.2357Z" fill="#777E89"/>
<path d="M50.3651 39.2129C49.6898 40.5635 48.3955 40.1508 47.8327 39.7756C27.0114 37.2433 24.1977 55.5323 16.8821 64.2547C11.0297 71.2327 3.18885 69.4132 0 67.6312C0.656528 67.8187 2.75742 68.0813 5.90875 67.6312C9.84791 67.0684 12.6616 62.2851 16.3194 57.7832C19.9772 53.2813 21.1027 46.5285 27.5742 40.6197C34.0457 34.711 44.1749 36.6806 46.1445 36.6806C48.1141 36.6806 51.2092 37.5247 50.3651 39.2129Z" fill="#777E89"/>
<path d="M64.7149 76.0722C68.5415 76.2973 76.251 74.2902 79.6274 73.2585C70.3422 78.8859 83.0039 73.2585 84.4107 73.8213C85.8175 74.384 82.4411 76.0722 79.6274 77.4791C76.8137 78.8859 73.7187 78.6045 65.8403 83.3878C57.962 88.1711 54.3042 95.7681 51.7719 98.5817C49.2396 101.395 52.8974 93.2357 52.0533 92.9544C51.2092 92.673 46.1445 99.1445 45.5818 97.7376C45.019 96.3308 52.8974 86.4829 51.7719 86.4829C50.6464 86.4829 43.0495 95.4867 42.4867 94.6426C41.924 93.7985 47.8327 87.8897 47.8327 86.4829C47.8327 85.076 45.019 87.6084 40.2358 92.3916C36.4091 96.2182 36.3904 93.9861 36.8593 92.3916C37.2345 90.7972 39.1666 86.7642 43.8936 83.3878C49.8023 79.1673 59.9316 75.7909 64.7149 76.0722Z" fill="#777E89"/>
<path d="M94.54 95.7681C96.1157 93.5171 98.7605 94.0798 99.886 94.6426C104.388 94.4054 101.293 101.114 102.7 99.4258C104.107 97.7376 105.232 94.6426 105.795 95.7681C106.357 96.8935 105.232 99.9886 102.7 108.43C100.167 116.871 93.4145 126.156 88.6312 130.939C83.848 135.722 85.2548 132.909 85.5362 130.939C85.8175 128.97 79.6274 136.285 77.9392 137.411C76.251 138.536 74.5628 137.973 75.9696 135.441C77.3765 132.909 72.3118 136.848 72.3118 135.441C72.3118 134.034 75.1255 130.095 77.9392 127.281C80.7529 124.468 82.4411 117.996 83.5666 116.871C84.6921 115.745 87.7871 108.148 88.6312 105.616C89.4753 103.084 92.5704 98.5817 94.54 95.7681Z" fill="#777E89"/>
<path d="M33.4829 141.35C35.959 137.073 45.3942 131.877 49.8023 129.814C49.8023 130.376 43.8936 141.35 42.4867 142.194C41.0799 143.038 37.7034 146.414 36.8593 148.947C36.1841 150.973 32.2636 153.355 30.3879 154.293C30.3879 151.76 31.0069 145.627 33.4829 141.35Z" fill="#777E89"/>
<path d="M34.0457 161.608L31.5133 162.453C34.0457 175.958 35.4525 171.175 34.0457 168.361C32.9202 166.11 33.5767 162.921 34.0457 161.608Z" fill="#777E89"/>
<path d="M132.525 127.281C132.75 125.256 134.682 126.437 135.62 127.281C132.258 151.933 124.992 160.408 123.262 162.426L123.24 162.453C121.551 164.422 118.738 165.829 118.738 164.703C118.738 163.578 119.3 163.297 115.924 164.703C112.637 166.073 115.217 163.709 118.471 160.727L118.738 160.483C122.114 157.388 125.209 151.198 128.304 144.445C131.36 137.778 132.222 130.013 132.514 127.38L132.525 127.281Z" fill="#777E89"/>
<path d="M140.966 128.125C141.416 125.875 143.029 127.188 143.78 128.125C142.654 128.97 140.966 135.441 140.966 138.255C140.966 141.068 139.559 148.947 138.715 152.042C137.871 155.137 135.62 157.951 134.776 158.513C133.932 159.076 134.213 156.262 135.62 152.042C137.027 147.821 138.152 140.506 138.715 136.285C139.278 132.065 140.403 130.939 140.966 128.125Z" fill="#777E89"/>
<path d="M161.506 152.042C163.532 146.865 162.35 136.567 161.506 132.065C160.831 155.7 147.156 169.487 140.403 173.426C143.404 172.019 149.97 168.699 152.221 166.673C155.034 164.141 158.973 158.513 161.506 152.042Z" fill="#777E89"/>
<path d="M92.5704 182.148C95.7217 181.023 108.139 179.804 113.954 179.335C112.379 180.91 111.422 183.743 111.141 184.962C110.297 184.868 106.864 184.737 99.886 184.962C92.908 185.187 83.4728 189.37 79.6274 191.434L83.5666 186.932C85.2548 185.806 89.4191 183.274 92.5704 182.148Z" fill="#777E89"/>
<path d="M49.5207 19.798C61.4508 20.0231 70.4358 18.9539 73.4371 18.3911C64.7147 25.9881 55.9922 23.4558 43.0493 23.7371C30.1063 24.0185 21.3838 31.6155 16.3192 38.6497C11.2546 45.6839 10.1291 57.5014 9.56634 60.3151C9.00361 63.1288 5.62718 64.7328 3.93897 65.2956C2.25075 65.8583 4.78307 63.1288 4.78307 60.3151C4.78307 57.7985 3.93897 53.4624 3.93897 50.9457C3.93897 45.3184 6.27798 45.0674 7.03403 39.7752C7.87814 33.8664 9.56634 31.736 13.2241 29.6459C19.1329 26.2694 34.6082 19.5166 49.5207 19.798Z" fill="#777E89"/>
<path d="M37.4219 31.8968C42.1489 31.2215 53.0847 32.1782 57.9618 32.7409C57.0614 32.7409 53.6475 35.7422 52.0531 37.2428C49.5207 36.4925 43.0493 35.1044 37.4219 35.5546C30.3877 36.1174 23.6348 40.0565 19.6956 49.0603C16.5443 56.2634 12.5676 60.3151 10.9732 61.4406C11.3483 60.0337 12.3238 56.601 13.2241 54.125C14.3496 51.0299 18.0074 45.1212 21.1025 41.4634C24.1975 37.8056 31.5131 32.7409 37.4219 31.8968Z" fill="#777E89"/>
<path d="M35.7337 42.3075C38.2097 41.182 42.3927 41.2758 44.1747 41.4634C41.4736 42.8139 43.7996 45.9653 45.3002 47.3721H36.5778C34.6082 47.3721 34.3268 46.2466 34.0455 45.4025C33.8204 44.7273 30.9504 46.4342 29.5435 47.3721C30.5752 46.1529 33.2576 43.433 35.7337 42.3075Z" fill="#777E89"/>
<path d="M63.8706 39.7752C62.7451 40.0003 57.0239 42.1199 54.304 43.1516C51.209 45.9653 54.304 47.3721 57.9618 47.3721H66.4029C68.9352 47.3721 70.0607 45.4025 68.9352 43.7143C67.8097 42.0261 65.2774 39.4938 63.8706 39.7752Z" fill="#777E89"/>
<path d="M95.1025 63.1288C99.3793 59.5273 98.9479 54.3126 98.1976 52.1554C78.5018 67.068 68.9352 61.4406 52.0531 66.5052C35.1709 71.5699 27.8553 82.5432 26.4485 92.3912C25.323 100.269 29.9187 108.242 32.3572 111.243V103.646C32.3572 101.62 33.4827 97.362 34.0455 95.4862C34.8896 92.7663 37.7595 86.3699 42.4865 82.5432C48.3953 77.76 59.0873 73.5394 68.9352 73.8208C78.7831 74.1022 89.7565 67.6307 95.1025 63.1288Z" fill="#777E89"/>
<path d="M52.0531 124.186C52.0531 123.511 51.3027 122.216 50.9276 121.654C28.4181 123.623 19.6956 136.285 19.1329 151.197C18.6827 163.127 24.9479 175.864 28.1367 180.741C27.574 174.926 26.561 162.002 27.0112 156.825C27.574 150.353 27.574 146.695 32.3572 138.536C36.1839 132.008 46.3319 128.875 50.9276 128.125C51.3027 127.093 52.0531 124.861 52.0531 124.186Z" fill="#777E89"/>
<path d="M159.817 165.266C160.493 164.59 162.162 160.858 162.912 159.076C164.601 169.205 159.817 172.581 156.441 173.707C153.797 174.588 146.804 174.822 143.431 174.832C143.333 174.845 143.263 174.844 143.217 174.832C143.286 174.832 143.358 174.832 143.431 174.832C144.125 174.74 146.189 173.939 150.532 171.174C156.722 167.235 157.285 161.889 157.285 163.859C157.285 165.828 158.973 166.11 159.817 165.266Z" fill="#777E89"/>
<path d="M181.483 121.091C181.033 120.641 179.795 122.591 179.232 123.623C185.76 128.575 187.016 142.006 186.829 148.102C187.204 144.726 187.729 136.622 186.829 131.22C185.703 124.467 182.046 121.654 181.483 121.091Z" fill="#777E89"/>
<path d="M187.954 96.049C187.673 96.6117 184.015 101.395 183.452 101.676C192.906 108.654 194.707 117.527 194.426 121.091C194.707 120.153 195.382 116.758 195.833 110.68C196.395 103.083 191.612 98.2999 190.487 96.8931C189.361 95.4862 188.236 95.4862 187.954 96.049Z" fill="#777E89"/>
<path d="M161.506 27.677C159.48 27.677 155.973 25.426 154.472 24.3005C152.221 22.8353 152.409 19.5633 152.784 18.1104H154.472C170.979 3.66682 204.556 -25.6143 206.807 -27.19C209.058 -28.7657 208.87 -27.0962 208.495 -26.0645L164.038 25.426C164.038 26.1763 163.532 27.677 161.506 27.677Z" fill="#777E89"/>
<path d="M137.026 40.0571C137.026 42.388 135.137 44.2776 132.806 44.2776C130.475 44.2776 128.585 42.388 128.585 40.0571C128.585 37.7261 130.475 35.8365 132.806 35.8365C135.137 35.8365 137.026 37.7261 137.026 40.0571Z" fill="#777E89"/>
<path d="M176.418 41.4639C176.418 42.7071 175.41 43.7149 174.167 43.7149C172.924 43.7149 171.916 42.7071 171.916 41.4639C171.916 40.2208 172.924 39.213 174.167 39.213C175.41 39.213 176.418 40.2208 176.418 41.4639Z" fill="#777E89"/>
<path d="M120.424 53.0008C118.624 51.6503 114.797 52.4381 113.109 53.0008C120.424 54.1263 120.424 55.5332 117.892 57.7841C115.36 60.0351 117.611 60.5978 119.017 60.5978C120.424 60.5978 121.831 58.6282 124.082 60.5978C126.333 62.5674 126.333 62.8488 128.021 60.5978C129.372 58.797 131.398 56.4711 132.242 55.5332C133.555 55.9083 136.406 56.4335 137.306 55.5332C138.432 54.4077 140.683 56.94 139.557 60.5978C138.432 64.2556 136.462 64.8183 133.649 68.7575C130.835 72.6967 130.554 76.9172 129.991 79.1682C129.428 81.4191 126.333 84.7955 126.333 89.0161C126.333 93.2366 128.865 95.4876 135.056 99.7081C141.246 103.929 146.873 101.678 150.531 101.678C154.189 101.678 153.063 102.803 155.595 104.773C158.128 106.742 161.786 103.647 160.66 106.461C159.535 109.275 161.786 107.586 165.443 107.586C169.101 107.586 167.694 108.712 169.945 111.244C172.196 113.777 174.166 109.275 175.854 107.586C177.542 105.898 174.166 106.461 171.915 106.461C169.664 106.461 169.945 103.647 167.694 101.678C165.443 99.7081 164.318 101.959 161.786 101.678C159.253 101.396 155.877 99.9895 159.816 98.3013C163.755 96.613 170.508 97.1758 175.854 98.3013C181.2 99.4267 183.451 99.7081 181.2 96.613C180.348 95.4419 176.135 93.2366 174.166 92.9552C172.92 92.7773 167.941 92.5023 165.725 92.1111C160.941 91.267 159.253 91.8298 157.002 92.3925C155.254 92.8295 155.595 92.3925 150.531 94.3621C145.466 96.3317 139.557 95.2062 137.306 97.1758C135.056 99.1454 133.93 97.4571 132.242 92.3925C130.554 87.3279 131.679 85.3583 132.242 79.1682C132.805 72.978 139.557 67.3507 139.557 66.2252C139.557 65.0997 140.964 60.3164 142.09 58.6282C143.215 56.94 142.652 55.5332 142.09 53.0008C141.527 50.4685 135.9 48.4989 135.056 50.1872C134.211 51.8754 132.242 54.1263 128.865 55.5332C125.489 56.94 122.675 54.6891 120.424 53.0008Z" fill="#777E89"/>
<path d="M184.295 54.6891C183.926 54.7668 183.453 54.8366 182.914 54.8782C180.095 55.7572 181.065 59.3709 180.075 58.6282C178.949 57.7841 176.979 62.0047 177.261 64.2556C177.542 66.5066 180.075 63.4115 180.075 64.2556C180.075 65.0997 178.949 70.1644 178.668 67.632C178.386 65.0997 174.166 64.2556 167.694 62.0047C161.223 59.7537 160.66 54.6891 160.66 53.0008C160.66 51.3126 163.192 50.1872 165.443 53.0008C167.694 55.8145 167.694 53.0008 169.945 51.8754C172.196 50.7499 172.759 50.1872 175.854 53.0008C177.817 54.7851 180.852 55.0372 182.914 54.8782C183.299 54.7581 183.754 54.6891 184.295 54.6891Z" fill="#777E89"/>
<path d="M187.109 55.5332C187.784 55.5332 188.891 54.9704 189.36 54.6891C191.16 54.6891 190.11 56.7524 189.36 57.7841C188.609 58.3469 187.109 59.9788 187.109 62.0047C187.109 64.0305 183.92 64.9121 182.326 65.0997C182.326 64.068 182.719 61.7233 184.295 60.5978C186.265 59.191 186.265 55.5332 187.109 55.5332Z" fill="#777E89"/>
<path d="M170.469 121.197C172.264 120.261 174.747 115.99 175.854 113.777C175.854 117.716 178.668 111.244 178.668 112.088C178.668 112.932 177.261 116.309 175.854 118.56C174.977 119.963 172.025 120.819 170.469 121.197C170.286 121.292 170.111 121.353 169.945 121.374C169.097 121.48 169.527 121.426 170.469 121.197Z" fill="#777E89"/>
<path d="M104.668 43.997C106.243 42.6465 108.513 41.5585 109.451 41.1833C109.17 41.5585 108.382 42.8153 107.481 44.8411C106.356 47.3735 108.607 45.4039 107.481 50.1872C106.356 54.9704 107.481 51.8754 108.607 53.0008C109.732 54.1263 107.2 58.6282 107.481 57.7841C107.763 56.94 106.074 55.5332 104.668 55.5332C103.261 55.5332 103.542 53.0008 104.668 50.1872C105.793 47.3735 105.512 46.5294 103.542 47.6548C101.573 48.7803 102.698 45.6853 104.668 43.997Z" fill="#777E89"/>
<path d="M106.356 74.1035C106.356 71.8526 107.856 68.8513 108.607 67.632C108.888 68.4761 109.451 71.2336 109.451 75.5104C109.451 80.8564 113.109 80.0123 113.109 81.7005V87.0465C112.546 86.2962 111.027 84.5142 109.451 83.3887C107.481 81.9819 106.356 76.9172 106.356 74.1035Z" fill="#777E89"/>
<path d="M115.922 76.9172C115.247 75.1165 114.328 70.7271 113.953 68.7575C114.797 66.2252 115.922 67.632 115.922 71.2898C115.922 74.9476 116.767 79.1682 115.922 76.9172Z" fill="#777E89"/>
<path d="M152.219 108.712C150.868 109.612 147.905 110.025 146.592 110.119C149.687 112.651 152.219 110.119 154.751 108.712C157.284 107.305 153.907 107.586 152.219 108.712Z" fill="#777E89"/>
<path d="M160.66 112.088C159.76 113.664 156.909 113.87 155.595 113.777C158.741 117.434 161.786 113.777 163.192 111.244C164.599 108.712 161.786 110.119 160.66 112.088Z" fill="#777E89"/>
<path d="M139.557 76.9172C139.557 75.1165 142.559 72.4153 144.059 71.2898C146.029 69.601 146.592 71.2898 144.059 74.1035C141.527 76.9172 144.059 76.9172 142.09 79.1682C140.12 81.4191 142.09 84.7955 140.964 84.5142C139.839 84.2328 139.557 81.7005 140.964 79.1682C142.371 76.6358 139.557 79.1682 139.557 76.9172Z" fill="#777E89"/>
<path d="M148.28 51.8754C149.63 51.8754 152.594 49.0617 153.907 47.6548C158.128 47.6548 148.28 55.5332 150.531 55.5332C152.782 55.5332 150.531 60.5978 149.687 60.5978C148.843 60.5978 150.531 58.6282 148.28 58.6282C146.029 58.6282 146.592 57.7841 146.592 56.6586C146.592 55.5332 149.124 54.6891 146.592 55.5332C144.059 56.3773 146.592 51.8754 148.28 51.8754Z" fill="#777E89"/>
<path d="M165.443 49.0617C164.543 48.1613 163.568 47.7486 163.192 47.6548C165.725 46.248 169.101 47.6548 168.82 47.6548C168.538 47.6548 166.569 50.1872 165.443 49.0617Z" fill="#777E89"/>
<path d="M189.361 81.6994C193.112 82.9186 206.187 85.9483 208.212 87.5239M189.361 75.5092C192.831 75.5092 211.139 77.7039 213.84 78.6043M188.235 69.6005C191.143 68.2874 214.346 65.4362 221.999 64.5359M187.672 64.5359L191.33 62.5663M196.676 60.5967L213.84 56.3762M160.942 64.5359C158.785 62.3787 154.133 57.7267 152.783 56.3762M146.874 51.5929L143.497 49.9047M155.315 66.7868C154.19 65.6613 151.657 63.2416 150.532 62.5663M155.315 72.6956C152.97 71.4763 146.93 68.5876 141.528 66.7868M133.65 65.6613C131.68 65.6613 127.178 65.6613 124.927 65.6613M150.532 77.4788C148.843 76.6347 145.186 76.6347 144.623 76.6347M138.151 77.4788L134.494 78.6043" stroke="#777E89" stroke-width="1.12548" stroke-linejoin="round"/>
<path d="M179.514 76.2691C180.414 77.6197 181.015 79.2704 181.202 79.9269C180.171 81.1462 177.938 83.5284 177.263 83.3033C176.588 83.0782 176.982 79.0828 177.263 77.1132C176.607 78.8952 175.237 82.4029 175.012 82.1778C174.787 81.9527 175.106 78.7076 175.294 77.1132C174.731 77.8635 173.493 79.4767 173.043 79.9269C172.48 80.4896 172.199 78.52 172.199 77.6759C172.199 76.8318 172.761 75.9877 175.294 74.5809C177.826 73.174 178.389 74.5809 179.514 76.2691Z" fill="#777E89"/>
<path d="M180.358 90.9003C180.358 92.0258 179.42 91.3692 178.951 90.9003C167.978 87.5239 166.29 88.0866 164.883 87.8052C163.757 87.5801 164.414 86.7735 164.883 86.3984C165.821 85.2729 167.865 83.022 168.541 83.022C169.216 83.022 168.822 85.2729 168.541 86.3984C169.103 85.3667 170.398 83.3033 171.073 83.3033C171.748 83.3033 172.105 85.7419 172.199 86.9611C172.292 86.117 172.649 84.3162 173.324 83.8661C173.999 83.4159 174.356 85.7419 174.449 86.9611C174.731 86.117 175.462 84.5413 176.138 84.9915C176.813 85.4417 177.169 87.6176 177.263 88.6493C177.826 87.5239 179.233 84.879 180.358 83.3033C181.484 81.7277 181.39 82.6468 181.202 83.3033C180.921 85.3667 180.358 89.7748 180.358 90.9003Z" fill="#777E89"/>
<path d="M177.264 72.3304C178.165 72.1053 178.952 73.362 179.234 74.0186C179.941 75.1441 180.922 77.1136 181.766 77.1136C182.61 77.1136 181.203 72.3304 179.796 70.9235C178.39 69.5167 177.264 70.9235 175.857 70.9235C174.45 70.9235 170.793 72.8931 169.386 74.5813C167.979 76.2695 165.165 81.8969 160.382 85.5547C155.599 89.2125 157.85 88.3684 159.819 88.087C161.789 87.8057 163.477 86.1174 164.321 84.992C165.165 83.8665 168.542 79.9273 169.386 77.9577C170.23 75.9882 176.139 72.6117 177.264 72.3304Z" fill="#777E89"/>
<path d="M167.416 34.4297C166.516 33.0792 163.665 32.3664 162.352 32.1788C164.152 28.5773 166.478 29.9278 167.416 31.0533C169.011 31.0533 172.199 31.5035 172.199 33.3043C172.199 35.5552 178.671 34.4297 179.796 34.4297C180.922 34.4297 179.515 42.5894 178.671 43.7149C177.827 44.8404 177.264 39.213 176.139 38.0875C175.013 36.9621 174.169 38.0875 172.199 38.0875C170.23 38.0875 168.542 36.118 167.416 34.4297Z" fill="#777E89"/>
<path d="M132.808 16.7035C134.834 17.3788 139.467 20.1737 141.53 21.4868C144.625 22.7998 151.266 27.0016 153.066 33.3043C155.317 41.1826 151.66 43.7149 147.72 44.559C143.781 45.4031 139.561 40.0571 138.154 38.0875C136.747 36.118 134.777 34.4297 132.808 34.4297C130.838 34.4297 129.431 31.0533 125.211 29.6465C120.99 28.2396 122.116 31.0533 126.336 33.3043C130.557 35.5552 129.713 35.2738 128.025 35.2738C126.336 35.2738 123.804 33.3043 122.116 32.1788C120.428 31.0533 118.739 33.3043 121.272 34.4297C123.804 35.5552 125.774 34.4297 123.804 38.0875C121.834 41.7453 121.272 38.9316 117.333 40.0571C114.181 40.9575 111.142 38.1813 110.017 36.6807C111.049 34.8049 113.45 30.7719 114.8 29.6465C116.488 28.2396 117.895 21.4868 118.739 21.4868C119.583 21.4868 121.272 21.4868 121.272 18.3917C121.272 15.2966 124.648 17.829 128.025 18.3917C131.401 18.9544 130.275 15.8594 132.808 16.7035Z" fill="#777E89"/>
<path d="M141.53 63.4107C141.53 62.2853 142.843 60.3157 143.5 59.4716C144.532 59.7529 146.595 60.5408 146.595 61.4412C146.595 62.5666 141.53 64.8176 141.53 63.4107Z" fill="#777E89"/>
<path d="M99.3249 46.2472C98.1056 46.9038 95.7234 48.3856 95.9485 49.0609C96.2299 49.905 99.3249 49.905 99.3249 46.2472Z" fill="#777E89"/>
<path d="M99.3249 66.5058C99.3249 64.2548 99.8877 60.6908 100.169 59.1902C101.013 72.6959 100.732 63.9735 102.139 69.8822C103.545 75.791 105.234 67.0685 104.952 70.445C104.671 73.8214 102.701 75.791 102.139 74.3841C101.576 72.9773 100.169 72.4145 99.3249 72.9773C98.4808 73.54 99.3249 69.3195 99.3249 66.5058Z" fill="#777E89"/>
<path d="M109.736 91.2663C109.285 90.1408 107.485 88.3588 106.641 87.6085C107.485 85.6389 109.736 87.6085 111.142 91.2663C112.549 94.9241 113.956 92.9545 114.237 93.7986C114.519 94.6427 113.393 96.8936 112.831 96.3309C112.268 95.7682 110.298 92.6731 109.736 91.2663Z" fill="#777E89"/>
<path d="M129.15 107.867C127.799 106.967 124.648 103.553 123.241 101.958C124.648 101.958 131.964 106.742 132.808 108.711C133.652 110.681 134.777 108.993 137.872 109.837C140.968 110.681 135.34 110.962 133.933 110.962C132.526 110.962 130.838 108.993 129.15 107.867Z" fill="#777E89"/>
<path d="M140.405 115.745L143.218 113.494C141.249 115.464 143.218 115.745 146.314 115.745C149.409 115.745 151.66 114.339 150.253 115.745C148.846 117.152 146.314 117.152 149.409 117.152C152.504 117.152 154.755 117.152 151.66 118.278C148.564 119.403 152.504 119.966 151.66 120.529C150.815 121.091 145.188 121.654 147.439 120.529C149.69 119.403 148.002 119.122 146.314 118.278C145.007 117.624 146.398 117.139 146.571 117.084C146.538 117.094 146.459 117.116 146.314 117.152C145.413 117.377 141.999 116.308 140.405 115.745Z" fill="#777E89"/>
<path d="M155.88 125.593C155.655 124.018 154.661 123.249 154.192 123.061C156.668 123.061 157.287 125.687 157.287 127C158.225 125.312 160.382 122.386 161.507 124.186C162.633 125.987 164.79 125.875 165.728 125.593C168.26 124.186 173.325 122.048 173.325 124.749C173.325 128.126 175.576 124.186 176.701 123.624C177.827 123.061 176.701 127 174.732 128.407C172.762 129.814 172.481 128.407 172.762 127C173.044 125.593 170.511 124.468 168.823 125.593C167.135 126.719 165.447 127.563 163.196 127.563C160.945 127.563 162.07 127.281 161.507 125.593C160.945 123.905 159.257 126.719 158.131 128.407C157.006 130.095 156.161 127.563 155.88 125.593Z" fill="#777E89"/>
<path d="M193.302 84.5134C193.115 85.5451 192.852 87.6085 193.302 87.6085C193.865 87.6085 194.428 85.3575 193.302 84.5134Z" fill="#777E89"/>
<path d="M185.705 70.3608C185.705 70.827 185.327 71.2049 184.861 71.2049C184.395 71.2049 184.017 70.827 184.017 70.3608C184.017 69.8946 184.395 69.5167 184.861 69.5167C185.327 69.5167 185.705 69.8946 185.705 70.3608Z" fill="#777E89"/>
<path d="M187.393 74.5813C187.393 75.2029 186.89 75.7068 186.268 75.7068C185.646 75.7068 185.142 75.2029 185.142 74.5813C185.142 73.9597 185.646 73.4558 186.268 73.4558C186.89 73.4558 187.393 73.9597 187.393 74.5813Z" fill="#777E89"/>
<path d="M187.956 80.7714C187.956 81.393 187.452 81.8969 186.831 81.8969C186.209 81.8969 185.705 81.393 185.705 80.7714C185.705 80.1498 186.209 79.646 186.831 79.646C187.452 79.646 187.956 80.1498 187.956 80.7714Z" fill="#777E89"/>
<path d="M154.755 78.5205C154.755 79.1421 154.251 79.646 153.629 79.646C153.008 79.646 152.504 79.1421 152.504 78.5205C152.504 77.8989 153.008 77.395 153.629 77.395C154.251 77.395 154.755 77.8989 154.755 78.5205Z" fill="#777E89"/>
<path d="M159.819 74.0186C159.819 74.6402 159.315 75.1441 158.694 75.1441C158.072 75.1441 157.568 74.6402 157.568 74.0186C157.568 73.397 158.072 72.8931 158.694 72.8931C159.315 72.8931 159.819 73.397 159.819 74.0186Z" fill="#777E89"/>
<path d="M164.321 68.9539C164.321 69.5755 163.817 70.0794 163.196 70.0794C162.574 70.0794 162.07 69.5755 162.07 68.9539C162.07 68.3324 162.574 67.8285 163.196 67.8285C163.817 67.8285 164.321 68.3324 164.321 68.9539Z" fill="#777E89"/>
</g>
</svg>
