<svg width="736" height="111" viewBox="0 0 736 111" fill="none" xmlns="http://www.w3.org/2000/svg">
<g clip-path="url(#clip0)">
<rect width="736" height="111" fill="url(#paint0_linear)"/>
<g style="mix-blend-mode:lighten">
<circle cx="144" cy="19" r="52" fill="#FF9800"/>
<circle cx="38" cy="101" r="30" fill="#9B28B0"/>
<circle cx="-26" cy="19" r="30" fill="#FFC108"/>
<circle cx="524.5" cy="0.5" r="25.5" fill="#8BC44A"/>
<circle cx="664.5" cy="30.5" r="25.5" fill="#FF9800"/>
<circle cx="756" cy="100" r="37" fill="#8BC44A"/>
<circle cx="580" cy="99" r="43" fill="#03A9F4"/>
<circle cx="188.5" cy="115.5" r="20.5" fill="#FFC108"/>
</g>
<rect x="88.3643" y="-24.2195" width="31.9414" height="161.569" transform="rotate(45 88.3643 -24.2195)" fill="#8BC44A"/>
<path d="M16.2477 61.6945C16.3307 61.6116 16.4325 61.5701 16.5532 61.5701C16.6738 61.5701 16.7757 61.6116 16.8586 61.6945L18.0579 62.8938C18.1409 62.9767 18.1823 63.0786 18.1823 63.1992C18.1823 63.3199 18.1409 63.4218 18.0579 63.5047L14.6751 66.8875L16.2251 68.4375L19.3816 65.281C19.4646 65.198 19.5664 65.1565 19.6871 65.1565C19.8077 65.1565 19.9096 65.198 19.9925 65.281L21.1918 66.4802C21.2748 66.5632 21.3162 66.665 21.3162 66.7857C21.3162 66.9064 21.2748 67.0082 21.1918 67.0912L18.0353 70.2477L20.479 72.6915C20.562 72.7744 20.6035 72.8762 20.6035 72.9969C20.6035 73.1176 20.562 73.2194 20.479 73.3024L18.9969 74.7845C18.914 74.8675 18.8121 74.9089 18.6915 74.9089C18.5708 74.9089 18.469 74.8675 18.386 74.7845L11.0773 67.4758C10.9944 67.3929 10.9529 67.291 10.9529 67.1704C10.9529 67.0497 10.9944 66.9479 11.0773 66.8649L16.2477 61.6945ZM25.9796 67.8018C25.8966 67.8848 25.7948 67.9263 25.6741 67.9263C25.5535 67.9263 25.4516 67.8848 25.3687 67.8018L18.06 60.4932C17.977 60.4102 17.9356 60.3084 17.9356 60.1877C17.9356 60.067 17.977 59.9652 18.06 59.8822L19.5421 58.4001C19.6251 58.3171 19.7269 58.2757 19.8476 58.2757C19.9683 58.2757 20.0701 58.3171 20.153 58.4001L27.4617 65.7088C27.5447 65.7917 27.5862 65.8936 27.5862 66.0142C27.5862 66.1349 27.5447 66.2367 27.4617 66.3197L25.9796 67.8018ZM34.501 59.2804C34.3879 59.3935 34.2634 59.4652 34.1277 59.4953C33.9844 59.518 33.8675 59.5142 33.777 59.484L27.3168 58.2056L31.1409 62.0296C31.2238 62.1126 31.2653 62.2144 31.2653 62.3351C31.2653 62.4558 31.2238 62.5576 31.1409 62.6405L29.6588 64.1226C29.5758 64.2056 29.474 64.2471 29.3533 64.2471C29.2326 64.2471 29.1308 64.2056 29.0478 64.1226L21.7392 56.814C21.6562 56.731 21.6147 56.6292 21.6147 56.5085C21.6147 56.3878 21.6562 56.286 21.7392 56.203L22.9158 55.0264C23.0289 54.9133 23.1572 54.8454 23.3005 54.8228C23.4362 54.7926 23.5494 54.7926 23.6399 54.8228L30.1 56.1012L26.276 52.2772C26.193 52.1942 26.1515 52.0924 26.1515 51.9717C26.1515 51.851 26.193 51.7492 26.276 51.6662L27.7581 50.1842C27.841 50.1012 27.9429 50.0597 28.0635 50.0597C28.1842 50.0597 28.286 50.1012 28.369 50.1842L35.6777 57.4928C35.7606 57.5758 35.8021 57.6776 35.8021 57.7983C35.8021 57.919 35.7606 58.0208 35.6777 58.1037L34.501 59.2804ZM37.8678 55.9136C37.7849 55.9965 37.683 56.038 37.5624 56.038C37.4417 56.038 37.3399 55.9965 37.2569 55.9136L29.9482 48.6049C29.8653 48.522 29.8238 48.4201 29.8238 48.2994C29.8238 48.1788 29.8653 48.0769 29.9482 47.994L31.4303 46.5119C31.5133 46.4289 31.6151 46.3874 31.7358 46.3874C31.8565 46.3874 31.9583 46.4289 32.0413 46.5119L39.3499 53.8205C39.4329 53.9035 39.4744 54.0053 39.4744 54.126C39.4744 54.2467 39.4329 54.3485 39.3499 54.4315L37.8678 55.9136ZM41.7054 40.4682C41.7733 40.536 41.8072 40.6228 41.8072 40.7284C41.8072 40.8189 41.777 40.8943 41.7167 40.9546L40.2346 42.4367C40.129 42.5423 40.0347 42.614 39.9518 42.6517C39.8613 42.6819 39.7444 42.7007 39.601 42.7083C39.5709 42.7083 39.4728 42.7083 39.3069 42.7083C39.1334 42.7007 38.9222 42.7535 38.6733 42.8667C38.432 42.9723 38.1944 43.142 37.9606 43.3758C37.6362 43.7001 37.4137 44.0131 37.293 44.3148C37.1724 44.6014 37.2176 44.8503 37.4288 45.0615C37.5797 45.2124 37.7645 45.2689 37.9832 45.2312C38.1944 45.186 38.4659 45.0653 38.7978 44.8692C39.1372 44.6655 39.7066 44.2997 40.5061 43.7718C41.5319 43.0929 42.4295 42.7384 43.1988 42.7083C43.9681 42.6781 44.696 43.0062 45.3823 43.6926C45.8802 44.1904 46.1668 44.7787 46.2422 45.4575C46.3176 46.1212 46.1894 46.8227 45.8575 47.5618C45.5257 48.2859 45.0241 48.9836 44.3528 49.6549C43.7041 50.3035 43.0027 50.7787 42.2485 51.0804C41.4942 51.3821 40.7852 51.5028 40.1215 51.4425C39.4577 51.3821 38.926 51.1672 38.5262 50.7976C38.4584 50.7297 38.4244 50.6505 38.4244 50.56C38.4244 50.4544 38.4546 50.3714 38.5149 50.3111L39.997 48.829C40.163 48.663 40.3591 48.5725 40.5853 48.5575C40.6306 48.5575 40.7588 48.565 40.97 48.5801C41.1736 48.5876 41.4188 48.5386 41.7054 48.433C41.992 48.3123 42.2711 48.1162 42.5426 47.8447C43.4779 46.9094 43.7456 46.2419 43.3459 45.8422C43.2177 45.7139 43.0442 45.6762 42.8255 45.729C42.6067 45.7667 42.3465 45.8761 42.0448 46.0571C41.7431 46.2381 41.2717 46.5361 40.6306 46.9509L40.0197 47.3582C39.0844 47.9616 38.2434 48.252 37.4967 48.2294C36.7424 48.1992 36.041 47.8598 35.3923 47.2111C34.9549 46.7737 34.6834 46.2381 34.5778 45.6046C34.4646 44.9635 34.54 44.2922 34.804 43.5907C35.068 42.8742 35.5168 42.1992 36.1504 41.5656C36.7613 40.9546 37.4364 40.5134 38.1755 40.2419C38.9071 39.9628 39.5897 39.8534 40.2233 39.9138C40.8644 39.9666 41.3584 40.1514 41.7054 40.4682ZM47.3377 30.6045C47.4206 30.5216 47.5225 30.4801 47.6431 30.4801C47.7638 30.4801 47.8656 30.5216 47.9486 30.6045L55.2573 37.9132C55.3402 37.9962 55.3817 38.098 55.3817 38.2187C55.3817 38.3393 55.3402 38.4412 55.2573 38.5241L53.7752 40.0062C53.6922 40.0892 53.5904 40.1307 53.4697 40.1307C53.349 40.1307 53.2472 40.0892 53.1642 40.0062L50.3924 37.2344L47.8807 39.746L50.6526 42.5179C50.7356 42.6008 50.777 42.7027 50.777 42.8233C50.777 42.944 50.7356 43.0459 50.6526 43.1288L49.1705 44.6109C49.0875 44.6939 48.9895 44.7391 48.8763 44.7467C48.7557 44.7467 48.6501 44.7014 48.5596 44.6109L41.2509 37.3023C41.1679 37.2193 41.1264 37.1175 41.1264 36.9968C41.1264 36.8761 41.1679 36.7743 41.2509 36.6913L42.733 35.2092C42.816 35.1263 42.9178 35.0848 43.0385 35.0848C43.1591 35.0848 43.261 35.1263 43.3439 35.2092L46.0705 37.9358L48.5822 35.4242L45.8556 32.6976C45.7726 32.6146 45.7311 32.5128 45.7311 32.3921C45.7311 32.2714 45.7726 32.1696 45.8556 32.0866L47.3377 30.6045ZM56.1671 31.4596L59.4029 28.2239C59.4858 28.1409 59.5273 28.0391 59.5273 27.9184C59.5273 27.7977 59.4858 27.6959 59.4029 27.613L58.2036 26.4137C58.1206 26.3307 58.0188 26.2892 57.8981 26.2892C57.7775 26.2892 57.6756 26.3307 57.5927 26.4137L54.3569 29.6494L53.1351 28.4275L56.6197 24.9429C56.7027 24.8599 56.7441 24.7581 56.7441 24.6374C56.7441 24.5168 56.7027 24.4149 56.6197 24.332L55.4204 23.1327C55.3375 23.0498 55.2356 23.0083 55.115 23.0083C54.9943 23.0083 54.8925 23.0498 54.8095 23.1327L49.5373 28.4049C49.4543 28.4879 49.4129 28.5897 49.4129 28.7104C49.4129 28.8311 49.4543 28.9329 49.5373 29.0159L56.846 36.3245C56.9289 36.4075 57.0308 36.449 57.1514 36.449C57.2721 36.449 57.3739 36.4075 57.4569 36.3245L62.8196 30.9618C62.9026 30.8788 62.9441 30.777 62.9441 30.6563C62.9441 30.5357 62.9026 30.4338 62.8196 30.3509L61.6203 29.1516C61.5374 29.0686 61.4356 29.0272 61.3149 29.0272C61.1942 29.0272 61.0924 29.0686 61.0094 29.1516L57.4343 32.7267L56.1671 31.4596ZM66.537 17.7182C66.9745 18.1255 67.2536 18.3895 67.3743 18.5102C67.4949 18.6309 67.7514 18.9024 68.1436 19.3248C68.7394 19.9659 69.1241 20.6749 69.2976 21.4518C69.4786 22.2211 69.4447 23.0017 69.1958 23.7937C68.9393 24.5781 68.4679 25.3135 67.7815 25.9999L64.7268 29.0546C64.6439 29.1375 64.5421 29.179 64.4214 29.179C64.3007 29.179 64.1989 29.1375 64.1159 29.0546L56.8072 21.7459C56.7243 21.6629 56.6828 21.5611 56.6828 21.4404C56.6828 21.3198 56.7243 21.2179 56.8072 21.135L59.8054 18.1368C60.4917 17.4505 61.2347 16.9791 62.0342 16.7226C62.8337 16.4511 63.6256 16.4058 64.4101 16.5869C65.1945 16.7528 65.9035 17.1299 66.537 17.7182ZM60.405 21.1576L64.7042 25.4568L65.9148 24.2462C66.8651 23.2959 66.9255 22.3682 66.0958 21.4631C65.6734 21.0105 65.3944 20.7164 65.2586 20.5806C65.1077 20.4297 64.8211 20.1582 64.3987 19.766C63.9462 19.3587 63.4786 19.1777 62.9958 19.223C62.5207 19.2607 62.0417 19.5209 61.559 20.0036L60.405 21.1576ZM71.794 16.5116C71.877 16.5945 71.9185 16.6963 71.9185 16.817C71.9185 16.9377 71.877 17.0395 71.794 17.1225L70.3685 18.548C70.2855 18.631 70.1837 18.6725 70.063 18.6725C69.9423 18.6725 69.8405 18.631 69.7576 18.548L64.8813 13.6718C64.7984 13.5888 64.7569 13.487 64.7569 13.3663C64.7569 13.2457 64.7984 13.1438 64.8813 13.0609L66.3069 11.6353C66.3898 11.5524 66.4917 11.5109 66.6123 11.5109C66.733 11.5109 66.8348 11.5524 66.9178 11.6353L71.794 16.5116ZM74.2265 18.944C74.3094 19.027 74.3509 19.1288 74.3509 19.2495C74.3509 19.3701 74.3094 19.472 74.2265 19.5549L72.8009 20.9805C72.718 21.0634 72.6162 21.1049 72.4955 21.1049C72.3748 21.1049 72.273 21.0634 72.19 20.9805L71.0473 19.8378C70.9644 19.7548 70.9229 19.653 70.9229 19.5323C70.9229 19.4116 70.9644 19.3098 71.0473 19.2268L72.4728 17.8013C72.5558 17.7183 72.6576 17.6769 72.7783 17.6769C72.899 17.6769 73.0008 17.7183 73.0838 17.8013L74.2265 18.944Z" fill="white"/>
<g filter="url(#filter0_i)">
<rect x="664" y="32" width="48" height="48" rx="16" fill="#EA1E62"/>
<path d="M691.825 59L688 55.2915L684.175 59L683 57.8583L688 53L693 57.8583L691.825 59Z" fill="white"/>
</g>
<path d="M326.592 60.1C326.627 60.4533 326.645 61.16 326.645 62.22C326.645 63.3153 326.627 64.0397 326.592 64.393C326.451 68.3857 325.267 71.4067 323.041 73.456C320.85 75.5053 318.077 76.53 314.72 76.53C313.271 76.53 312.07 76.371 311.116 76.053C310.197 75.7703 309.473 75.417 308.943 74.993C308.448 74.569 307.918 74.0213 307.353 73.35V74.569C307.353 74.9577 307.212 75.2933 306.929 75.576C306.646 75.8587 306.311 76 305.922 76H299.509C299.12 76 298.785 75.8587 298.502 75.576C298.219 75.2933 298.078 74.9577 298.078 74.569V39.801C298.078 39.4123 298.219 39.0767 298.502 38.794C298.785 38.5113 299.12 38.37 299.509 38.37H306.187C306.576 38.37 306.911 38.5113 307.194 38.794C307.477 39.0767 307.618 39.4123 307.618 39.801V51.09C308.254 50.242 309.137 49.5 310.268 48.864C311.399 48.228 312.883 47.91 314.72 47.91C318.112 47.91 320.903 48.9523 323.094 51.037C325.285 53.0863 326.451 56.1073 326.592 60.1ZM312.335 56.125C310.886 56.125 309.773 56.549 308.996 57.397C308.219 58.2097 307.759 59.199 307.618 60.365C307.547 61.0717 307.512 61.69 307.512 62.22C307.512 62.75 307.547 63.3683 307.618 64.075C307.795 65.2763 308.254 66.2833 308.996 67.096C309.773 67.9087 310.886 68.315 312.335 68.315C313.89 68.315 315.038 67.891 315.78 67.043C316.557 66.195 316.999 65.082 317.105 63.704C317.176 62.9973 317.211 62.5027 317.211 62.22C317.211 61.9373 317.176 61.4427 317.105 60.736C316.999 59.358 316.557 58.245 315.78 57.397C315.038 56.549 313.89 56.125 312.335 56.125ZM341.209 74.569C341.209 74.9577 341.067 75.2933 340.785 75.576C340.502 75.8587 340.166 76 339.778 76H333.1C332.711 76 332.375 75.8587 332.093 75.576C331.81 75.2933 331.669 74.9577 331.669 74.569V39.801C331.669 39.4123 331.81 39.0767 332.093 38.794C332.375 38.5113 332.711 38.37 333.1 38.37H339.778C340.166 38.37 340.502 38.5113 340.785 38.794C341.067 39.0767 341.209 39.4123 341.209 39.801V74.569ZM363.145 57.98C363.145 56.0367 362.121 55.065 360.071 55.065C358.905 55.065 357.951 55.383 357.209 56.019C356.927 56.3017 356.644 56.4783 356.361 56.549C356.079 56.6197 355.725 56.655 355.301 56.655H348.57C348.217 56.655 347.917 56.549 347.669 56.337C347.457 56.125 347.369 55.8423 347.404 55.489C347.51 54.3937 348.111 53.263 349.206 52.097C350.337 50.8957 351.856 49.9063 353.764 49.129C355.672 48.3163 357.775 47.91 360.071 47.91C364.276 47.91 367.421 48.864 369.505 50.772C371.625 52.68 372.685 55.2593 372.685 58.51V74.569C372.685 74.9577 372.544 75.2933 372.261 75.576C371.979 75.8587 371.643 76 371.254 76H364.576C364.188 76 363.852 75.8587 363.569 75.576C363.287 75.2933 363.145 74.9577 363.145 74.569V73.085C362.227 74.2157 361.131 75.0813 359.859 75.682C358.587 76.2473 356.98 76.53 355.036 76.53C352.068 76.53 349.736 75.7527 348.04 74.198C346.38 72.6433 345.549 70.6293 345.549 68.156C345.549 65.7887 346.468 63.8453 348.305 62.326C350.143 60.8067 353.022 59.7113 356.944 59.04L363.145 57.98ZM358.269 65.029C357.28 65.2057 356.503 65.5237 355.937 65.983C355.372 66.407 355.089 66.937 355.089 67.573C355.089 68.7743 355.937 69.375 357.633 69.375C359.188 69.375 360.495 68.8803 361.555 67.891C362.615 66.9017 363.145 65.7003 363.145 64.287L358.269 65.029ZM406.81 74.569C406.81 74.9577 406.669 75.2933 406.386 75.576C406.104 75.8587 405.768 76 405.379 76H398.701C398.313 76 397.977 75.8587 397.694 75.576C397.412 75.2933 397.27 74.9577 397.27 74.569V61.16C397.27 59.6053 396.882 58.3863 396.104 57.503C395.362 56.5843 394.214 56.125 392.659 56.125C391.14 56.125 389.992 56.5667 389.214 57.45C388.472 58.3333 388.101 59.57 388.101 61.16V74.569C388.101 74.9577 387.96 75.2933 387.677 75.576C387.395 75.8587 387.059 76 386.67 76H379.992C379.604 76 379.268 75.8587 378.985 75.576C378.703 75.2933 378.561 74.9577 378.561 74.569V49.871C378.561 49.4823 378.703 49.1467 378.985 48.864C379.268 48.5813 379.604 48.44 379.992 48.44H386.405C386.794 48.44 387.13 48.5813 387.412 48.864C387.695 49.1467 387.836 49.4823 387.836 49.871V51.09C389.497 48.97 391.988 47.91 395.309 47.91C398.878 47.91 401.687 48.917 403.736 50.931C405.786 52.945 406.81 55.966 406.81 59.994V74.569ZM429.206 49.341C429.806 48.7403 430.495 48.44 431.273 48.44H439.064C439.417 48.44 439.717 48.5637 439.965 48.811C440.212 49.0583 440.336 49.3587 440.336 49.712C440.336 49.8887 440.3 50.0477 440.23 50.189C440.159 50.3303 440 50.5247 439.753 50.772L430.319 61.266L441.449 73.721C441.802 74.1097 441.979 74.4453 441.979 74.728C441.979 75.0813 441.855 75.3817 441.608 75.629C441.36 75.8763 441.06 76 440.707 76H432.81C431.891 76 431.167 75.6997 430.637 75.099L422.21 65.612V74.569C422.21 74.9577 422.068 75.2933 421.786 75.576C421.503 75.8587 421.167 76 420.779 76H414.101C413.712 76 413.376 75.8587 413.094 75.576C412.811 75.2933 412.67 74.9577 412.67 74.569V39.801C412.67 39.4123 412.811 39.0767 413.094 38.794C413.376 38.5113 413.712 38.37 414.101 38.37H420.779C421.167 38.37 421.503 38.5113 421.786 38.794C422.068 39.0767 422.21 39.4123 422.21 39.801V56.973L429.206 49.341Z" fill="white"/>
<circle cx="282" cy="40" r="3" fill="#FFC108"/>
<circle cx="282" cy="51" r="3" fill="#FF9800"/>
<circle cx="282" cy="62" r="3" fill="#8BC44A"/>
<circle cx="282" cy="73" r="3" fill="#03A9F4"/>
</g>
<defs>
<filter id="filter0_i" x="664" y="31" width="48" height="49" filterUnits="userSpaceOnUse" color-interpolation-filters="sRGB">
<feFlood flood-opacity="0" result="BackgroundImageFix"/>
<feBlend mode="normal" in="SourceGraphic" in2="BackgroundImageFix" result="shape"/>
<feColorMatrix in="SourceAlpha" type="matrix" values="0 0 0 0 0 0 0 0 0 0 0 0 0 0 0 0 0 0 127 0" result="hardAlpha"/>
<feOffset dy="-1"/>
<feGaussianBlur stdDeviation="0.5"/>
<feComposite in2="hardAlpha" operator="arithmetic" k2="-1" k3="1"/>
<feColorMatrix type="matrix" values="0 0 0 0 0.054902 0 0 0 0 0.054902 0 0 0 0 0.172549 0 0 0 0.4 0"/>
<feBlend mode="normal" in2="shape" result="effect1_innerShadow"/>
</filter>
<linearGradient id="paint0_linear" x1="368" y1="0" x2="368" y2="111" gradientUnits="userSpaceOnUse">
<stop stop-color="#20252D"/>
<stop offset="1" stop-color="#15181E"/>
</linearGradient>
<clipPath id="clip0">
<rect width="736" height="111" fill="white"/>
</clipPath>
</defs>
</svg>
